<?xml version="1.0" standalone="no"?>
<!DOCTYPE svg PUBLIC "-//W3C//DTD SVG 1.1//EN" "http://www.w3.org/Graphics/SVG/1.1/DTD/svg11.dtd" >
<svg xmlns="http://www.w3.org/2000/svg">
<metadata></metadata>
<defs>
<font id="pragmataproitalic" horiz-adv-x="1024" >
<font-face units-per-em="2048" ascent="1638" descent="-410" />
<missing-glyph horiz-adv-x="500" />
<glyph unicode="&#x2204;&#x21;" d="M621 1622l-32 -96h138l-269 -1526h-367l-37 -115h-146l38 115h-52v148h100l188 578h-109v144h156l167 511h-260v145h307l32 96h146zM993 1132l-148 -640h-135l182 1034h171zM349 148l102 578h-123l-188 -578h209zM853 110q0 -54 -36 -91.5t-90 -37.5t-89.5 37.5 t-35.5 91.5q0 55 35.5 93t89.5 38t90 -38t36 -93zM476 870l90 511h-24l-167 -511h101z" />
<glyph unicode="&#x2203;&#x21;" d="M349 148l102 578h-378v144h403l90 511h-430v145h591l-269 -1526h-564v148h455zM993 1132l-148 -640h-135l182 1034h171zM853 110q0 -54 -36 -91.5t-90 -37.5t-89.5 37.5t-35.5 91.5q0 55 35.5 93t89.5 38t90 -38t36 -93z" />
<glyph unicode=" " />
<glyph unicode="!" d="M518 492h-141l182 1034h171l-70 -398zM526 110q0 -54 -38.5 -91.5t-92.5 -37.5t-92 37.5t-38 91.5q0 55 38 93t92 38t92.5 -38t38.5 -93z" />
<glyph unicode="&#x22;" d="M841 954h-171l101 572h171zM418 954h-171l101 572h171z" />
<glyph unicode="#" d="M878 395h-236l-138 -395h-171l138 395h-192l-138 -395h-171l138 395h-156v145h207l156 447h-182v145h233l137 394h171l-137 -394h192l137 394h171l-137 -394h159v-145h-210l-156 -447h185v-145zM522 540l156 447h-192l-156 -447h192z" />
<glyph unicode="$" d="M855 441q0 -157 -103.5 -277t-261.5 -136l-54 -309h-171l54 313q-214 38 -300 243l142 95q76 -191 269 -191q109 0 180.5 67.5t71.5 170.5q0 99 -96 185l-231 208q-125 113 -125 266q0 166 98.5 288t250.5 139l54 305h171l-54 -308q161 -33 262 -200l-148 -102 q-66 156 -222 156q-113 0 -176 -74.5t-63 -178.5q0 -97 81 -169l227 -205q144 -128 144 -286z" />
<glyph unicode="%" d="M1054 1526l-908 -1526h-165l909 1526h164zM556 1349q0 -88 -54 -142.5t-124 -54.5q-71 0 -123.5 54.5t-52.5 142.5q0 86 52.5 141.5t123.5 55.5q70 0 124 -55.5t54 -141.5zM819 177q0 -88 -54 -142t-125 -54q-70 0 -122.5 54t-52.5 142q0 87 52.5 142t122.5 55 q71 0 125 -55.5t54 -141.5z" />
<glyph unicode="&#x26;" d="M725 422l153 -379v-43h-138l-99 242q-121 -261 -324 -261q-131 0 -202 92.5t-71 256.5q0 369 326 584l-18 45q-43 108 -43 201q0 175 92.5 281.5t226.5 106.5q233 0 262 -257l-160 -61q-8 166 -106 166q-66 0 -105.5 -64t-39.5 -172q0 -132 68 -295l103 -259l114 246h143 v-37zM327 131q101 0 181 168l59 127l-143 355q-209 -151 -209 -451q0 -98 26 -148.5t86 -50.5z" />
<glyph unicode="'" d="M630 954h-171l100 572h171z" />
<glyph unicode="(" d="M620 -205q-379 290 -379 802q0 705 717 1140l70 -123q-623 -407 -623 -1017q0 -441 316 -692z" />
<glyph unicode=")" d="M402 1737q379 -290 379 -802q0 -705 -717 -1140l-70 123q623 408 623 1017q0 441 -316 692z" />
<glyph unicode="*" d="M541 778l-197 -297l-130 92l220 282l-344 98l49 152l333 -123l-14 361h165l-13 -361l333 123l49 -152l-344 -98l219 -282l-129 -93z" />
<glyph unicode="+" d="M903 534h-363l-63 -353h-150l63 353h-338v145h363l63 354h150l-63 -354h338v-145z" />
<glyph unicode="," d="M602 150q0 -185 -263 -503h-189q169 191 239 353q-72 3 -126 55.5t-54 130.5q0 87 51.5 142.5t134.5 55.5q94 0 150.5 -64.5t56.5 -169.5z" />
<glyph unicode="-" d="M903 534h-851v145h851v-145z" />
<glyph unicode="." d="M599 177q0 -78 -56.5 -137t-141.5 -59q-86 0 -140.5 59t-54.5 137q0 77 54.5 137t140.5 60q85 0 141.5 -60.5t56.5 -136.5z" />
<glyph unicode="/" d="M1052 1526l-908 -1526h-175l908 1526h175z" />
<glyph unicode="0" d="M554 676h-85v222h85v-222zM749 764q6 37 9 81t3 96q0 64 -4.5 140t-12.5 166q-7 73 -40 109t-96 36q-50 0 -89 -36.5t-71 -108.5q-72 -163 -116.5 -282.5t-58.5 -200.5q-6 -37 -9 -81t-3 -96q0 -64 4.5 -140.5t12.5 -166.5q7 -72 37.5 -108.5t89.5 -36.5q54 0 95.5 36.5 t73.5 108.5q72 162 116.5 282.5t58.5 201.5zM107 783q14 80 60 205.5t121 301.5q55 129 137.5 193.5t199.5 64.5q244 0 275 -258q26 -228 26 -377q0 -103 -11 -168q-14 -79 -59.5 -205t-121.5 -301q-55 -130 -140 -194t-207 -64q-235 0 -265 258q-26 227 -26 376 q0 103 11 168z" />
<glyph unicode="1" d="M408 0l231 1311l-326 -224l-82 120l465 319h151l-268 -1526h-171z" />
<glyph unicode="2" d="M761 0h-707q0 323 331 668l279 291q66 71 96 137.5t30 133.5q0 83 -48 123t-130 40q-162 0 -257 -195l-123 97q154 253 398 253q144 0 237 -90t93 -226q0 -84 -41.5 -182.5t-152.5 -214.5l-273 -286q-225 -237 -255 -404h523v-145z" />
<glyph unicode="3" d="M157 325q48 -190 240 -190q152 0 219.5 129.5t67.5 267.5q0 110 -67 157t-172 47h-43v145h88q130 0 207.5 98.5t77.5 236.5q0 85 -48.5 131t-126.5 46q-162 0 -258 -190l-123 92q147 253 399 253q145 0 235 -96.5t90 -237.5q0 -129 -60 -241.5t-207 -163.5 q177 -70 177 -274q0 -216 -119 -385t-353 -169q-263 0 -379 251z" />
<glyph unicode="4" d="M840 414h-111l-72 -414h-170l72 414h-524v145l682 967h208l-170 -967h85v-145zM585 559l123 695l-494 -695h371z" />
<glyph unicode="5" d="M835 457q-43 -238 -167 -357q-126 -119 -289 -119q-250 0 -352 235l156 92q51 -173 212 -173q88 0 163 78q77 80 109 263q11 67 11 119q0 92 -37 140q-57 75 -205 75h-217l127 716h632v-145h-487l-75 -417h67q189 0 294 -124q72 -86 72 -235q0 -69 -14 -148z" />
<glyph unicode="6" d="M693 459q13 79 13 133q0 80 -27 120q-44 68 -130 68q-172 0 -264 -237q-11 -61 -16.5 -111.5t-5.5 -91.5q0 -91 28 -130q52 -75 144 -75q88 0 157 75q71 74 101 249zM860 440q-41 -228 -159 -344q-118 -115 -285 -115q-155 0 -255 134q-64 88 -64 245q0 43 4 90t14 99 l79 450q51 289 173 418q123 131 305 131q204 0 319 -209l-156 -97q-49 151 -178 151q-107 0 -182 -89q-71 -88 -114 -324l-34 -194q99 149 270 149q150 0 226 -131q50 -85 50 -217q0 -33 -3 -70t-10 -77z" />
<glyph unicode="7" d="M644 734q-263 -397 -263 -734h-170q0 366 320 846l187 276q120 180 120 259h-582v145h761q0 -242 -187 -516z" />
<glyph unicode="8" d="M502 722q-169 -81 -233.5 -188t-64.5 -220q0 -88 56 -133.5t149 -45.5q136 0 205 91.5t69 226.5q0 172 -181 269zM611 1393q-106 0 -165 -80t-59 -182q0 -136 146 -236q136 78 192 162.5t56 175.5q0 75 -46 117.5t-124 42.5zM391 -19q-161 0 -257 98t-96 242 q0 137 75 272t266 225q-160 145 -160 315q0 163 110.5 289t299.5 126q136 0 228.5 -88.5t92.5 -223.5q0 -143 -80.5 -246.5t-206.5 -171.5q190 -139 190 -353q0 -212 -125.5 -348t-336.5 -136z" />
<glyph unicode="9" d="M329 1069q-14 -80 -14 -138q0 -77 27 -118q46 -67 131 -67q184 0 268 255q11 55 15 101t4 83q0 93 -29 134q-52 74 -144 74q-88 0 -157 -74q-71 -75 -101 -250zM162 1089q41 228 159 343q117 116 285 116q154 0 255 -136q64 -88 64 -244q0 -43 -4 -89.5t-14 -98.5 l-79 -451q-51 -288 -174 -419q-122 -129 -304 -129q-205 0 -319 208l155 91q48 -145 179 -145q108 0 181 88t116 326l34 193q-93 -149 -271 -149q-150 0 -226 131q-51 87 -51 216q0 69 14 149z" />
<glyph unicode=":" d="M599 177q0 -78 -56.5 -137t-141.5 -59q-86 0 -140.5 59t-54.5 137q0 77 54.5 137t140.5 60q85 0 141.5 -60.5t56.5 -136.5zM749 956q0 -78 -56.5 -137t-141.5 -59q-86 0 -141 59t-55 137t55 137.5t141 59.5q85 0 141.5 -60t56.5 -137z" />
<glyph unicode=";" d="M602 150q0 -185 -263 -503h-189q169 191 239 353q-72 3 -126 55.5t-54 130.5q0 87 51.5 142.5t134.5 55.5q94 0 150.5 -64.5t56.5 -169.5zM749 956q0 -78 -56.5 -137t-141.5 -59q-86 0 -141 59t-55 137t55 137.5t141 59.5q85 0 141.5 -60t56.5 -137z" />
<glyph unicode="&#x3c;" d="M169 607l621 -377v-183l-747 452v215l913 452v-183z" />
<glyph unicode="=" d="M935 719h-851v145h851v-145zM870 349h-851v145h851v-145z" />
<glyph unicode="&#x3e;" d="M165 983v183l746 -452v-215l-911 -452v183l789 377z" />
<glyph unicode="?" d="M336 492l10 56q22 122 107 224l242 280q71 85 71 175q0 69 -49 113t-132 44q-161 0 -265 -181l-123 92q166 253 409 253q150 0 241 -94t91 -213q0 -86 -38.5 -165.5t-89.5 -138.5l-234 -270q-48 -56 -59 -120l-10 -55h-171zM503 110q0 -54 -38 -91.5t-93 -37.5 q-54 0 -92 37.5t-38 91.5q0 55 38 93t92 38q55 0 93 -38t38 -93z" />
<glyph unicode="@" d="M823 810q2 13 3.5 24.5t1.5 22.5q0 66 -34.5 100t-91.5 34q-111 0 -146 -192l-30 -174q-5 -27 -5 -45q0 -52 26 -79q35 -38 92 -38q56 0 96 38.5t55 123.5zM642 1399q-139 0 -238 -103q-101 -101 -139 -322l-78 -440q-5 -33 -8 -59.5t-3 -47.5q0 -123 64 -197 q87 -102 252 -102q225 0 389 151l-32 -180q-144 -120 -377 -120q-224 0 -353 155q-93 113 -93 284q0 28 3 62t10 74l77 439q49 283 195 418q145 137 348 137q181 0 292 -124q76 -85 76 -245q0 -70 -15 -154l-71 -409q-26 -147 -113 -221q-86 -73 -205 -73q-117 0 -193 92 q-57 69 -57 169q0 36 7 72l19 115q62 362 289 362q118 0 173 -104q13 76 13 132q0 103 -40 155q-64 84 -192 84z" />
<glyph unicode="A" d="M281 502h363q-1 169 -7.5 366t-19.5 427zM751 1526q30 -332 46 -613t16 -514q0 -222 -14 -399h-170q13 153 14 357h-421q-78 -213 -78 -357h-170q0 217 155 566l430 960h192z" />
<glyph unicode="B" d="M219 145h133q207 0 269.5 145t62.5 276q0 88 -48 135t-146 47h-164zM351 893h129q138 0 209.5 103.5t71.5 228.5q0 77 -46.5 116.5t-150.5 39.5h-126zM293 1526h286q188 0 271.5 -90.5t83.5 -216.5q0 -139 -59.5 -243t-187.5 -156q169 -68 169 -271q0 -218 -115 -383.5 t-404 -165.5h-294q0 106 23 236z" />
<glyph unicode="C" d="M851 226q-167 -245 -411 -245q-145 0 -241 89.5t-96 266.5q0 118 110 709q52 290 175 396t287 106q257 0 356 -248l-155 -84q-54 177 -217 177q-97 0 -167 -68.5t-110 -297.5q-110 -578 -110 -688q0 -107 51 -155.5t133 -48.5q163 0 272 185z" />
<glyph unicode="D" d="M445 1381l-218 -1236h93q154 0 259 120.5t147 360.5q67 356 67 445q0 135 -66 222.5t-208 87.5h-74zM301 1526h233q219 0 326 -131.5t107 -324.5q0 -101 -69 -463q-26 -150 -78.5 -263t-128 -190t-173 -115.5t-214.5 -38.5h-253q0 106 23 236z" />
<glyph unicode="E" d="M96 236l227 1290h689v-145h-544l-88 -494h380v-145h-405l-106 -597h520v-145h-697q0 106 24 236z" />
<glyph unicode="F" d="M1057 1381h-564l-88 -494h431v-145h-456l-131 -742h-170l269 1526h709v-145z" />
<glyph unicode="G" d="M527 671v145h356q0 -107 -23 -235l-24 -138q-44 -250 -162 -356t-282 -106t-258 125q-64 87 -64 229q0 67 14 147l107 603q46 252 160 356q117 107 289 107q233 0 332 -248l-155 -84q-54 177 -193 177q-104 0 -169 -70q-64 -68 -98 -258l-106 -602q-13 -79 -13 -135 q0 -82 28 -123q47 -70 144 -70q94 0 160 70t99 258l37 208h-179z" />
<glyph unicode="H" d="M744 0h-170l134 763h-394l-134 -763h-170l268 1526h170l-109 -618h394l109 618h170z" />
<glyph unicode="I" d="M724 0h-653v145h245l218 1236h-187v145h549v-145h-191l-218 -1236h237v-145z" />
<glyph unicode="J" d="M785 440q-43 -247 -157 -354q-112 -105 -267 -105q-145 0 -241 124q-66 84 -66 228q0 34 3.5 70t10.5 75l35 204h170l-39 -224q-7 -37 -10 -68.5t-3 -59.5q0 -84 29 -125q49 -70 128 -70q88 0 148 70q59 70 91 253l189 1068h171z" />
<glyph unicode="K" d="M497 1526l-128 -722l270 309q220 253 263 413h170q-56 -207 -340 -526l-132 -150l138 -313q122 -279 122 -537h-169q0 269 -118 537l-83 189l-165 -176l-97 -550h-170l269 1526h170z" />
<glyph unicode="L" d="M150 236l227 1290h170l-244 -1381h510v-145h-686q0 106 23 236z" />
<glyph unicode="M" d="M1017 1526q0 -106 -23 -235l-227 -1291h-170l69 393q68 387 189 905l-308 -631h-107l-85 631q-61 -518 -130 -905l-69 -393h-170l269 1526h170l108 -634l333 634h151z" />
<glyph unicode="N" d="M744 0h-157l72 488l-286 821q-44 -463 -100 -780l-93 -529h-170l268 1526h170l287 -827q44 463 99 780l8 47h170z" />
<glyph unicode="O" d="M254 463q-8 -40 -10.5 -74t-2.5 -63q0 -81 26 -121q46 -70 142 -70q94 0 157 70q62 70 96 258l106 602q13 80 13 134q0 81 -28 123q-47 71 -142 71t-157 -70q-60 -68 -94 -258zM193 1085q46 252 157 356q115 107 280 107q167 0 258 -126q62 -85 62 -226q0 -69 -15 -150 l-106 -603q-44 -251 -158 -356q-57 -52 -125.5 -79t-152.5 -27q-167 0 -259 125q-63 86 -63 228q0 67 15 148z" />
<glyph unicode="P" d="M375 838h171q162 0 224 114.5t62 254.5q0 94 -52.5 134t-156.5 40h-152zM228 0h-170l269 1526h312q185 0 275 -95t90 -240q0 -206 -121.5 -352t-351.5 -146h-181z" />
<glyph unicode="Q" d="M768 1065q13 79 13 133q0 82 -28 124q-47 71 -142 71t-157 -71q-60 -68 -94 -257l-104 -594q-8 -43 -11.5 -79.5t-3.5 -66.5q0 -82 26 -120q46 -70 143 -70q93 0 156 70q63 71 98 266zM829 443q-61 -344 -283 -426l61 -277h-181l-53 241q-148 2 -239 125q-63 86 -63 228 q0 67 15 148l107 603q46 252 157 356q115 107 280 107q167 0 258 -126q62 -85 62 -226q0 -69 -15 -150z" />
<glyph unicode="R" d="M366 840h162q146 0 215 107.5t69 259.5q0 93 -50 133.5t-148 40.5h-152zM340 696l-122 -696h-170l269 1526h314q203 0 290 -120q64 -89 64 -210q0 -145 -70.5 -278.5t-241.5 -195.5q138 -298 138 -713v-9h-170q0 429 -123 696h-178z" />
<glyph unicode="S" d="M12 232l142 95q75 -192 270 -192q107 0 178.5 72.5t71.5 176.5q0 89 -106 208l-221 246q-111 124 -111 267q0 186 112 314.5t317 128.5q229 0 353 -209l-149 -103q-65 157 -221 157q-113 0 -176 -75t-63 -188q0 -93 81 -182l220 -245q137 -152 137 -295q0 -171 -114 -299 t-325 -128q-289 0 -396 251z" />
<glyph unicode="T" d="M1021 1381h-316l-243 -1381h-170l243 1381h-312v145h798v-145z" />
<glyph unicode="U" d="M821 439q-43 -246 -160 -353q-114 -105 -269 -105q-154 0 -248 124q-64 85 -64 227q0 33 3 69.5t11 75.5l184 1049h170l-188 -1068q-7 -38 -10.5 -70.5t-3.5 -60.5q0 -84 30 -125q50 -67 133 -67t146 67q64 66 98 256l188 1068h171z" />
<glyph unicode="V" d="M281 0q-31 331 -47 613t-16 514q0 223 15 399h170q-8 -93 -12 -206t-4 -249q0 -177 7 -388.5t20 -460.5l244 542q230 510 230 762h170q0 -291 -253 -825l-333 -701h-191z" />
<glyph unicode="W" d="M592 140q105 314 173 698l121 688h170l-84 -474q-85 -485 -309 -1052h-161l-21 562l-230 -562h-160q0 707 105 1307l39 219h170l-70 -398q-84 -476 -138 -988l263 659h108z" />
<glyph unicode="X" d="M-34 0q0 211 220 497l233 306l-76 166q-115 248 -115 557h170q0 -309 84 -491l44 -95l176 230q181 235 181 356h170q0 -154 -229 -453l-224 -292l73 -160q131 -283 131 -621h-170q0 338 -97 548l-43 92l-186 -239q-172 -223 -172 -401h-170z" />
<glyph unicode="Y" d="M462 0h-170l114 650l-93 308q-104 344 -104 568h170q0 -248 84 -527l51 -169l209 305q160 233 160 391h170q0 -184 -205 -483l-272 -393z" />
<glyph unicode="Z" d="M729 1174q94 124 94 207h-525v145h694v-116q0 -160 -142 -348l-529 -711q-93 -127 -93 -206h544v-145h-713v116q0 157 141 348l529 710v0z" />
<glyph unicode="[" d="M196 103l274 1555h517v-151h-372l-262 -1488h345v-151h-525q0 106 23 235z" />
<glyph unicode="\" d="M403 1526l371 -1526h-156l-371 1526h156z" />
<glyph unicode="]" d="M825 1422l-274 -1554h-517v151h373l262 1488h-346v151h525q0 -107 -23 -236z" />
<glyph unicode="^" d="M884 601h-174l-105 698l-360 -698h-181l484 925h176z" />
<glyph unicode="_" d="M873 -218h-1043v150h1043v-150z" />
<glyph unicode="`" d="M775 954h-162l-178 572h229z" />
<glyph unicode="a" d="M719 0h-170l22 128q-115 -147 -271 -147q-136 0 -209 82t-73 204q0 172 120.5 284t344.5 112h182l20 113q5 34 5 57q0 78 -44 122t-134 44q-139 0 -231 -139l-119 103q138 190 368 190q145 0 238 -82t93 -219q0 -30 -8 -86zM597 285l43 241h-171q-132 0 -203.5 -64.5 t-71.5 -181.5q0 -70 37.5 -107.5t99.5 -37.5q158 0 266 150z" />
<glyph unicode="b" d="M243 360q24 -225 192 -225q94 0 154 78q60 79 95 275q42 224 42 312q0 80 -22 121q-40 78 -136 78q-169 0 -255 -246zM855 469q-48 -272 -155 -380q-105 -108 -241 -108q-174 0 -255 155l-23 -136h-170l268 1526h170l-90 -512q94 139 268 139q135 0 219 -129 q54 -83 54 -222q0 -102 -45 -333z" />
<glyph unicode="c" d="M837 188q-148 -207 -390 -207q-176 0 -272 133q-66 91 -66 241q0 104 40 301q46 267 170 382q123 115 296 115q242 0 355 -209l-154 -87q-68 142 -208 142q-109 0 -181 -73q-72 -71 -110 -289q-42 -214 -42 -294q0 -94 34 -136q57 -72 165 -72q139 0 240 141z" />
<glyph unicode="d" d="M707 763q-49 236 -189 236q-97 0 -156 -78t-93 -277q-44 -232 -44 -315q0 -74 22 -116q41 -78 137 -78q169 0 255 245zM98 664q47 270 153 379q107 110 243 110q174 0 254 -158l93 531h170l-268 -1526h-170l20 117q-103 -136 -277 -136q-135 0 -215 127q-50 81 -50 216 q0 99 47 340z" />
<glyph unicode="e" d="M707 682q12 64 12 114q0 84 -33 130q-52 73 -143 73q-88 0 -158 -73q-69 -71 -100 -244h422zM851 532h-592q-24 -122 -24 -186q0 -94 35 -139q57 -72 166 -72q140 0 238 141l123 -88q-148 -207 -389 -207q-175 0 -272 133q-65 92 -65 242q0 93 39 298q48 270 169 384 q124 115 281 115q167 0 262 -124q63 -83 63 -229q0 -71 -15 -156z" />
<glyph unicode="f" d="M903 1306q-34 86 -142 86q-70 0 -113 -45.5t-64 -163.5l-20 -114h367v-145h-393l-162 -924h-171l162 924h-178v145h204l21 123q34 193 129 274t225 81q200 0 282 -138z" />
<glyph unicode="g" d="M707 766q-21 233 -189 233q-97 0 -156 -78q-30 -39 -52.5 -108t-40.5 -169q-43 -232 -43 -310q0 -80 22 -121q42 -78 137 -78q169 0 256 253zM942 1132l-188 -1064q-39 -213 -167 -320q-129 -110 -297 -110q-201 0 -330 159l137 110q71 -115 200 -115q109 0 185 68 q77 67 105 227l7 33q-95 -139 -267 -139q-136 0 -220 128q-54 83 -54 222q0 97 45 333q49 273 153 380q107 109 243 109q174 0 254 -157l24 136h170z" />
<glyph unicode="h" d="M744 0h-170l128 732q5 31 8 57.5t3 48.5q0 69 -24 103q-41 58 -121 58q-169 0 -257 -252l-131 -747h-170l268 1526h170l-90 -510q114 137 269 137q126 0 205 -103q52 -69 52 -190q0 -31 -3.5 -65.5t-10.5 -71.5z" />
<glyph unicode="i" d="M629 896l-132 -751h267v-145h-714v145h276l148 842h-182v145h360q0 -106 -23 -236zM753 1516q0 -54 -38 -92.5t-94 -38.5t-93 38.5t-37 92.5t37 92.5t93 38.5t94 -38.5t38 -92.5z" />
<glyph unicode="j" d="M738 896l-146 -828q-38 -211 -152 -320.5t-284 -109.5q-190 0 -318 159l135 110q71 -115 190 -115q100 0 166.5 67.5t94.5 227.5l159 900h-182v145h360q0 -106 -23 -236zM862 1516q0 -54 -38 -92.5t-93 -38.5q-57 0 -94 38.5t-37 92.5t37 92.5t94 38.5q55 0 93 -38.5 t38 -92.5z" />
<glyph unicode="k" d="M802 0h-170q0 205 -83 354l-94 167l-176 -146l-66 -375h-170l269 1526h170l-164 -933l250 208q223 184 233 331h170q-13 -193 -302 -433l-96 -80l109 -195q120 -212 120 -424z" />
<glyph unicode="l" d="M690 1291l-202 -1146h258v-145h-715v145h286l218 1236h-182v145h360q0 -106 -23 -235z" />
<glyph unicode="m" d="M791 0h-139l151 855q6 33 6 59q0 86 -74 86q-69 0 -136 -132l-153 -868h-138l151 855q6 36 6 63q0 82 -62 82q-74 0 -147 -132l-153 -868h-139l197 1132h141l-16 -92q76 113 185 113q105 0 144 -113q74 113 181 113q155 0 155 -190q0 -52 -12 -120z" />
<glyph unicode="n" d="M744 0h-170l129 734q5 28 7.5 52t2.5 47q0 69 -25 105q-41 58 -121 58q-168 0 -256 -249l-131 -747h-170l199 1132h170l-23 -125q116 146 271 146q126 0 205 -103q52 -70 52 -191q0 -63 -13 -135z" />
<glyph unicode="o" d="M543 999q-92 0 -160 -77q-69 -78 -104 -278q-41 -212 -41 -301q0 -87 29 -131q50 -77 143 -77q91 0 160 78q69 77 103 277q42 212 42 301q0 87 -29 132q-50 76 -143 76zM392 -19q-168 0 -261 134q-61 91 -61 236q0 94 43 313q23 130 63 223t99 151q118 115 285 115 q168 0 261 -134q62 -91 62 -236q0 -94 -44 -313q-23 -130 -63 -223t-99 -151q-118 -115 -285 -115z" />
<glyph unicode="p" d="M245 369q21 -234 190 -234q86 0 149 78q64 77 99 274q42 222 42 304q0 84 -26 130q-46 78 -131 78q-168 0 -256 -252zM855 468q-47 -268 -159 -378q-113 -109 -237 -109q-174 0 -254 158l-87 -492h-170l262 1485h170l-21 -115q94 136 268 136q126 0 214 -128 q58 -84 58 -229q0 -97 -44 -328z" />
<glyph unicode="q" d="M707 766q-50 233 -189 233q-97 0 -156 -78q-59 -76 -93 -277q-44 -222 -44 -311q0 -77 22 -120q42 -78 137 -78q170 0 256 253zM942 1132l-262 -1485h-170l83 473q-95 -139 -267 -139q-136 0 -220 128q-54 83 -54 222q0 107 46 333q47 271 153 380q107 109 243 109 q174 0 254 -157l24 136h170z" />
<glyph unicode="r" d="M980 941l-159 -66q-37 124 -156 124q-240 0 -327 -494l-89 -505h-170l199 1132h170l-28 -162q113 183 289 183q204 0 271 -212z" />
<glyph unicode="s" d="M412 131q118 0 179 62.5t61 140.5q0 85 -96 134l-172 86q-185 93 -185 242t106.5 253t289.5 104q227 0 331 -209l-154 -84q-48 142 -194 142q-96 0 -151.5 -54t-55.5 -125q0 -80 89 -125l172 -87q190 -95 190 -261q0 -156 -114.5 -262.5t-313.5 -106.5q-249 0 -370 231 l156 85q61 -166 232 -166z" />
<glyph unicode="t" d="M838 158q-130 -177 -329 -177q-131 0 -213 99q-60 74 -60 184q0 42 8 91l112 632h-178v145h204l69 394h170l-69 -394h369v-145h-395l-116 -663q-5 -27 -5 -52q0 -67 35 -102t96 -35q119 0 191 117z" />
<glyph unicode="u" d="M744 0h-170l22 128q-116 -147 -270 -147q-127 0 -205 104q-50 68 -50 193q0 73 15 159l123 695h170l-126 -715q-12 -72 -12 -120q0 -71 23 -104q38 -58 120 -58q169 0 255 241l134 756h170z" />
<glyph unicode="v" d="M474 0h-195q-97 520 -97 967q0 42 1 83.5t2 81.5h170q-2 -67 -3 -130t-1 -126q0 -194 12.5 -365t38.5 -322l227 424q186 348 186 519h170q0 -199 -196 -557z" />
<glyph unicode="w" d="M582 113l82 228q155 436 172 791h170q-7 -164 -63 -370t-162 -459l-126 -303h-160l-28 491l-208 -491h-160q-9 213 -9 394q0 482 62 738h170q-59 -334 -88.5 -588.5t-29.5 -430.5l237 563h109z" />
<glyph unicode="x" d="M271 246q-135 -146 -135 -246h-170q0 144 191 351l227 239l-88 145q-105 174 -105 397h170q0 -211 66 -323l64 -106l174 187q125 132 125 242h170q0 -152 -186 -351l-201 -215l105 -174q119 -199 119 -392h-170q0 181 -74 308l-87 145z" />
<glyph unicode="y" d="M248 70l79 133l-136 529q-35 137 -35 313v87h165v-81q0 -117 32 -270l92 -386l254 421q116 193 116 316h175q0 -141 -149 -387l-466 -771q-128 -213 -128 -327h-165q0 147 166 423z" />
<glyph unicode="z" d="M621 828q102 96 113 159h-504v145h677v-87q0 -165 -168 -329l-372 -370q-126 -124 -139 -201h545v-145h-718v87q0 177 196 372z" />
<glyph unicode="{" d="M725 -129h-104q-186 0 -274 107q-67 79 -67 193q0 19 2 38.5t6 40.5l43 242q4 25 4 38q0 69 -45 108t-127 39h-27v173h30q99 0 176 70q76 68 97 181l41 242q24 136 128 225q102 88 240 88h165v-150h-152q-96 0 -147 -48t-67 -134l-42 -247q-23 -121 -92 -205 q-71 -85 -170 -109q79 -26 118.5 -85.5t39.5 -147.5q0 -32 -7 -79l-38 -211q-8 -45 -8 -76q0 -65 30 -96q46 -49 169 -49h78v-148z" />
<glyph unicode="|" d="M397 -362h-171l396 2246h171z" />
<glyph unicode="}" d="M886 677h-29q-102 0 -178 -69q-75 -68 -96 -184l-43 -241q-24 -138 -128 -225q-102 -87 -240 -87h-166v148h153q96 0 147.5 48t68.5 144l42 240q21 119 88.5 199.5t172.5 112.5q-91 25 -130 109q-27 59 -27 127q0 34 7 78l41 238q5 30 5 48q0 72 -44.5 107.5t-127.5 35.5 h-108v150h124q165 0 254 -108q67 -81 67 -195q0 -32 -7 -78l-41 -241q-4 -24 -4 -38q0 -68 45 -107t127 -39h27v-173z" />
<glyph unicode="~" d="M980 826q-71 -434 -328 -434q-107 0 -176 86l-109 137q-44 54 -85 54q-111 0 -160 -279h-145q71 434 328 434q107 0 175 -86l110 -137q43 -54 85 -54q112 0 160 279h145z" />
<glyph unicode="&#xa0;" />
<glyph unicode="&#xa1;" d="M401 -342h-171l70 400l142 635h141zM696 1073q0 -54 -38.5 -92t-92.5 -38t-92.5 38t-38.5 92t38.5 93t92.5 39t92.5 -39t38.5 -93z" />
<glyph unicode="&#xa2;" d="M837 188q-131 -178 -315 -202l-34 -190h-171l34 195q-242 74 -242 364q0 71 16 161l24 140q75 454 406 493l35 196h171l-36 -204q154 -35 245 -197l-154 -87q-68 142 -208 142q-109 0 -181 -73q-72 -71 -110 -289l-25 -140q-8 -46 -12 -84t-4 -70q0 -96 33 -136 q57 -72 165 -72q139 0 240 141z" />
<glyph unicode="&#xa3;" d="M823 0h-869v152q231 7 272 382l20 189h-165v151h183l23 215q26 246 142 353q114 106 267 106q222 0 337 -209l-146 -90q-58 137 -209 137q-82 0 -141 -62q-58 -60 -77 -228l-25 -222h277v-151h-295l-24 -217q-33 -295 -195 -354h625v-152z" />
<glyph unicode="&#xa4;" d="M519 870q-92 0 -152.5 -69t-62.5 -159q0 -81 48.5 -122.5t116.5 -41.5q93 0 153.5 69t62.5 159q0 81 -48.5 122.5t-117.5 41.5v0zM452 324q-98 0 -181 49l-218 -187l-105 132l215 185q-22 62 -22 125q0 135 86 237l-143 175l129 112l144 -177q83 50 180 50q99 0 181 -49 l218 186l105 -131l-215 -186q22 -62 22 -124q0 -136 -86 -237l143 -176l-129 -112l-144 178q-82 -50 -180 -50z" />
<glyph unicode="&#xa5;" d="M462 0h-170l47 271h-276v150h302l32 183h-275v149h253l-62 205q-104 344 -104 568h170q0 -248 84 -527l51 -169l209 305q160 233 160 391h170q0 -184 -205 -483l-201 -290h222v-149h-302l-32 -183h275v-150h-301z" />
<glyph unicode="&#xa6;" d="M635 985h-171l158 899h171zM397 -362h-171l158 897h171z" />
<glyph unicode="&#xa7;" d="M620 275q86 97 86 197q0 86 -79 172l-213 232q-70 -89 -70 -203q0 -90 58 -153zM106 -64q66 -144 221 -144q105 0 170.5 61.5t65.5 144.5q0 69 -61 138l-226 254q-104 119 -104 261q0 88 33 179.5t124 168.5q-26 69 -26 148q0 170 104.5 285.5t297.5 115.5 q210 0 318 -190l-148 -89q-60 124 -186 124q-105 0 -160 -64.5t-55 -162.5q0 -89 58 -153l216 -234q130 -142 130 -286q0 -89 -41 -181.5t-134 -161.5q30 -61 30 -136q0 -144 -111 -260t-311 -116q-241 0 -347 203z" />
<glyph unicode="&#xa8;" d="M923 1416q0 -45 -32 -78.5t-80 -33.5q-47 0 -78.5 33.5t-31.5 78.5t31.5 77.5t78.5 32.5q48 0 80 -32.5t32 -77.5zM550 1416q0 -45 -32 -78.5t-79 -33.5q-48 0 -80 33.5t-32 78.5t32 77.5t80 32.5q47 0 79 -32.5t32 -77.5z" />
<glyph unicode="&#xa9;" d="M-7 262q132 -152 356 -152q163 0 278 102q114 102 150 303l88 497q4 29 6.5 55.5t2.5 51.5q0 123 -63 197q-87 102 -252 102q-225 0 -388 -152l28 161q144 121 377 121q225 0 352 -156q96 -116 96 -282q0 -28 -3 -57t-8 -60l-88 -497q-43 -246 -202 -380 q-161 -135 -385 -135q-232 0 -373 120zM522 895q4 28 4 49q0 52 -26 80q-35 39 -90 39q-57 0 -97 -39q-41 -39 -59 -144l-42 -241q-6 -34 -6 -62q0 -56 24 -81q36 -39 93 -39q55 0 95 38t55 125h152q-28 -156 -108.5 -225t-207.5 -69q-119 0 -195 92q-57 69 -57 169 q0 33 7 72l42 240q26 148 112 221q88 74 205 74q127 0 199 -89q56 -68 56 -156q0 -24 -5 -54h-151z" />
<glyph unicode="&#xaa;" d="M156 403h570v-145h-570v145zM691 1065h-80q-114 0 -163.5 -54t-49.5 -133q0 -105 103 -105q94 0 154 93zM779 651h-162l11 57q-63 -72 -172 -72q-107 0 -167 83q-43 60 -43 143q0 143 83 236.5t295 93.5h89l10 57q4 31 4 50q0 111 -113 111q-103 0 -164 -114l-110 85 q110 167 289 167q119 0 189.5 -64t70.5 -175q0 -33 -8 -80z" />
<glyph unicode="&#xab;" d="M831 120h-163l-239 462l402 461h182l-402 -471zM438 120h-164l-238 462l402 461h182l-403 -471z" />
<glyph unicode="&#xac;" d="M908 658l-54 -303h-170l69 390h-687v149h865q0 -107 -23 -236z" />
<glyph unicode="&#xad;" d="M753 534h-551v145h551v-145z" />
<glyph unicode="&#xae;" d="M-7 262q132 -152 356 -152q163 0 278 102q114 102 150 303l88 497q4 29 6.5 55.5t2.5 51.5q0 123 -63 197q-87 102 -252 102q-225 0 -388 -152l28 161q144 121 377 121q225 0 352 -156q96 -116 96 -282q0 -28 -3 -57t-8 -60l-88 -497q-43 -246 -202 -380 q-161 -135 -385 -135q-232 0 -373 120zM283 1042l-52 -296h124q89 0 129.5 55.5t40.5 124.5q0 58 -36.5 87t-101.5 29h-104zM155 1174h227q174 0 241 -89q51 -68 51 -156q0 -86 -40 -159.5t-146 -116.5l81 -307h-164l-62 279h-133l-50 -279h-151z" />
<glyph unicode="&#xaf;" d="M909 1397h-552v129h552v-129z" />
<glyph unicode="&#xb0;" d="M913 1227q0 -133 -94.5 -227.5t-227.5 -94.5t-227 94.5t-94 227.5t94 227t227 94t227.5 -94t94.5 -227zM753 1227q0 63 -44 111.5t-118 48.5q-72 0 -116 -48.5t-44 -111.5q0 -64 44 -113t116 -49q73 0 117.5 49.5t44.5 112.5z" />
<glyph unicode="&#xb1;" d="M968 897h-363l-62 -353h-151l63 353h-339v145h364l63 354h150l-63 -354h338v-145zM850 232h-851v145h851v-145z" />
<glyph unicode="&#xb2;" d="M747 650h-497q0 172 219 375l166 154q89 83 89 153q0 46 -28 67.5t-74 21.5q-99 0 -151 -109l-106 70q100 166 270 166q106 0 169 -62.5t63 -140.5q0 -126 -137 -253l-166 -154q-124 -116 -140 -162h345z" />
<glyph unicode="&#xb3;" d="M507 1057v126h74q70 0 105 38t35 107q0 45 -28 68.5t-71 23.5q-112 0 -168 -113l-95 73q112 168 277 168q95 0 161.5 -63.5t66.5 -153.5q0 -164 -149 -211q98 -58 98 -174q0 -144 -104 -238q-80 -69 -195 -69q-175 0 -259 172l120 75q40 -122 151 -122q62 0 104 54 t42 134q0 55 -37 80t-97 25h-31z" />
<glyph unicode="&#xb4;" d="M842 1526l-268 -236h-168l214 236h222z" />
<glyph unicode="&#xb5;" d="M749 0h-170l18 108q-112 -127 -247 -127q-110 0 -166 73l-72 -407h-170l262 1485h170l-133 -757q-8 -47 -8 -81q0 -66 26 -104q40 -58 121 -58q139 0 248 148l150 852h170z" />
<glyph unicode="&#xb6;" d="M488 0h-119l124 702q-173 0 -270 120q-76 96 -76 211q0 43 18 136q28 157 144 256q117 101 272 101h175zM736 0h-119l269 1526h119z" />
<glyph unicode="&#xb7;" d="M701 725q0 -78 -56.5 -137t-141.5 -59q-86 0 -140.5 59t-54.5 137t54.5 138t140.5 60q85 0 141.5 -60.5t56.5 -137.5z" />
<glyph unicode="&#xb8;" d="M160 -245h56q135 0 135 65q0 42 -70 42h-20l62 90q180 -15 180 -143q0 -73 -64 -122t-279 -49v117z" />
<glyph unicode="&#xb9;" d="M628 641h-144l126 713l-224 -157l-66 95l331 234h132z" />
<glyph unicode="&#xba;" d="M149 403h575v-145h-575v145zM612 1410q-56 0 -98.5 -41t-55.5 -117l-51 -292q-7 -39 -7 -65q0 -55 32 -88.5t88 -33.5t98.5 41t55.5 117l51 292q7 40 7 65q0 55 -32 88.5t-88 33.5zM505 636q-117 0 -186 76.5t-69 185.5q0 32 7 73l49 280q26 148 110.5 222.5t210.5 74.5 q117 0 186 -77t69 -186q0 -32 -7 -73l-49 -280q-26 -148 -110.5 -222t-210.5 -74z" />
<glyph unicode="&#xbb;" d="M923 582l-403 -462h-183l404 471l-221 452h163zM529 582l-402 -462h-183l404 471l-221 452h163z" />
<glyph unicode="&#xbc;" d="M911 704h-802v125h802v-125zM639 -101h-116l-35 -199h-144l35 199h-329v144l433 499h153l-92 -521h95v-122zM400 21l56 319l-283 -319h227zM651 966h-144l118 670l-200 -142l-68 96l311 218h132z" />
<glyph unicode="&#xbd;" d="M911 704h-802v125h802v-125zM651 966h-144l118 670l-200 -142l-68 96l311 218h132zM582 -290h-497q0 177 213 356l165 137q87 72 87 153q0 37 -27.5 58.5t-74.5 21.5q-99 0 -150 -109l-107 70q100 165 270 165q104 0 168 -57.5t64 -145.5q0 -132 -136 -244l-162 -136 q-122 -104 -136 -143h345z" />
<glyph unicode="&#xbe;" d="M911 704h-802v125h802v-125zM639 -101h-116l-35 -199h-144l35 199h-329v144l433 499h153l-92 -521h95v-122zM400 21l56 319l-283 -319h227zM549 1342v126h63q75 0 106.5 40t31.5 89q0 39 -28.5 64t-71.5 25q-102 0 -158 -113l-95 73q110 167 267 167q94 0 161 -63 t67 -150q0 -142 -146 -195q100 -53 100 -171q0 -125 -101 -215q-80 -69 -194 -69q-166 0 -252 172l121 75q41 -122 142 -122q69 0 106 53t37 117q0 47 -33.5 72t-101.5 25h-21z" />
<glyph unicode="&#xbf;" d="M596 694l-10 -56q-22 -123 -107 -225l-241 -280q-72 -85 -72 -175q0 -69 49 -113t132 -44q161 0 265 182l123 -93q-166 -252 -408 -252q-151 0 -242 93.5t-91 212.5q0 86 38.5 165.5t90.5 138.5l233 271q48 56 59 120l10 55h171zM429 1075q0 54 38 92t93 38q54 0 92 -38 t38 -92q0 -55 -38 -92.5t-92 -37.5q-55 0 -93 37.5t-38 92.5z" />
<glyph unicode="&#xc0;" d="M733 1647h-158l-227 236h212zM281 502h363q-1 169 -7.5 366t-19.5 427zM758 1439q23 -245 39 -526t16 -514q0 -222 -14 -399h-170q13 153 14 357h-421q-78 -213 -78 -357h-170q0 217 155 566l392 873h237z" />
<glyph unicode="&#xc1;" d="M1003 1883l-268 -236h-168l214 236h222zM281 502h363q-1 169 -7.5 366t-19.5 427zM758 1439q23 -245 39 -526t16 -514q0 -222 -14 -399h-170q13 153 14 357h-421q-78 -213 -78 -357h-170q0 217 155 566l392 873h237z" />
<glyph unicode="&#xc2;" d="M922 1627h-140l-108 137l-158 -137h-159l251 256h154zM281 502h363q-1 169 -7.5 366t-19.5 427zM758 1439q23 -245 39 -526t16 -514q0 -222 -14 -399h-170q13 153 14 357h-421q-78 -213 -78 -357h-170q0 217 155 566l392 873h237z" />
<glyph unicode="&#xc3;" d="M1010 1816q-77 -189 -229 -189q-68 0 -142.5 56.5t-111.5 56.5q-61 0 -141 -108l-84 71q102 181 235 181q58 0 130.5 -57.5t122.5 -57.5q62 0 121 106zM281 502h363q-1 169 -7.5 366t-19.5 427zM758 1439q23 -245 39 -526t16 -514q0 -222 -14 -399h-170q13 153 14 357 h-421q-78 -213 -78 -357h-170q0 217 155 566l392 873h237z" />
<glyph unicode="&#xc4;" d="M963 1773q0 -45 -32 -78.5t-80 -33.5q-47 0 -78.5 33.5t-31.5 78.5t31.5 77.5t78.5 32.5q48 0 80 -32.5t32 -77.5zM590 1773q0 -45 -32 -78.5t-79 -33.5q-48 0 -80 33.5t-32 78.5t32 77.5t80 32.5q47 0 79 -32.5t32 -77.5zM281 502h363q-1 169 -7.5 366t-19.5 427z M758 1439q23 -245 39 -526t16 -514q0 -222 -14 -399h-170q13 153 14 357h-421q-78 -213 -78 -357h-170q0 217 155 566l392 873h237z" />
<glyph unicode="&#xc5;" d="M281 502h363q-1 169 -7.5 366t-19.5 427zM762 1401q19 -207 35 -488t16 -514q0 -222 -14 -399h-170q13 153 14 357h-421q-78 -213 -78 -357h-170q0 217 155 566l373 835h260zM899 1710q0 -73 -50 -123.5t-163 -50.5t-163.5 50.5t-50.5 123.5q0 72 50.5 123t163.5 51 t163 -51t50 -123zM780 1710q0 29 -21.5 46t-72.5 17q-52 0 -73 -17t-21 -46t21 -46.5t73 -17.5q51 0 72.5 17.5t21.5 46.5z" />
<glyph unicode="&#xc6;" d="M834 0h-503l93 528h-230l-93 -528h-170l97 550l489 976h559v-150h-332l-89 -502h267v-151h-294l-101 -571h307v-152zM451 680l103 586l-295 -586h192z" />
<glyph unicode="&#xc7;" d="M800 226q-167 -245 -411 -245q-145 0 -241 89.5t-96 266.5q0 118 110 709q52 290 175 396t287 106q257 0 356 -248l-155 -84q-54 177 -217 177q-97 0 -167 -68.5t-110 -297.5q-110 -578 -110 -688q0 -107 51 -155.5t133 -48.5q163 0 272 185zM149 -245h56q135 0 135 65 q0 42 -70 42h-20l62 90q180 -15 180 -143q0 -73 -64 -122t-279 -49v117z" />
<glyph unicode="&#xc8;" d="M728 1647h-158l-227 236h212zM96 236l211 1203h690v-145h-545l-80 -456h381v-144h-406l-98 -549h520v-145h-697q0 106 24 236z" />
<glyph unicode="&#xc9;" d="M1008 1883l-268 -236h-168l214 236h222zM96 236l211 1203h690v-145h-545l-80 -456h381v-144h-406l-98 -549h520v-145h-697q0 106 24 236z" />
<glyph unicode="&#xca;" d="M922 1627h-140l-108 137l-158 -137h-159l251 256h154zM96 236l211 1203h690v-145h-545l-80 -456h381v-144h-406l-98 -549h520v-145h-697q0 106 24 236z" />
<glyph unicode="&#xcb;" d="M963 1773q0 -45 -32 -78.5t-80 -33.5q-47 0 -78.5 33.5t-31.5 78.5t31.5 77.5t78.5 32.5q48 0 80 -32.5t32 -77.5zM590 1773q0 -45 -32 -78.5t-79 -33.5q-48 0 -80 33.5t-32 78.5t32 77.5t80 32.5q47 0 79 -32.5t32 -77.5zM96 236l211 1203h690v-145h-545l-80 -456h381 v-144h-406l-98 -549h520v-145h-697q0 106 24 236z" />
<glyph unicode="&#xcc;" d="M704 1647h-158l-227 236h212zM724 0h-653v145h245l203 1149h-188v145h550v-145h-191l-203 -1149h237v-145z" />
<glyph unicode="&#xcd;" d="M1023 1883l-268 -236h-168l214 236h222zM724 0h-653v145h245l203 1149h-188v145h550v-145h-191l-203 -1149h237v-145z" />
<glyph unicode="&#xce;" d="M922 1627h-140l-108 137l-158 -137h-159l251 256h154zM724 0h-653v145h245l203 1149h-188v145h550v-145h-191l-203 -1149h237v-145z" />
<glyph unicode="&#xcf;" d="M962 1773q0 -45 -32 -78.5t-80 -33.5q-47 0 -78.5 33.5t-31.5 78.5t31.5 77.5t78.5 32.5q48 0 80 -32.5t32 -77.5zM589 1773q0 -45 -32 -78.5t-79 -33.5q-48 0 -80 33.5t-32 78.5t32 77.5t80 32.5q47 0 79 -32.5t32 -77.5zM724 0h-653v145h245l203 1149h-188v145h550 v-145h-191l-203 -1149h237v-145z" />
<glyph unicode="&#xd0;" d="M532 745h-193l-104 -593h65q152 0 258 117.5t148 356.5l52 295q8 43 12 80.5t4 71.5q0 125 -50 194q-75 109 -227 109h-46l-89 -502h170v-129zM170 745h-99v129h122l115 652h204q234 0 352 -164q83 -115 83 -293q0 -39 -4.5 -80.5t-12.5 -87.5l-52 -294 q-52 -298 -208 -453q-155 -154 -388 -154h-224q0 106 23 236z" />
<glyph unicode="&#xd1;" d="M1028 1816q-77 -189 -229 -189q-68 0 -142.5 56.5t-111.5 56.5q-61 0 -141 -108l-84 71q102 181 235 181q58 0 130.5 -57.5t122.5 -57.5q62 0 121 106zM744 0h-157l56 401l-286 821q-43 -463 -99 -780l-78 -442h-170l253 1439h170l287 -827q43 463 98 780l9 47h170z" />
<glyph unicode="&#xd2;" d="M723 1647h-158l-227 236h212zM254 463q-8 -40 -10.5 -74t-2.5 -63q0 -81 26 -121q46 -70 142 -70q94 0 157 70q62 70 96 258l91 514q13 79 13 133q0 81 -28 124q-47 70 -142 70q-96 0 -157 -69q-60 -69 -94 -258zM178 996q45 252 156 356q115 107 280 107q167 0 258 -126 q62 -85 62 -226q0 -69 -14 -150l-91 -514q-44 -251 -158 -356q-57 -52 -125.5 -79t-152.5 -27q-167 0 -259 125q-63 86 -63 228q0 67 15 148z" />
<glyph unicode="&#xd3;" d="M1023 1883l-268 -236h-168l214 236h222zM254 463q-8 -40 -10.5 -74t-2.5 -63q0 -81 26 -121q46 -70 142 -70q94 0 157 70q62 70 96 258l91 514q13 79 13 133q0 81 -28 124q-47 70 -142 70q-96 0 -157 -69q-60 -69 -94 -258zM178 996q45 252 156 356q115 107 280 107 q167 0 258 -126q62 -85 62 -226q0 -69 -14 -150l-91 -514q-44 -251 -158 -356q-57 -52 -125.5 -79t-152.5 -27q-167 0 -259 125q-63 86 -63 228q0 67 15 148z" />
<glyph unicode="&#xd4;" d="M921 1627h-140l-108 137l-158 -137h-159l251 256h154zM254 463q-8 -40 -10.5 -74t-2.5 -63q0 -81 26 -121q46 -70 142 -70q94 0 157 70q62 70 96 258l91 514q13 79 13 133q0 81 -28 124q-47 70 -142 70q-96 0 -157 -69q-60 -69 -94 -258zM178 996q45 252 156 356 q115 107 280 107q167 0 258 -126q62 -85 62 -226q0 -69 -14 -150l-91 -514q-44 -251 -158 -356q-57 -52 -125.5 -79t-152.5 -27q-167 0 -259 125q-63 86 -63 228q0 67 15 148z" />
<glyph unicode="&#xd5;" d="M1020 1816q-77 -189 -229 -189q-68 0 -142.5 56.5t-111.5 56.5q-61 0 -141 -108l-84 71q102 181 235 181q58 0 130.5 -57.5t122.5 -57.5q62 0 121 106zM254 463q-8 -40 -10.5 -74t-2.5 -63q0 -81 26 -121q46 -70 142 -70q94 0 157 70q62 70 96 258l91 514q13 79 13 133 q0 81 -28 124q-47 70 -142 70q-96 0 -157 -69q-60 -69 -94 -258zM178 996q45 252 156 356q115 107 280 107q167 0 258 -126q62 -85 62 -226q0 -69 -14 -150l-91 -514q-44 -251 -158 -356q-57 -52 -125.5 -79t-152.5 -27q-167 0 -259 125q-63 86 -63 228q0 67 15 148z" />
<glyph unicode="&#xd6;" d="M1001 1773q0 -45 -32 -78.5t-80 -33.5q-47 0 -78.5 33.5t-31.5 78.5t31.5 77.5t78.5 32.5q48 0 80 -32.5t32 -77.5zM628 1773q0 -45 -32 -78.5t-79 -33.5q-48 0 -80 33.5t-32 78.5t32 77.5t80 32.5q47 0 79 -32.5t32 -77.5zM254 463q-8 -40 -10.5 -74t-2.5 -63 q0 -81 26 -121q46 -70 142 -70q94 0 157 70q62 70 96 258l91 514q13 79 13 133q0 81 -28 124q-47 70 -142 70q-96 0 -157 -69q-60 -69 -94 -258zM178 996q45 252 156 356q115 107 280 107q167 0 258 -126q62 -85 62 -226q0 -69 -14 -150l-91 -514q-44 -251 -158 -356 q-57 -52 -125.5 -79t-152.5 -27q-167 0 -259 125q-63 86 -63 228q0 67 15 148z" />
<glyph unicode="&#xd7;" d="M15 313l361 305l-242 284l110 93l242 -283l361 305l97 -115l-360 -304l238 -284l-110 -93l-239 283l-361 -306z" />
<glyph unicode="&#xd8;" d="M611 1393q-95 0 -157 -70q-60 -68 -94 -258l-106 -602q-8 -40 -10.5 -74t-2.5 -63q0 -56 11 -87l440 1138q-36 16 -81 16zM768 1065q13 80 13 134q-1 65 -13 93l-440 -1141q41 -16 81 -16q94 0 157 70q62 70 96 258zM910 1659l-71 -184q111 -94 111 -279q0 -69 -6.5 -106 t-16.5 -92l-98 -555q-44 -251 -158 -356q-115 -106 -279 -106q-66 0 -121 20l-67 -175l-97 38l75 190q-111 94 -111 280q0 67 15 148l107 603q46 252 157 356q115 107 280 107q65 0 120 -20l64 167z" />
<glyph unicode="&#xd9;" d="M715 1647h-158l-227 236h212zM821 439q-43 -246 -160 -353q-114 -105 -269 -105q-154 0 -248 124q-64 85 -64 227q0 33 3 69.5t11 75.5l169 962h170l-173 -981q-7 -38 -10.5 -70.5t-3.5 -60.5q0 -84 30 -125q50 -67 133 -67t146 67q64 66 98 256l173 981h171z" />
<glyph unicode="&#xda;" d="M1024 1883l-268 -236h-168l214 236h222zM821 439q-43 -246 -160 -353q-114 -105 -269 -105q-154 0 -248 124q-64 85 -64 227q0 33 3 69.5t11 75.5l169 962h170l-173 -981q-7 -38 -10.5 -70.5t-3.5 -60.5q0 -84 30 -125q50 -67 133 -67t146 67q64 66 98 256l173 981h171z " />
<glyph unicode="&#xdb;" d="M922 1627h-140l-108 137l-158 -137h-159l251 256h154zM821 439q-43 -246 -160 -353q-114 -105 -269 -105q-154 0 -248 124q-64 85 -64 227q0 33 3 69.5t11 75.5l169 962h170l-173 -981q-7 -38 -10.5 -70.5t-3.5 -60.5q0 -84 30 -125q50 -67 133 -67t146 67q64 66 98 256 l173 981h171z" />
<glyph unicode="&#xdc;" d="M1001 1773q0 -45 -32 -78.5t-80 -33.5q-47 0 -78.5 33.5t-31.5 78.5t31.5 77.5t78.5 32.5q48 0 80 -32.5t32 -77.5zM628 1773q0 -45 -32 -78.5t-79 -33.5q-48 0 -80 33.5t-32 78.5t32 77.5t80 32.5q47 0 79 -32.5t32 -77.5zM821 439q-43 -246 -160 -353 q-114 -105 -269 -105q-154 0 -248 124q-64 85 -64 227q0 33 3 69.5t11 75.5l169 962h170l-173 -981q-7 -38 -10.5 -70.5t-3.5 -60.5q0 -84 30 -125q50 -67 133 -67t146 67q64 66 98 256l173 981h171z" />
<glyph unicode="&#xdd;" d="M994 1883l-268 -236h-168l214 236h222zM462 0h-170l98 563l-92 308q-105 344 -105 568h170q0 -248 84 -527l51 -169l209 305q160 233 160 391h170q0 -184 -204 -483l-273 -393z" />
<glyph unicode="&#xde;" d="M355 1022l-92 -522h181q113 0 178.5 59.5t82.5 164.5q18 93 18 122q0 83 -53.5 129.5t-152.5 46.5h-162zM382 1174h153q183 0 280 -121q75 -92 75 -214q0 -36 -14 -113q-32 -176 -149 -277q-117 -100 -299 -100h-192l-61 -349h-170l268 1526h170z" />
<glyph unicode="&#xdf;" d="M322 -5v152h98q139 0 197.5 63.5t58.5 146.5q0 100 -109 222.5t-109 224.5q0 111 79 177t81 69q127 106 127 192q0 69 -45 106t-110 37q-83 0 -136.5 -54.5t-74.5 -178.5l-203 -1152h-171l206 1169q30 175 138 275q108 102 262 102q133 0 219.5 -86.5t86.5 -213.5 q0 -125 -131 -246l-70 -66q-70 -65 -70 -127q0 -79 100.5 -191t100.5 -241q0 -161 -107 -270.5t-335 -109.5h-83z" />
<glyph unicode="&#xe0;" d="M737 0h-170l22 128q-115 -147 -271 -147q-136 0 -209 82t-73 204q0 172 120.5 284t344.5 112h182l20 113q5 34 5 57q0 78 -44 122t-134 44q-139 0 -231 -139l-119 103q138 190 368 190q145 0 238 -82t93 -219q0 -30 -8 -86zM615 285l43 241h-171q-132 0 -203.5 -64.5 t-71.5 -181.5q0 -70 37.5 -107.5t99.5 -37.5q158 0 266 150zM681 1290h-158l-227 236h212z" />
<glyph unicode="&#xe1;" d="M737 0h-170l22 128q-115 -147 -271 -147q-136 0 -209 82t-73 204q0 172 120.5 284t344.5 112h182l20 113q5 34 5 57q0 78 -44 122t-134 44q-139 0 -231 -139l-119 103q138 190 368 190q145 0 238 -82t93 -219q0 -30 -8 -86zM615 285l43 241h-171q-132 0 -203.5 -64.5 t-71.5 -181.5q0 -70 37.5 -107.5t99.5 -37.5q158 0 266 150zM970 1526l-268 -236h-168l214 236h222z" />
<glyph unicode="&#xe2;" d="M735 0h-170l22 128q-115 -147 -271 -147q-136 0 -209 82t-73 204q0 172 120.5 284t344.5 112h182l20 113q5 34 5 57q0 78 -44 122t-134 44q-139 0 -231 -139l-119 103q138 190 368 190q145 0 238 -82t93 -219q0 -30 -8 -86zM613 285l43 241h-171q-132 0 -203.5 -64.5 t-71.5 -181.5q0 -70 37.5 -107.5t99.5 -37.5q158 0 266 150zM877 1270h-140l-108 137l-158 -137h-159l251 256h154z" />
<glyph unicode="&#xe3;" d="M719 0h-170l22 128q-115 -147 -271 -147q-136 0 -209 82t-73 204q0 172 120.5 284t344.5 112h182l20 113q5 34 5 57q0 78 -44 122t-134 44q-139 0 -231 -139l-119 103q138 190 368 190q145 0 238 -82t93 -219q0 -30 -8 -86zM597 285l43 241h-171q-132 0 -203.5 -64.5 t-71.5 -181.5q0 -70 37.5 -107.5t99.5 -37.5q158 0 266 150zM980 1478q-77 -189 -229 -189q-68 0 -142.5 56.5t-111.5 56.5q-61 0 -141 -108l-84 71q102 181 235 181q58 0 130.5 -57.5t122.5 -57.5q62 0 121 106z" />
<glyph unicode="&#xe4;" d="M737 0h-170l22 128q-115 -147 -271 -147q-136 0 -209 82t-73 204q0 172 120.5 284t344.5 112h182l20 113q5 34 5 57q0 78 -44 122t-134 44q-139 0 -231 -139l-119 103q138 190 368 190q145 0 238 -82t93 -219q0 -30 -8 -86zM615 285l43 241h-171q-132 0 -203.5 -64.5 t-71.5 -181.5q0 -70 37.5 -107.5t99.5 -37.5q158 0 266 150zM924 1416q0 -45 -32 -78.5t-80 -33.5q-47 0 -78.5 33.5t-31.5 78.5t31.5 77.5t78.5 32.5q48 0 80 -32.5t32 -77.5zM551 1416q0 -45 -32 -78.5t-79 -33.5q-48 0 -80 33.5t-32 78.5t32 77.5t80 32.5q47 0 79 -32.5 t32 -77.5z" />
<glyph unicode="&#xe5;" d="M719 0h-170l22 128q-115 -147 -271 -147q-136 0 -209 82t-73 204q0 172 120.5 284t344.5 112h182l20 113q5 34 5 57q0 78 -44 122t-134 44q-139 0 -231 -139l-119 103q138 190 368 190q145 0 238 -82t93 -219q0 -30 -8 -86zM597 285l43 241h-171q-132 0 -203.5 -64.5 t-71.5 -181.5q0 -70 37.5 -107.5t99.5 -37.5q158 0 266 150zM899 1372q0 -73 -50 -123.5t-163 -50.5t-163.5 50.5t-50.5 123.5q0 72 50.5 123t163.5 51t163 -51t50 -123zM780 1372q0 29 -21.5 46t-72.5 17q-52 0 -73 -17t-21 -46t21 -46.5t73 -17.5q51 0 72.5 17.5 t21.5 46.5z" />
<glyph unicode="&#xe6;" d="M392 549h-62q-118 0 -167.5 -98t-49.5 -214q0 -131 95 -131q107 0 150 250zM806 666l18 104q12 68 12 119q0 138 -91 138q-107 0 -153 -257l-18 -104h232zM947 549h-393l-32 -187q-11 -64 -11 -110q0 -146 105 -146q81 0 147 128l104 -66q-94 -187 -263 -187 q-139 0 -204 131q-73 -131 -229 -131q-115 0 -176 101q-41 69 -41 167q0 173 89 295t308 122h61l32 182q6 35 6 63q0 116 -104 116q-92 0 -145 -117l-116 55q94 188 273 188q146 0 203 -126q72 126 211 126q115 0 180 -102q40 -64 40 -174q0 -67 -15 -155z" />
<glyph unicode="&#xe7;" d="M789 188q-148 -207 -390 -207q-176 0 -272 133q-66 91 -66 241q0 104 40 301q46 267 170 382q123 115 296 115q242 0 355 -209l-154 -87q-68 142 -208 142q-109 0 -181 -73q-72 -71 -110 -289q-42 -214 -42 -294q0 -94 34 -136q57 -72 165 -72q139 0 240 141zM147 -245 h56q135 0 135 65q0 42 -70 42h-20l62 90q180 -15 180 -143q0 -73 -64 -122t-279 -49v117z" />
<glyph unicode="&#xe8;" d="M707 682q12 64 12 114q0 84 -33 130q-52 73 -143 73q-88 0 -158 -73q-69 -71 -100 -244h422zM851 532h-592q-24 -122 -24 -186q0 -94 35 -139q57 -72 166 -72q140 0 238 141l123 -88q-148 -207 -389 -207q-175 0 -272 133q-65 92 -65 242q0 93 39 298q48 270 169 384 q124 115 281 115q167 0 262 -124q63 -83 63 -229q0 -71 -15 -156zM664 1290h-158l-227 236h212z" />
<glyph unicode="&#xe9;" d="M707 682q12 64 12 114q0 84 -33 130q-52 73 -143 73q-88 0 -158 -73q-69 -71 -100 -244h422zM851 532h-592q-24 -122 -24 -186q0 -94 35 -139q57 -72 166 -72q140 0 238 141l123 -88q-148 -207 -389 -207q-175 0 -272 133q-65 92 -65 242q0 93 39 298q48 270 169 384 q124 115 281 115q167 0 262 -124q63 -83 63 -229q0 -71 -15 -156zM972 1526l-268 -236h-168l214 236h222z" />
<glyph unicode="&#xea;" d="M707 682q12 64 12 114q0 84 -33 130q-52 73 -143 73q-88 0 -158 -73q-69 -71 -100 -244h422zM851 532h-592q-24 -122 -24 -186q0 -94 35 -139q57 -72 166 -72q140 0 238 141l123 -88q-148 -207 -389 -207q-175 0 -272 133q-65 92 -65 242q0 93 39 298q48 270 169 384 q124 115 281 115q167 0 262 -124q63 -83 63 -229q0 -71 -15 -156zM883 1270h-140l-108 137l-158 -137h-159l251 256h154z" />
<glyph unicode="&#xeb;" d="M707 682q12 64 12 114q0 84 -33 130q-52 73 -143 73q-88 0 -158 -73q-69 -71 -100 -244h422zM851 532h-592q-24 -122 -24 -186q0 -94 35 -139q57 -72 166 -72q140 0 238 141l123 -88q-148 -207 -389 -207q-175 0 -272 133q-65 92 -65 242q0 93 39 298q48 270 169 384 q124 115 281 115q167 0 262 -124q63 -83 63 -229q0 -71 -15 -156zM924 1416q0 -45 -32 -78.5t-80 -33.5q-47 0 -78.5 33.5t-31.5 78.5t31.5 77.5t78.5 32.5q48 0 80 -32.5t32 -77.5zM551 1416q0 -45 -32 -78.5t-79 -33.5q-48 0 -80 33.5t-32 78.5t32 77.5t80 32.5 q47 0 79 -32.5t32 -77.5z" />
<glyph unicode="&#xec;" d="M629 896l-132 -751h267v-145h-714v145h276l148 842h-182v145h360q0 -106 -23 -236zM673 1290h-158l-227 236h212z" />
<glyph unicode="&#xed;" d="M964 1526l-268 -236h-168l214 236h222zM629 896l-132 -751h267v-145h-714v145h276l148 842h-182v145h360q0 -106 -23 -236z" />
<glyph unicode="&#xee;" d="M629 896l-132 -751h267v-145h-714v145h276l148 842h-182v145h360q0 -106 -23 -236zM864 1270h-140l-108 137l-158 -137h-159l251 256h154z" />
<glyph unicode="&#xef;" d="M629 896l-132 -751h267v-145h-714v145h276l148 842h-182v145h360q0 -106 -23 -236zM885 1416q0 -45 -32 -78.5t-80 -33.5q-47 0 -78.5 33.5t-31.5 78.5t31.5 77.5t78.5 32.5q48 0 80 -32.5t32 -77.5zM512 1416q0 -45 -32 -78.5t-79 -33.5q-48 0 -80 33.5t-32 78.5 t32 77.5t80 32.5q47 0 79 -32.5t32 -77.5z" />
<glyph unicode="&#xf0;" d="M661 688q-9 227 -178 227q-96 0 -154 -74q-29 -36 -53 -105.5t-41 -174.5q-30 -157 -30 -241q0 -77 22 -115q42 -73 145 -73q83 0 150 73q68 74 104 283zM1051 1388l-168 -55q18 -70 18 -158q0 -78 -15 -169l-95 -537q-48 -272 -165 -380t-271 -108q-184 0 -268 127 q-53 82 -53 222q0 100 29 251q46 266 153 376q108 110 243 110q171 0 242 -147l20 105q14 76 14 139q0 65 -16 116l-253 -83l-41 124l235 76q-51 71 -126 119l116 136q117 -85 183 -199l177 59z" />
<glyph unicode="&#xf1;" d="M744 0h-170l129 734q5 28 7.5 52t2.5 47q0 69 -25 105q-41 58 -121 58q-168 0 -256 -249l-131 -747h-170l199 1132h170l-23 -125q116 146 271 146q126 0 205 -103q52 -70 52 -191q0 -63 -13 -135zM980 1478q-77 -189 -229 -189q-68 0 -142.5 56.5t-111.5 56.5 q-61 0 -141 -108l-84 71q102 181 235 181q58 0 130.5 -57.5t122.5 -57.5q62 0 121 106z" />
<glyph unicode="&#xf2;" d="M543 999q-92 0 -160 -77q-69 -78 -104 -278q-41 -212 -41 -301q0 -87 29 -131q50 -77 143 -77q91 0 160 78q69 77 103 277q42 212 42 301q0 87 -29 132q-50 76 -143 76zM392 -19q-168 0 -261 134q-61 91 -61 236q0 94 43 313q23 130 63 223t99 151q118 115 285 115 q168 0 261 -134q62 -91 62 -236q0 -94 -44 -313q-23 -130 -63 -223t-99 -151q-118 -115 -285 -115zM674 1290h-158l-227 236h212z" />
<glyph unicode="&#xf3;" d="M543 999q-92 0 -160 -77q-69 -78 -104 -278q-41 -212 -41 -301q0 -87 29 -131q50 -77 143 -77q91 0 160 78q69 77 103 277q42 212 42 301q0 87 -29 132q-50 76 -143 76zM392 -19q-168 0 -261 134q-61 91 -61 236q0 94 43 313q23 130 63 223t99 151q118 115 285 115 q168 0 261 -134q62 -91 62 -236q0 -94 -44 -313q-23 -130 -63 -223t-99 -151q-118 -115 -285 -115zM982 1526l-268 -236h-168l214 236h222z" />
<glyph unicode="&#xf4;" d="M544 999q-92 0 -160 -77q-69 -78 -104 -278q-41 -212 -41 -301q0 -87 29 -131q50 -77 143 -77q91 0 160 78q69 77 103 277q42 212 42 301q0 87 -29 132q-50 76 -143 76zM393 -19q-168 0 -261 134q-61 91 -61 236q0 94 43 313q23 130 63 223t99 151q118 115 285 115 q168 0 261 -134q62 -91 62 -236q0 -94 -44 -313q-23 -130 -63 -223t-99 -151q-118 -115 -285 -115zM883 1270h-140l-108 137l-158 -137h-159l251 256h154z" />
<glyph unicode="&#xf5;" d="M543 999q-92 0 -160 -77q-69 -78 -104 -278q-41 -212 -41 -301q0 -87 29 -131q50 -77 143 -77q91 0 160 78q69 77 103 277q42 212 42 301q0 87 -29 132q-50 76 -143 76zM392 -19q-168 0 -261 134q-61 91 -61 236q0 94 43 313q23 130 63 223t99 151q118 115 285 115 q168 0 261 -134q62 -91 62 -236q0 -94 -44 -313q-23 -130 -63 -223t-99 -151q-118 -115 -285 -115zM981 1478q-77 -189 -229 -189q-68 0 -142.5 56.5t-111.5 56.5q-61 0 -141 -108l-84 71q102 181 235 181q58 0 130.5 -57.5t122.5 -57.5q62 0 121 106z" />
<glyph unicode="&#xf6;" d="M543 999q-92 0 -160 -77q-69 -78 -104 -278q-41 -212 -41 -301q0 -87 29 -131q50 -77 143 -77q91 0 160 78q69 77 103 277q42 212 42 301q0 87 -29 132q-50 76 -143 76zM392 -19q-168 0 -261 134q-61 91 -61 236q0 94 43 313q23 130 63 223t99 151q118 115 285 115 q168 0 261 -134q62 -91 62 -236q0 -94 -44 -313q-23 -130 -63 -223t-99 -151q-118 -115 -285 -115zM924 1416q0 -45 -32 -78.5t-80 -33.5q-47 0 -78.5 33.5t-31.5 78.5t31.5 77.5t78.5 32.5q48 0 80 -32.5t32 -77.5zM551 1416q0 -45 -32 -78.5t-79 -33.5q-48 0 -80 33.5 t-32 78.5t32 77.5t80 32.5q47 0 79 -32.5t32 -77.5z" />
<glyph unicode="&#xf7;" d="M904 534h-852v145h852v-145zM664 924q0 -55 -38 -93t-92 -38t-92 38t-38 93q0 54 38 91.5t92 37.5t92 -37.5t38 -91.5zM552 292q0 -55 -38 -93t-92 -38t-92 38t-38 93t38 92t92 37t92 -37.5t38 -91.5z" />
<glyph unicode="&#xf8;" d="M543 999q-92 0 -161 -77q-68 -78 -103 -278q-41 -212 -41 -301q0 -72 18 -112l363 752q-37 16 -76 16zM673 490q42 212 42 301q0 77 -21 116l-363 -754q38 -18 79 -18q92 0 160 78q69 77 103 277zM861 1253l-86 -179q108 -101 108 -291q0 -94 -44 -314q-23 -129 -63 -222 t-99 -151q-118 -115 -285 -115q-72 0 -132 25l-81 -168l-91 44l87 181q-105 98 -105 288q0 94 43 313q23 130 63 223t99 151q118 115 285 115q72 0 130 -24l81 167z" />
<glyph unicode="&#xf9;" d="M744 0h-170l22 128q-116 -147 -270 -147q-127 0 -205 104q-50 68 -50 193q0 73 15 159l123 695h170l-126 -715q-12 -72 -12 -120q0 -71 23 -104q38 -58 120 -58q169 0 255 241l134 756h170zM684 1290h-158l-227 236h212z" />
<glyph unicode="&#xfa;" d="M744 0h-170l22 128q-116 -147 -270 -147q-127 0 -205 104q-50 68 -50 193q0 73 15 159l123 695h170l-126 -715q-12 -72 -12 -120q0 -71 23 -104q38 -58 120 -58q169 0 255 241l134 756h170zM982 1526l-268 -236h-168l214 236h222z" />
<glyph unicode="&#xfb;" d="M744 0h-170l22 128q-116 -147 -270 -147q-127 0 -205 104q-50 68 -50 193q0 73 15 159l123 695h170l-126 -715q-12 -72 -12 -120q0 -71 23 -104q38 -58 120 -58q169 0 255 241l134 756h170zM883 1270h-140l-108 137l-158 -137h-159l251 256h154z" />
<glyph unicode="&#xfc;" d="M744 0h-170l22 128q-116 -147 -270 -147q-127 0 -205 104q-50 68 -50 193q0 73 15 159l123 695h170l-126 -715q-12 -72 -12 -120q0 -71 23 -104q38 -58 120 -58q169 0 255 241l134 756h170zM924 1416q0 -45 -32 -78.5t-80 -33.5q-47 0 -78.5 33.5t-31.5 78.5t31.5 77.5 t78.5 32.5q48 0 80 -32.5t32 -77.5zM551 1416q0 -45 -32 -78.5t-79 -33.5q-48 0 -80 33.5t-32 78.5t32 77.5t80 32.5q47 0 79 -32.5t32 -77.5z" />
<glyph unicode="&#xfd;" d="M995 1526l-268 -236h-168l214 236h222zM248 70l79 133l-136 529q-35 137 -35 313v87h165v-81q0 -117 32 -270l92 -386l254 421q116 193 116 316h175q0 -141 -149 -387l-466 -771q-128 -213 -128 -327h-165q0 147 166 423z" />
<glyph unicode="&#xfe;" d="M711 646q15 86 15 152q0 83 -26 126q-46 78 -132 78q-169 0 -254 -244l-71 -399q22 -226 192 -226q86 0 149 79q64 78 99 275zM855 468q-47 -268 -159 -378q-113 -109 -237 -109q-174 0 -252 168l-89 -502h-170l331 1879h170l-92 -518q96 145 270 145q126 0 214 -128 q58 -84 58 -228q0 -39 -4 -81t-12 -89z" />
<glyph unicode="&#xff;" d="M924 1416q0 -45 -32 -78.5t-80 -33.5q-47 0 -78.5 33.5t-31.5 78.5t31.5 77.5t78.5 32.5q48 0 80 -32.5t32 -77.5zM551 1416q0 -45 -32 -78.5t-79 -33.5q-48 0 -80 33.5t-32 78.5t32 77.5t80 32.5q47 0 79 -32.5t32 -77.5zM234 70l79 133l-136 529q-35 137 -35 313v87 h165v-81q0 -117 32 -270l92 -386l254 421q116 193 116 316h175q0 -141 -149 -387l-466 -771q-128 -213 -128 -327h-165q0 147 166 423z" />
<glyph unicode="&#x100;" d="M948 1677h-552v129h552v-129zM281 502h363q-1 169 -7.5 366t-19.5 427zM758 1439q23 -245 39 -526t16 -514q0 -222 -14 -399h-170q13 153 14 357h-421q-78 -213 -78 -357h-170q0 217 155 566l392 873h237z" />
<glyph unicode="&#x101;" d="M748 0h-170l22 128q-115 -147 -271 -147q-136 0 -209 82t-73 204q0 172 120.5 284t344.5 112h182l20 113q5 34 5 57q0 78 -44 122t-134 44q-139 0 -231 -139l-119 103q138 190 368 190q145 0 238 -82t93 -219q0 -30 -8 -86zM626 285l43 241h-171q-132 0 -203.5 -64.5 t-71.5 -181.5q0 -70 37.5 -107.5t99.5 -37.5q158 0 266 150zM909 1310h-552v129h552v-129z" />
<glyph unicode="&#x102;" d="M930 1707q-96 -142 -268 -142t-269 142v167h29q95 -170 240 -170q142 0 239 170h29v-167zM281 502h363q-1 169 -7.5 366t-19.5 427zM758 1439q23 -245 39 -526t16 -514q0 -222 -14 -399h-170q13 153 14 357h-421q-78 -213 -78 -357h-170q0 217 155 566l392 873h237z" />
<glyph unicode="&#x103;" d="M748 0h-170l22 128q-115 -147 -271 -147q-136 0 -209 82t-73 204q0 172 120.5 284t344.5 112h182l20 113q5 34 5 57q0 78 -44 122t-134 44q-139 0 -231 -139l-119 103q138 190 368 190q145 0 238 -82t93 -219q0 -30 -8 -86zM626 285l43 241h-171q-132 0 -203.5 -64.5 t-71.5 -181.5q0 -70 37.5 -107.5t99.5 -37.5q158 0 266 150zM901 1427q-96 -142 -268 -142t-269 142v167h29q95 -170 240 -170q142 0 239 170h29v-167z" />
<glyph unicode="&#x104;" d="M281 502h363q-1 169 -7.5 366t-19.5 427zM751 1526q30 -332 46 -613t16 -514q0 -222 -14 -399h-170q13 153 14 357h-421q-78 -213 -78 -357h-170q0 217 155 566l430 960h192zM757 -356h-22q-127 0 -197 58.5t-70 130.5q0 125 142 167h170q-154 -62 -154 -146 q0 -45 33.5 -66t97.5 -21v-123z" />
<glyph unicode="&#x105;" d="M748 0h-170l22 128q-115 -147 -271 -147q-136 0 -209 82t-73 204q0 172 120.5 284t344.5 112h182l20 113q5 34 5 57q0 78 -44 122t-134 44q-139 0 -231 -139l-119 103q138 190 368 190q145 0 238 -82t93 -219q0 -30 -8 -86zM626 285l43 241h-171q-132 0 -203.5 -64.5 t-71.5 -181.5q0 -70 37.5 -107.5t99.5 -37.5q158 0 266 150zM723 -356h-22q-127 0 -197 58.5t-70 130.5q0 125 142 167h170q-154 -62 -154 -146q0 -45 33.5 -66t97.5 -21v-123z" />
<glyph unicode="&#x106;" d="M1028 1883l-227 -236h-158l173 236h212zM851 226q-167 -245 -411 -245q-145 0 -241 89.5t-96 266.5q0 118 93 620q51 290 174.5 396t287.5 106q257 0 355 -248l-154 -84q-54 177 -218 177q-96 0 -166 -68.5t-111 -297.5q-92 -489 -92 -599q0 -107 51 -155.5t133 -48.5 q163 0 272 185z" />
<glyph unicode="&#x107;" d="M808 188q-148 -207 -390 -207q-176 0 -272 133q-66 91 -66 241q0 104 40 301q46 267 170 382q123 115 296 115q242 0 355 -209l-154 -87q-68 142 -208 142q-109 0 -181 -73q-72 -71 -110 -289q-42 -214 -42 -294q0 -94 34 -136q57 -72 165 -72q139 0 240 141zM974 1526 l-227 -236h-158l173 236h212z" />
<glyph unicode="&#x108;" d="M974 1627h-140l-108 137l-158 -137h-159l251 256h154zM851 226q-167 -245 -411 -245q-145 0 -241 89.5t-96 266.5q0 118 93 620q51 290 174.5 396t287.5 106q257 0 355 -248l-154 -84q-54 177 -218 177q-96 0 -166 -68.5t-111 -297.5q-92 -489 -92 -599q0 -107 51 -155.5 t133 -48.5q163 0 272 185z" />
<glyph unicode="&#x109;" d="M808 188q-148 -207 -390 -207q-176 0 -272 133q-66 91 -66 241q0 104 40 301q46 267 170 382q123 115 296 115q242 0 355 -209l-154 -87q-68 142 -208 142q-109 0 -181 -73q-72 -71 -110 -289q-42 -214 -42 -294q0 -94 34 -136q57 -72 165 -72q139 0 240 141zM906 1270 h-140l-108 137l-158 -137h-159l251 256h154z" />
<glyph unicode="&#x10a;" d="M859 1753q0 -54 -39 -92.5t-93 -38.5t-92 38.5t-38 92.5q0 55 38 92.5t92 37.5t93 -37.5t39 -92.5zM851 226q-167 -245 -411 -245q-145 0 -241 89.5t-96 266.5q0 118 93 620q51 290 174.5 396t287.5 106q257 0 355 -248l-154 -84q-54 177 -218 177q-96 0 -166 -68.5 t-111 -297.5q-92 -489 -92 -599q0 -107 51 -155.5t133 -48.5q163 0 272 185z" />
<glyph unicode="&#x10b;" d="M808 188q-148 -207 -390 -207q-176 0 -272 133q-66 91 -66 241q0 104 40 301q46 267 170 382q123 115 296 115q242 0 355 -209l-154 -87q-68 142 -208 142q-109 0 -181 -73q-72 -71 -110 -289q-42 -214 -42 -294q0 -94 34 -136q57 -72 165 -72q139 0 240 141zM792 1396 q0 -54 -39 -92.5t-93 -38.5t-92 38.5t-38 92.5q0 55 38 92.5t92 37.5t93 -37.5t39 -92.5z" />
<glyph unicode="&#x10c;" d="M789 1627h-153l-161 256h140l109 -137l157 137h159zM851 226q-167 -245 -411 -245q-145 0 -241 89.5t-96 266.5q0 118 93 620q51 290 174.5 396t287.5 106q257 0 355 -248l-154 -84q-54 177 -218 177q-96 0 -166 -68.5t-111 -297.5q-92 -489 -92 -599q0 -107 51 -155.5 t133 -48.5q163 0 272 185z" />
<glyph unicode="&#x10d;" d="M808 188q-148 -207 -390 -207q-176 0 -272 133q-66 91 -66 241q0 104 40 301q46 267 170 382q123 115 296 115q242 0 355 -209l-154 -87q-68 142 -208 142q-109 0 -181 -73q-72 -71 -110 -289q-42 -214 -42 -294q0 -94 34 -136q57 -72 165 -72q139 0 240 141zM724 1270 h-153l-161 256h140l109 -137l157 137h159z" />
<glyph unicode="&#x10e;" d="M670 1627h-153l-161 256h140l109 -137l157 137h159zM430 1294l-203 -1149h93q154 0 259 120.5t147 360.5q52 269 52 358q0 135 -66.5 222.5t-208.5 87.5h-73zM286 1439h233q218 0 325.5 -131.5t107.5 -324.5q0 -101 -54 -376q-26 -150 -78.5 -263t-128 -190t-173 -115.5 t-214.5 -38.5h-253q0 106 23 236z" />
<glyph unicode="&#x10f;" d="M1143 1526l-129 -352h-140l105 352h164zM853 1526l-269 -1526h-170l23 127q-107 -146 -222 -146q-125 0 -192 118q-39 69 -39 189q0 82 18 189l37 213q79 459 324 459q134 0 228 -147l92 524h170zM567 868q-79 128 -181 128q-89 0 -135 -120q-16 -45 -43 -195l-42 -234 q-17 -98 -17 -163q0 -59 14 -89q29 -64 100 -64q100 0 197 129z" />
<glyph unicode="&#x110;" d="M532 745h-193l-104 -593h65q152 0 258 117.5t148 356.5l52 295q8 43 12 80.5t4 71.5q0 125 -50 194q-75 109 -227 109h-46l-89 -502h170v-129zM170 745h-99v129h122l115 652h204q234 0 352 -164q83 -115 83 -293q0 -39 -4.5 -80.5t-12.5 -87.5l-52 -294 q-52 -298 -208 -453q-155 -154 -388 -154h-224q0 106 23 236z" />
<glyph unicode="&#x111;" d="M1068 1223h-133l-215 -1223h-170l22 127q-116 -146 -250 -146q-131 0 -217 118q-57 77 -57 214q0 73 17 164l22 126q81 459 367 459q154 0 256 -147l55 308h-232v143h257l28 160h170l-28 -160h108v-143zM684 762q-77 147 -197 147q-112 0 -167 -102q-33 -61 -58 -203 l-26 -147q-15 -82 -15 -142q0 -72 20 -110q38 -74 138 -74q129 0 221 158z" />
<glyph unicode="&#x112;" d="M947 1677h-552v129h552v-129zM96 236l211 1203h690v-145h-545l-80 -456h381v-144h-406l-98 -549h520v-145h-697q0 106 24 236z" />
<glyph unicode="&#x113;" d="M707 682q12 64 12 114q0 84 -33 130q-52 73 -143 73q-88 0 -158 -73q-69 -71 -100 -244h422zM851 532h-592q-24 -122 -24 -186q0 -94 35 -139q57 -72 166 -72q140 0 238 141l123 -88q-148 -207 -389 -207q-175 0 -272 133q-65 92 -65 242q0 93 39 298q48 270 169 384 q124 115 281 115q167 0 262 -124q63 -83 63 -229q0 -71 -15 -156zM910 1397h-552v129h552v-129z" />
<glyph unicode="&#x114;" d="M930 1707q-96 -142 -268 -142t-269 142v167h29q95 -170 240 -170q142 0 239 170h29v-167zM96 236l211 1203h690v-145h-545l-80 -456h381v-144h-406l-98 -549h520v-145h-697q0 106 24 236z" />
<glyph unicode="&#x115;" d="M707 682q12 64 12 114q0 84 -33 130q-52 73 -143 73q-88 0 -158 -73q-69 -71 -100 -244h422zM851 532h-592q-24 -122 -24 -186q0 -94 35 -139q57 -72 166 -72q140 0 238 141l123 -88q-148 -207 -389 -207q-175 0 -272 133q-65 92 -65 242q0 93 39 298q48 270 169 384 q124 115 281 115q167 0 262 -124q63 -83 63 -229q0 -71 -15 -156zM901 1427q-96 -142 -268 -142t-269 142v167h29q95 -170 240 -170q142 0 239 170h29v-167z" />
<glyph unicode="&#x116;" d="M792 1753q0 -54 -39 -92.5t-93 -38.5t-92 38.5t-38 92.5q0 55 38 92.5t92 37.5t93 -37.5t39 -92.5zM96 236l211 1203h690v-145h-545l-80 -456h381v-144h-406l-98 -549h520v-145h-697q0 106 24 236z" />
<glyph unicode="&#x117;" d="M707 682q12 64 12 114q0 84 -33 130q-52 73 -143 73q-88 0 -158 -73q-69 -71 -100 -244h422zM851 532h-592q-24 -122 -24 -186q0 -94 35 -139q57 -72 166 -72q140 0 238 141l123 -88q-148 -207 -389 -207q-175 0 -272 133q-65 92 -65 242q0 93 39 298q48 270 169 384 q124 115 281 115q167 0 262 -124q63 -83 63 -229q0 -71 -15 -156zM743 1396q0 -54 -39 -92.5t-93 -38.5t-92 38.5t-38 92.5q0 55 38 92.5t92 37.5t93 -37.5t39 -92.5z" />
<glyph unicode="&#x118;" d="M86 236l227 1290h689v-145h-544l-88 -494h380v-145h-405l-106 -597h520v-145h-697q0 106 24 236zM725 -356h-22q-127 0 -197 58.5t-70 130.5q0 125 142 167h170q-154 -62 -154 -146q0 -45 33.5 -66t97.5 -21v-123z" />
<glyph unicode="&#x119;" d="M707 682q12 64 12 114q0 84 -33 130q-52 73 -143 73q-88 0 -158 -73q-69 -71 -100 -244h422zM851 532h-592q-24 -122 -24 -186q0 -94 35 -139q57 -72 166 -72q140 0 238 141l123 -88q-148 -207 -389 -207q-175 0 -272 133q-65 92 -65 242q0 93 39 298q48 270 169 384 q124 115 281 115q167 0 262 -124q63 -83 63 -229q0 -71 -15 -156zM494 -356h-22q-127 0 -197 58.5t-70 130.5q0 125 142 167h170q-154 -62 -154 -146q0 -45 33.5 -66t97.5 -21v-123z" />
<glyph unicode="&#x11a;" d="M716 1627h-153l-161 256h140l109 -137l157 137h159zM96 236l211 1203h690v-145h-545l-80 -456h381v-144h-406l-98 -549h520v-145h-697q0 106 24 236z" />
<glyph unicode="&#x11b;" d="M707 682q12 64 12 114q0 84 -33 130q-52 73 -143 73q-88 0 -158 -73q-69 -71 -100 -244h422zM851 532h-592q-24 -122 -24 -186q0 -94 35 -139q57 -72 166 -72q140 0 238 141l123 -88q-148 -207 -389 -207q-175 0 -272 133q-65 92 -65 242q0 93 39 298q48 270 169 384 q124 115 281 115q167 0 262 -124q63 -83 63 -229q0 -71 -15 -156zM677 1270h-153l-161 256h140l109 -137l157 137h159z" />
<glyph unicode="&#x11c;" d="M908 1627h-140l-108 137l-158 -137h-159l251 256h154zM527 671v145h356q0 -107 -23 -235l-24 -138q-44 -250 -162 -356t-282 -106t-258 125q-64 87 -64 229q0 67 14 147l92 514q45 252 159 356q117 107 290 107q233 0 331 -248l-154 -84q-54 177 -193 177 q-105 0 -169 -69t-98 -258l-91 -514q-13 -79 -13 -135q0 -82 28 -123q47 -70 144 -70q94 0 160 70t99 258l37 208h-179z" />
<glyph unicode="&#x11d;" d="M679 766q-21 233 -189 233q-97 0 -156 -78q-30 -39 -52.5 -108t-40.5 -169q-43 -232 -43 -310q0 -80 22 -121q42 -78 137 -78q169 0 256 253zM914 1132l-188 -1064q-39 -213 -167 -320q-129 -110 -297 -110q-201 0 -330 159l137 110q71 -115 200 -115q109 0 185 68 q77 67 105 227l7 33q-95 -139 -267 -139q-136 0 -220 128q-54 83 -54 222q0 97 45 333q49 273 153 380q107 109 243 109q174 0 254 -157l24 136h170zM882 1270h-140l-108 137l-158 -137h-159l251 256h154z" />
<glyph unicode="&#x11e;" d="M930 1707q-96 -142 -268 -142t-269 142v167h29q95 -170 240 -170q142 0 239 170h29v-167zM527 671v145h356q0 -107 -23 -235l-24 -138q-44 -250 -162 -356t-282 -106t-258 125q-64 87 -64 229q0 67 14 147l92 514q45 252 159 356q117 107 290 107q233 0 331 -248 l-154 -84q-54 177 -193 177q-105 0 -169 -69t-98 -258l-91 -514q-13 -79 -13 -135q0 -82 28 -123q47 -70 144 -70q94 0 160 70t99 258l37 208h-179z" />
<glyph unicode="&#x11f;" d="M679 766q-21 233 -189 233q-97 0 -156 -78q-30 -39 -52.5 -108t-40.5 -169q-43 -232 -43 -310q0 -80 22 -121q42 -78 137 -78q169 0 256 253zM914 1132l-188 -1064q-39 -213 -167 -320q-129 -110 -297 -110q-201 0 -330 159l137 110q71 -115 200 -115q109 0 185 68 q77 67 105 227l7 33q-95 -139 -267 -139q-136 0 -220 128q-54 83 -54 222q0 97 45 333q49 273 153 380q107 109 243 109q174 0 254 -157l24 136h170zM901 1427q-96 -142 -268 -142t-269 142v167h29q95 -170 240 -170q142 0 239 170h29v-167z" />
<glyph unicode="&#x120;" d="M791 1753q0 -54 -39 -92.5t-93 -38.5t-92 38.5t-38 92.5q0 55 38 92.5t92 37.5t93 -37.5t39 -92.5zM527 671v145h356q0 -107 -23 -235l-24 -138q-44 -250 -162 -356t-282 -106t-258 125q-64 87 -64 229q0 67 14 147l92 514q45 252 159 356q117 107 290 107 q233 0 331 -248l-154 -84q-54 177 -193 177q-105 0 -169 -69t-98 -258l-91 -514q-13 -79 -13 -135q0 -82 28 -123q47 -70 144 -70q94 0 160 70t99 258l37 208h-179z" />
<glyph unicode="&#x121;" d="M679 766q-21 233 -189 233q-97 0 -156 -78q-30 -39 -52.5 -108t-40.5 -169q-43 -232 -43 -310q0 -80 22 -121q42 -78 137 -78q169 0 256 253zM914 1132l-188 -1064q-39 -213 -167 -320q-129 -110 -297 -110q-201 0 -330 159l137 110q71 -115 200 -115q109 0 185 68 q77 67 105 227l7 33q-95 -139 -267 -139q-136 0 -220 128q-54 83 -54 222q0 97 45 333q49 273 153 380q107 109 243 109q174 0 254 -157l24 136h170zM740 1396q0 -54 -39 -92.5t-93 -38.5t-92 38.5t-38 92.5q0 55 38 92.5t92 37.5t93 -37.5t39 -92.5z" />
<glyph unicode="&#x122;" d="M527 671v145h356q0 -107 -23 -235l-24 -138q-44 -250 -162 -356t-282 -106t-258 125q-64 87 -64 229q0 67 14 147l107 603q46 252 160 356q117 107 289 107q233 0 332 -248l-155 -84q-54 177 -193 177q-104 0 -169 -70q-64 -68 -98 -258l-106 -602q-13 -79 -13 -135 q0 -82 28 -123q47 -70 144 -70q94 0 160 70t99 258l37 208h-179zM438 -154q0 -79 -75 -199h-110q47 67 65 136q-32 1 -55 26t-23 59q0 33 23 58.5t72 25.5q45 0 74 -30.5t29 -75.5z" />
<glyph unicode="&#x123;" d="M679 766q-21 233 -189 233q-97 0 -156 -78q-30 -39 -52.5 -108t-40.5 -169q-43 -232 -43 -310q0 -80 22 -121q42 -78 137 -78q169 0 256 253zM914 1132l-188 -1064q-39 -213 -167 -320q-129 -110 -297 -110q-201 0 -330 159l137 110q71 -115 200 -115q109 0 185 68 q77 67 105 227l7 33q-95 -139 -267 -139q-136 0 -220 128q-54 83 -54 222q0 97 45 333q49 273 153 380q107 109 243 109q174 0 254 -157l24 136h170zM446 1270l311 256h187l-257 -256h-241z" />
<glyph unicode="&#x124;" d="M921 1627h-140l-108 137l-158 -137h-159l251 256h154zM744 0h-170l126 720h-394l-126 -720h-170l253 1439h170l-102 -574h394l102 574h170z" />
<glyph unicode="&#x125;" d="M749 0h-170l128 732q5 31 8 57.5t3 48.5q0 69 -24 103q-41 58 -121 58q-169 0 -257 -252l-131 -747h-170l268 1526h170l-90 -510q114 137 269 137q126 0 205 -103q52 -69 52 -190q0 -31 -3.5 -65.5t-10.5 -71.5zM901 1627h-140l-108 137l-158 -137h-159l251 256h154z" />
<glyph unicode="&#x126;" d="M744 0h-170l121 686h-395l-120 -686h-170l203 1154h-89v130h112l42 242h170l-42 -242h394l42 242h170l-42 -242h90v-130h-113zM721 837l56 317h-394l-56 -317h394z" />
<glyph unicode="&#x127;" d="M876 787q0 -60 -12 -132l-115 -655h-170l117 665q9 52 9 94q0 68 -25 108q-40 61 -120 61q-136 0 -219 -146l-137 -782h-170l218 1241h-124v130h147l27 155h170l-27 -155h234v-130h-257l-50 -288q102 128 247 128q127 0 205 -103q52 -70 52 -191z" />
<glyph unicode="&#x128;" d="M1019 1816q-77 -189 -229 -189q-68 0 -142.5 56.5t-111.5 56.5q-61 0 -141 -108l-84 71q102 181 235 181q58 0 130.5 -57.5t122.5 -57.5q62 0 121 106zM724 0h-653v145h245l203 1149h-188v145h550v-145h-191l-203 -1149h237v-145z" />
<glyph unicode="&#x129;" d="M629 896l-132 -751h267v-145h-714v145h276l148 842h-182v145h360q0 -106 -23 -236zM932 1478q-77 -189 -229 -189q-68 0 -142.5 56.5t-111.5 56.5q-61 0 -141 -108l-84 71q102 181 235 181q58 0 130.5 -57.5t122.5 -57.5q62 0 121 106z" />
<glyph unicode="&#x12a;" d="M949 1754h-552v129h552v-129zM724 0h-653v145h245l203 1149h-188v145h550v-145h-191l-203 -1149h237v-145z" />
<glyph unicode="&#x12b;" d="M629 896l-132 -751h267v-145h-714v145h276l148 842h-182v145h360q0 -106 -23 -236zM842 1397h-552v129h552v-129z" />
<glyph unicode="&#x12c;" d="M912 1707q-96 -142 -268 -142t-269 142v167h29q95 -170 240 -170q142 0 239 170h29v-167zM724 0h-653v145h245l203 1149h-188v145h550v-145h-191l-203 -1149h237v-145z" />
<glyph unicode="&#x12d;" d="M629 896l-132 -751h267v-145h-714v145h276l148 842h-182v145h360q0 -106 -23 -236zM854 1427q-96 -142 -268 -142t-269 142v167h29q95 -170 240 -170q142 0 239 170h29v-167z" />
<glyph unicode="&#x12e;" d="M724 0h-653v145h245l218 1236h-187v145h549v-145h-191l-218 -1236h237v-145zM439 -356h-22q-127 0 -197 58.5t-70 130.5q0 125 142 167h170q-154 -62 -154 -146q0 -45 33.5 -66t97.5 -21v-123z" />
<glyph unicode="&#x12f;" d="M619 896l-132 -751h267v-145h-714v145h276l148 842h-182v145h360q0 -106 -23 -236zM743 1516q0 -54 -38 -92.5t-94 -38.5t-93 38.5t-37 92.5t37 92.5t93 38.5t94 -38.5t38 -92.5zM439 -356h-22q-127 0 -197 58.5t-70 130.5q0 125 142 167h170q-154 -62 -154 -146 q0 -45 33.5 -66t97.5 -21v-123z" />
<glyph unicode="&#x130;" d="M792 1753q0 -54 -39 -92.5t-93 -38.5t-92 38.5t-38 92.5q0 55 38 92.5t92 37.5t93 -37.5t39 -92.5zM724 0h-653v145h245l203 1149h-188v145h550v-145h-191l-203 -1149h237v-145z" />
<glyph unicode="&#x131;" d="M629 896l-132 -751h267v-145h-714v145h276l148 842h-182v145h360q0 -106 -23 -236z" />
<glyph unicode="&#x132;" d="M448 1526l-139 -788h-170l139 788h170zM1012 1526l-191 -1087q-80 -458 -419 -458q-163 0 -258 124q-64 84 -64 226q0 67 14 146l16 97h170l-16 -97q-15 -88 -15 -149q0 -82 27 -121q50 -72 137 -72q183 0 240 323l188 1068h171z" />
<glyph unicode="&#x133;" d="M241 0h-171l199 1132h171zM510 -19l203 1151h171l-204 -1159q-31 -174 -125.5 -254.5t-225.5 -80.5q-184 0 -286 144l142 90q40 -84 142 -84q70 0 117.5 45t65.5 148zM556 1516q0 -54 -37.5 -93.5t-95.5 -39.5t-95 39.5t-37 93.5t37 93.5t95 39.5t95.5 -39.5t37.5 -93.5z M1001 1516q0 -54 -38 -93.5t-96 -39.5q-57 0 -94.5 39.5t-37.5 93.5t37.5 93.5t94.5 39.5q58 0 96 -39.5t38 -93.5z" />
<glyph unicode="&#x134;" d="M950 1627h-140l-108 137l-158 -137h-159l251 256h154zM785 440q-43 -247 -157 -354q-112 -105 -267 -105q-145 0 -241 124q-66 84 -66 228q0 34 3.5 70t10.5 75l35 204h170l-39 -224q-7 -37 -10 -68.5t-3 -59.5q0 -84 29 -125q49 -70 128 -70q88 0 148 70q59 70 91 253 l173 981h171z" />
<glyph unicode="&#x135;" d="M882 1270h-140l-108 137l-158 -137h-159l251 256h154zM738 896l-146 -828q-38 -211 -152 -320.5t-284 -109.5q-190 0 -318 159l135 110q71 -115 190 -115q100 0 166.5 67.5t94.5 227.5l159 900h-182v145h360q0 -106 -23 -236z" />
<glyph unicode="&#x136;" d="M536 1526l-128 -722l270 309q220 253 263 413h170q-56 -207 -340 -526l-132 -150l138 -313q122 -279 122 -537h-169q0 269 -118 537l-83 189l-165 -176l-97 -550h-170l269 1526h170zM544 -154q0 -79 -75 -199h-110q47 67 65 136q-32 1 -55 26t-23 59q0 33 23 58.5 t72 25.5q45 0 74 -30.5t29 -75.5z" />
<glyph unicode="&#x137;" d="M828 0h-170q0 205 -83 354l-94 167l-176 -146l-66 -375h-170l269 1526h170l-164 -933l250 208q223 184 233 331h170q-13 -193 -302 -433l-96 -80l109 -195q120 -212 120 -424zM507 -154q0 -79 -75 -199h-110q47 67 65 136q-32 1 -55 26t-23 59q0 33 23 58.5t72 25.5 q45 0 74 -30.5t29 -75.5z" />
<glyph unicode="&#x138;" d="M802 0h-170q0 205 -83 354l-94 167l-176 -146l-66 -375h-170l199 1132h170l-94 -539l250 208q223 184 233 331h170q-13 -193 -302 -433l-96 -80l109 -195q120 -212 120 -424z" />
<glyph unicode="&#x139;" d="M758 1883l-227 -236h-158l173 236h212zM150 236l211 1203h170l-228 -1294h510v-145h-686q0 106 23 236z" />
<glyph unicode="&#x13a;" d="M950 1883l-227 -236h-158l173 236h212zM674 1204l-186 -1059h258v-145h-715v145h286l203 1149h-183v145h360q0 -106 -23 -235z" />
<glyph unicode="&#x13b;" d="M118 236l227 1290h170l-244 -1381h510v-145h-686q0 106 23 236zM448 -154q0 -79 -75 -199h-110q47 67 65 136q-32 1 -55 26t-23 59q0 33 23 58.5t72 25.5q45 0 74 -30.5t29 -75.5z" />
<glyph unicode="&#x13c;" d="M700 1291l-202 -1146h258v-145h-715v145h286l218 1236h-182v145h360q0 -106 -23 -235zM419 -154q0 -79 -75 -199h-110q47 67 65 136q-32 1 -55 26t-23 59q0 33 23 58.5t72 25.5q45 0 74 -30.5t29 -75.5z" />
<glyph unicode="&#x13d;" d="M118 236l227 1290h170l-244 -1381h510v-145h-686q0 106 23 236zM959 1526l-128 -352h-140l104 352h164z" />
<glyph unicode="&#x13e;" d="M1103 1526l-128 -352h-140l104 352h164zM700 1291l-202 -1146h258v-145h-715v145h286l218 1236h-182v145h360q0 -106 -23 -235z" />
<glyph unicode="&#x13f;" d="M118 236l227 1290h170l-244 -1381h510v-145h-686q0 106 23 236zM901 644q0 -54 -39 -92.5t-93 -38.5t-92 38.5t-38 92.5q0 55 38 92.5t92 37.5t93 -37.5t39 -92.5z" />
<glyph unicode="&#x140;" d="M642 1291l-202 -1146h258v-145h-715v145h286l218 1236h-182v145h360q0 -106 -23 -235zM1026 644q0 -54 -39 -92.5t-93 -38.5t-92 38.5t-38 92.5q0 55 38 92.5t92 37.5t93 -37.5t39 -92.5z" />
<glyph unicode="&#x141;" d="M230 236l79 450l-162 -116l-89 113l286 204l113 639h170l-89 -501l188 134l87 -113l-310 -222l-119 -679h440v-145h-617q0 106 23 236z" />
<glyph unicode="&#x142;" d="M700 1291l-46 -259l180 127l87 -113l-302 -215l-121 -686h258v-145h-714v145h285l97 546l-170 -121l-88 113l293 209l87 489h-183v145h361q0 -106 -24 -235z" />
<glyph unicode="&#x143;" d="M960 1883l-227 -236h-158l173 236h212zM744 0h-157l56 401l-286 821q-43 -463 -99 -780l-78 -442h-170l253 1439h170l287 -827q43 463 98 780l9 47h170z" />
<glyph unicode="&#x144;" d="M749 0h-170l129 734q5 28 7.5 52t2.5 47q0 69 -25 105q-41 58 -121 58q-168 0 -256 -249l-131 -747h-170l199 1132h170l-23 -125q116 146 271 146q126 0 205 -103q52 -70 52 -191q0 -63 -13 -135zM970 1526l-227 -236h-158l173 236h212z" />
<glyph unicode="&#x145;" d="M748 0h-157l72 488l-286 821q-44 -463 -100 -780l-93 -529h-170l268 1526h170l287 -827q44 463 99 780l8 47h170zM438 -154q0 -79 -75 -199h-110q47 67 65 136q-32 1 -55 26t-23 59q0 33 23 58.5t72 25.5q45 0 74 -30.5t29 -75.5z" />
<glyph unicode="&#x146;" d="M749 0h-170l129 734q5 28 7.5 52t2.5 47q0 69 -25 105q-41 58 -121 58q-168 0 -256 -249l-131 -747h-170l199 1132h170l-23 -125q116 146 271 146q126 0 205 -103q52 -70 52 -191q0 -63 -13 -135zM438 -154q0 -79 -75 -199h-110q47 67 65 136q-32 1 -55 26t-23 59 q0 33 23 58.5t72 25.5q45 0 74 -30.5t29 -75.5z" />
<glyph unicode="&#x147;" d="M715 1627h-153l-161 256h140l109 -137l157 137h159zM744 0h-157l56 401l-286 821q-43 -463 -99 -780l-78 -442h-170l253 1439h170l287 -827q43 463 98 780l9 47h170z" />
<glyph unicode="&#x148;" d="M749 0h-170l129 734q5 28 7.5 52t2.5 47q0 69 -25 105q-41 58 -121 58q-168 0 -256 -249l-131 -747h-170l199 1132h170l-23 -125q116 146 271 146q126 0 205 -103q52 -70 52 -191q0 -63 -13 -135zM667 1270h-153l-161 256h140l109 -137l157 137h159z" />
<glyph unicode="&#x149;" d="M749 0h-170l132 753q21 118 -9.5 180.5t-100.5 62.5q-111 0 -194 -118l-155 -878h-170l199 1132h170l-19 -111q93 128 228 128q117 0 185.5 -103.5t33.5 -301.5zM420 1526l-109 -248h-137l85 248h161z" />
<glyph unicode="&#x14a;" d="M753 50q-45 -248 -129 -324.5t-228 -76.5h-97v151h94q65 0 112.5 40.5t69.5 166.5l84 481l-286 821q-44 -463 -100 -780l-93 -529h-170l268 1526h170l287 -827q44 463 99 780l8 47h170z" />
<glyph unicode="&#x14b;" d="M708 763q20 118 -20.5 175.5t-120.5 57.5q-168 0 -256 -249l-132 -747h-170l199 1132h170l-23 -130q117 151 264 151q134 0 212 -105.5t43 -303.5l-121 -694q-45 -248 -129 -324.5t-228 -76.5h-88v151h85q64 0 112 40.5t70 166.5z" />
<glyph unicode="&#x14c;" d="M930 1677h-552v129h552v-129zM254 463q-8 -40 -10.5 -74t-2.5 -63q0 -81 26 -121q46 -70 142 -70q94 0 157 70q62 70 96 258l91 514q13 79 13 133q0 81 -28 124q-47 70 -142 70q-96 0 -157 -69q-60 -69 -94 -258zM178 996q45 252 156 356q115 107 280 107q167 0 258 -126 q62 -85 62 -226q0 -69 -14 -150l-91 -514q-44 -251 -158 -356q-57 -52 -125.5 -79t-152.5 -27q-167 0 -259 125q-63 86 -63 228q0 67 15 148z" />
<glyph unicode="&#x14d;" d="M544 999q-92 0 -160 -77q-69 -78 -104 -278q-41 -212 -41 -301q0 -87 29 -131q50 -77 143 -77q91 0 160 78q69 77 103 277q42 212 42 301q0 87 -29 132q-50 76 -143 76zM393 -19q-168 0 -261 134q-61 91 -61 236q0 94 43 313q23 130 63 223t99 151q118 115 285 115 q168 0 261 -134q62 -91 62 -236q0 -94 -44 -313q-23 -130 -63 -223t-99 -151q-118 -115 -285 -115zM910 1397h-552v129h552v-129z" />
<glyph unicode="&#x14e;" d="M930 1707q-96 -142 -268 -142t-269 142v167h29q95 -170 240 -170q142 0 239 170h29v-167zM254 463q-8 -40 -10.5 -74t-2.5 -63q0 -81 26 -121q46 -70 142 -70q94 0 157 70q62 70 96 258l91 514q13 79 13 133q0 81 -28 124q-47 70 -142 70q-96 0 -157 -69 q-60 -69 -94 -258zM178 996q45 252 156 356q115 107 280 107q167 0 258 -126q62 -85 62 -226q0 -69 -14 -150l-91 -514q-44 -251 -158 -356q-57 -52 -125.5 -79t-152.5 -27q-167 0 -259 125q-63 86 -63 228q0 67 15 148z" />
<glyph unicode="&#x14f;" d="M543 999q-92 0 -160 -77q-69 -78 -104 -278q-41 -212 -41 -301q0 -87 29 -131q50 -77 143 -77q91 0 160 78q69 77 103 277q42 212 42 301q0 87 -29 132q-50 76 -143 76zM392 -19q-168 0 -261 134q-61 91 -61 236q0 94 43 313q23 130 63 223t99 151q118 115 285 115 q168 0 261 -134q62 -91 62 -236q0 -94 -44 -313q-23 -130 -63 -223t-99 -151q-118 -115 -285 -115zM901 1427q-96 -142 -268 -142t-269 142v167h29q95 -170 240 -170q142 0 239 170h29v-167z" />
<glyph unicode="&#x150;" d="M1192 1883l-273 -256h-158l228 256h203zM851 1883l-272 -256h-159l229 256h202zM254 463q-8 -40 -10.5 -74t-2.5 -63q0 -81 26 -121q46 -70 142 -70q94 0 157 70q62 70 96 258l91 514q13 79 13 133q0 81 -28 124q-47 70 -142 70q-96 0 -157 -69q-60 -69 -94 -258z M178 996q45 252 156 356q115 107 280 107q167 0 258 -126q62 -85 62 -226q0 -69 -14 -150l-91 -514q-44 -251 -158 -356q-57 -52 -125.5 -79t-152.5 -27q-167 0 -259 125q-63 86 -63 228q0 67 15 148z" />
<glyph unicode="&#x151;" d="M543 999q-92 0 -160 -77q-69 -78 -104 -278q-41 -212 -41 -301q0 -87 29 -131q50 -77 143 -77q91 0 160 78q69 77 103 277q42 212 42 301q0 87 -29 132q-50 76 -143 76zM392 -19q-168 0 -261 134q-61 91 -61 236q0 94 43 313q23 130 63 223t99 151q118 115 285 115 q168 0 261 -134q62 -91 62 -236q0 -94 -44 -313q-23 -130 -63 -223t-99 -151q-118 -115 -285 -115zM1095 1526l-273 -256h-158l228 256h203zM754 1526l-272 -256h-159l229 256h202z" />
<glyph unicode="&#x152;" d="M406 152l215 1223q-33 1 -50.5 1h-19.5q-83 0 -140 -60t-84 -212l-119 -681q-5 -28 -7.5 -53t-2.5 -47q0 -75 28 -111q46 -60 129 -60h51zM853 0h-480q-202 0 -286 120q-57 81 -57 207q0 28 2.5 57t8.5 60l118 677q37 205 139 304q102 101 305 101h492v-150h-303 l-89 -502h236v-151h-263l-100 -571h277v-152z" />
<glyph unicode="&#x153;" d="M431 770q10 62 10 103q0 135 -94 135q-106 0 -148 -238l-71 -408q-11 -62 -11 -104q0 -132 94 -132q106 0 148 236zM800 635l24 135q11 62 11 104q0 134 -94 134q-107 0 -149 -238l-24 -135h232zM941 518h-392l-27 -156q-10 -55 -10 -96q0 -140 107 -140q80 0 144 108 l104 -66q-94 -187 -263 -187q-139 0 -204 131q-73 -131 -219 -131q-116 0 -181 101q-41 64 -41 176q0 67 15 153l62 349q40 227 119 310q80 83 194 83q146 0 212 -126q72 126 211 126q115 0 180 -102q40 -64 40 -175q0 -34 -4 -72.5t-11 -81.5z" />
<glyph unicode="&#x154;" d="M960 1883l-227 -236h-158l173 236h212zM361 811h163q145 0 209 78.5t64 231.5q0 92 -50.5 132.5t-147.5 40.5h-153zM335 667l-117 -667h-170l253 1439h314q203 0 290 -119q65 -90 65 -211q0 -164 -75 -273.5t-227 -142.5q143 -269 143 -684v-9h-170q0 429 -128 667h-178z " />
<glyph unicode="&#x155;" d="M999 941l-159 -66q-37 124 -156 124q-240 0 -327 -494l-89 -505h-170l199 1132h170l-28 -162q113 183 289 183q204 0 271 -212zM1000 1526l-227 -236h-158l173 236h212z" />
<glyph unicode="&#x156;" d="M353 840h162q146 0 215 107.5t69 259.5q0 93 -50 133.5t-148 40.5h-152zM327 696l-122 -696h-170l269 1526h314q203 0 290 -120q64 -89 64 -210q0 -145 -70.5 -278.5t-241.5 -195.5q138 -298 138 -713v-9h-170q0 429 -123 696h-178zM467 -154q0 -79 -75 -199h-110 q47 67 65 136q-32 1 -55 26t-23 59q0 33 23 58.5t72 25.5q45 0 74 -30.5t29 -75.5z" />
<glyph unicode="&#x157;" d="M999 941l-159 -66q-37 124 -156 124q-240 0 -327 -494l-89 -505h-170l199 1132h170l-28 -162q113 183 289 183q204 0 271 -212zM251 -154q0 -79 -75 -199h-110q47 67 65 136q-32 1 -55 26t-23 59q0 33 23 58.5t72 25.5q45 0 74 -30.5t29 -75.5z" />
<glyph unicode="&#x158;" d="M686 1627h-153l-161 256h140l109 -137l157 137h159zM361 811h163q145 0 209 78.5t64 231.5q0 92 -50.5 132.5t-147.5 40.5h-153zM335 667l-117 -667h-170l253 1439h314q203 0 290 -119q65 -90 65 -211q0 -164 -75 -273.5t-227 -142.5q143 -269 143 -684v-9h-170 q0 429 -128 667h-178z" />
<glyph unicode="&#x159;" d="M999 941l-159 -66q-37 124 -156 124q-240 0 -327 -494l-89 -505h-170l199 1132h170l-28 -162q113 183 289 183q204 0 271 -212zM677 1270h-153l-161 256h140l109 -137l157 137h159z" />
<glyph unicode="&#x15a;" d="M1018 1883l-227 -236h-158l173 236h212zM12 232l142 95q75 -192 270 -192q107 0 178.5 72.5t71.5 176.5q0 95 -123 206l-184 165q-147 132 -147 281q0 179 112 301t317 122q229 0 354 -209l-149 -102q-66 156 -221 156q-113 0 -176.5 -70t-63.5 -173q0 -93 104 -187 l185 -167q165 -149 165 -299q0 -171 -114 -299t-325 -128q-289 0 -396 251z" />
<glyph unicode="&#x15b;" d="M422 131q118 0 179 62.5t61 140.5q0 85 -96 134l-172 86q-185 93 -185 242t106.5 253t289.5 104q227 0 331 -209l-154 -84q-48 142 -194 142q-96 0 -151.5 -54t-55.5 -125q0 -80 89 -125l172 -87q190 -95 190 -261q0 -156 -114.5 -262.5t-313.5 -106.5q-249 0 -370 231 l156 85q61 -166 232 -166zM999 1526l-227 -236h-158l173 236h212z" />
<glyph unicode="&#x15c;" d="M950 1627h-140l-108 137l-158 -137h-159l251 256h154zM12 232l142 95q75 -192 270 -192q107 0 178.5 72.5t71.5 176.5q0 95 -123 206l-184 165q-147 132 -147 281q0 179 112 301t317 122q229 0 354 -209l-149 -102q-66 156 -221 156q-113 0 -176.5 -70t-63.5 -173 q0 -93 104 -187l185 -167q165 -149 165 -299q0 -171 -114 -299t-325 -128q-289 0 -396 251z" />
<glyph unicode="&#x15d;" d="M422 131q118 0 179 62.5t61 140.5q0 85 -96 134l-172 86q-185 93 -185 242t106.5 253t289.5 104q227 0 331 -209l-154 -84q-48 142 -194 142q-96 0 -151.5 -54t-55.5 -125q0 -80 89 -125l172 -87q190 -95 190 -261q0 -156 -114.5 -262.5t-313.5 -106.5q-249 0 -370 231 l156 85q61 -166 232 -166zM924 1270h-140l-108 137l-158 -137h-159l251 256h154z" />
<glyph unicode="&#x15e;" d="M10 232l142 95q75 -192 270 -192q107 0 178.5 72.5t71.5 176.5q0 89 -106 208l-221 246q-111 124 -111 267q0 186 112 314.5t317 128.5q229 0 353 -209l-149 -103q-65 157 -221 157q-113 0 -176 -75t-63 -188q0 -93 81 -182l220 -245q137 -152 137 -295q0 -171 -114 -299 t-325 -128q-289 0 -396 251zM160 -245h56q135 0 135 65q0 42 -70 42h-20l62 90q180 -15 180 -143q0 -73 -64 -122t-279 -49v117z" />
<glyph unicode="&#x15f;" d="M422 131q118 0 179 62.5t61 140.5q0 85 -96 134l-172 86q-185 93 -185 242t106.5 253t289.5 104q227 0 331 -209l-154 -84q-48 142 -194 142q-96 0 -151.5 -54t-55.5 -125q0 -80 89 -125l172 -87q190 -95 190 -261q0 -156 -114.5 -262.5t-313.5 -106.5q-249 0 -370 231 l156 85q61 -166 232 -166zM170 -245h56q135 0 135 65q0 42 -70 42h-20l62 90q180 -15 180 -143q0 -73 -64 -122t-279 -49v117z" />
<glyph unicode="&#x160;" d="M767 1627h-153l-161 256h140l109 -137l157 137h159zM12 232l142 95q75 -192 270 -192q107 0 178.5 72.5t71.5 176.5q0 95 -123 206l-184 165q-147 132 -147 281q0 179 112 301t317 122q229 0 354 -209l-149 -102q-66 156 -221 156q-113 0 -176.5 -70t-63.5 -173 q0 -93 104 -187l185 -167q165 -149 165 -299q0 -171 -114 -299t-325 -128q-289 0 -396 251z" />
<glyph unicode="&#x161;" d="M401 131q118 0 179 62.5t61 140.5q0 85 -96 134l-172 86q-185 93 -185 242t106.5 253t289.5 104q227 0 331 -209l-154 -84q-48 142 -194 142q-96 0 -151.5 -54t-55.5 -125q0 -80 89 -125l172 -87q190 -95 190 -261q0 -156 -114.5 -262.5t-313.5 -106.5q-249 0 -370 231 l156 85q61 -166 232 -166zM684 1270h-153l-161 256h140l109 -137l157 137h159z" />
<glyph unicode="&#x162;" d="M1021 1381h-316l-243 -1381h-170l243 1381h-312v145h798v-145zM438 -154q0 -79 -75 -199h-110q47 67 65 136q-32 1 -55 26t-23 59q0 33 23 58.5t72 25.5q45 0 74 -30.5t29 -75.5z" />
<glyph unicode="&#x163;" d="M833 158q-130 -177 -329 -177q-131 0 -213 99q-60 74 -60 184q0 42 8 91l112 632h-178v145h204l69 394h170l-69 -394h369v-145h-395l-116 -663q-5 -27 -5 -52q0 -67 35 -102t96 -35q119 0 191 117zM544 -154q0 -79 -75 -199h-110q47 67 65 136q-32 1 -55 26t-23 59 q0 33 23 58.5t72 25.5q45 0 74 -30.5t29 -75.5z" />
<glyph unicode="&#x164;" d="M715 1627h-153l-161 256h140l109 -137l157 137h159zM1006 1294h-316l-228 -1294h-170l228 1294h-312v145h798v-145z" />
<glyph unicode="&#x165;" d="M1143 1526l-129 -352h-140l105 352h164zM834 158q-131 -177 -320 -177q-141 0 -223 99q-60 73 -60 185q0 41 9 90l112 632h-179v145h204l69 394h171l-70 -394h243v-145h-268l-115 -654q-6 -34 -6 -62q0 -66 34.5 -101t94.5 -35q119 0 193 117z" />
<glyph unicode="&#x166;" d="M1021 1381h-316l-87 -486h275v-152h-301l-130 -743h-170l131 743h-273v152h299l86 486h-312v145h798v-145z" />
<glyph unicode="&#x167;" d="M921 987h-395l-44 -251h365v-152h-392l-45 -260q-5 -30 -5 -55q0 -60 35 -97t96 -37q119 0 191 117l111 -94q-130 -177 -319 -177q-132 0 -208 80.5t-76 199.5q0 35 6 74l43 249h-180v152h207l45 251h-178v145h203l69 394h171l-69 -394h369v-145z" />
<glyph unicode="&#x168;" d="M1038 1816q-77 -189 -229 -189q-68 0 -142.5 56.5t-111.5 56.5q-61 0 -141 -108l-84 71q102 181 235 181q58 0 130.5 -57.5t122.5 -57.5q62 0 121 106zM821 439q-43 -246 -160 -353q-114 -105 -269 -105q-154 0 -248 124q-64 85 -64 227q0 33 3 69.5t11 75.5l169 962h170 l-173 -981q-7 -38 -10.5 -70.5t-3.5 -60.5q0 -84 30 -125q50 -67 133 -67t146 67q64 66 98 256l173 981h171z" />
<glyph unicode="&#x169;" d="M744 0h-170l22 128q-116 -147 -270 -147q-127 0 -205 104q-50 68 -50 193q0 73 15 159l123 695h170l-126 -715q-12 -72 -12 -120q0 -71 23 -104q38 -58 120 -58q169 0 255 241l134 756h170zM980 1478q-77 -189 -229 -189q-68 0 -142.5 56.5t-111.5 56.5q-61 0 -141 -108 l-84 71q102 181 235 181q58 0 130.5 -57.5t122.5 -57.5q62 0 121 106z" />
<glyph unicode="&#x16a;" d="M920 1677h-552v129h552v-129zM821 439q-43 -246 -160 -353q-114 -105 -269 -105q-154 0 -248 124q-64 85 -64 227q0 33 3 69.5t11 75.5l169 962h170l-173 -981q-7 -38 -10.5 -70.5t-3.5 -60.5q0 -84 30 -125q50 -67 133 -67t146 67q64 66 98 256l173 981h171z" />
<glyph unicode="&#x16b;" d="M744 0h-170l22 128q-116 -147 -270 -147q-127 0 -205 104q-50 68 -50 193q0 73 15 159l123 695h170l-126 -715q-12 -72 -12 -120q0 -71 23 -104q38 -58 120 -58q169 0 255 241l134 756h170zM910 1397h-552v129h552v-129z" />
<glyph unicode="&#x16c;" d="M930 1707q-96 -142 -268 -142t-269 142v167h29q95 -170 240 -170q142 0 239 170h29v-167zM821 439q-43 -246 -160 -353q-114 -105 -269 -105q-154 0 -248 124q-64 85 -64 227q0 33 3 69.5t11 75.5l169 962h170l-173 -981q-7 -38 -10.5 -70.5t-3.5 -60.5q0 -84 30 -125 q50 -67 133 -67t146 67q64 66 98 256l173 981h171z" />
<glyph unicode="&#x16d;" d="M744 0h-170l22 128q-116 -147 -270 -147q-127 0 -205 104q-50 68 -50 193q0 73 15 159l123 695h170l-126 -715q-12 -72 -12 -120q0 -71 23 -104q38 -58 120 -58q169 0 255 241l134 756h170zM872 1427q-96 -142 -268 -142t-269 142v167h29q95 -170 240 -170q142 0 239 170 h29v-167z" />
<glyph unicode="&#x16e;" d="M889 1710q0 -73 -50 -123.5t-163 -50.5t-163.5 50.5t-50.5 123.5q0 72 50.5 123t163.5 51t163 -51t50 -123zM770 1710q0 29 -21.5 46t-72.5 17q-52 0 -73 -17t-21 -46t21 -46.5t73 -17.5q51 0 72.5 17.5t21.5 46.5zM821 439q-43 -246 -160 -353q-114 -105 -269 -105 q-154 0 -248 124q-64 85 -64 227q0 33 3 69.5t11 75.5l169 962h170l-173 -981q-7 -38 -10.5 -70.5t-3.5 -60.5q0 -84 30 -125q50 -67 133 -67t146 67q64 66 98 256l173 981h171z" />
<glyph unicode="&#x16f;" d="M744 0h-170l22 128q-116 -147 -270 -147q-127 0 -205 104q-50 68 -50 193q0 73 15 159l123 695h170l-126 -715q-12 -72 -12 -120q0 -71 23 -104q38 -58 120 -58q169 0 255 241l134 756h170zM812 1372q0 -73 -50 -123.5t-163 -50.5t-163.5 50.5t-50.5 123.5q0 72 50.5 123 t163.5 51t163 -51t50 -123zM693 1372q0 29 -21.5 46t-72.5 17q-52 0 -73 -17t-21 -46t21 -46.5t73 -17.5q51 0 72.5 17.5t21.5 46.5z" />
<glyph unicode="&#x170;" d="M1153 1883l-273 -256h-158l228 256h203zM812 1883l-272 -256h-159l229 256h202zM821 439q-43 -246 -160 -353q-114 -105 -269 -105q-154 0 -248 124q-64 85 -64 227q0 33 3 69.5t11 75.5l169 962h170l-173 -981q-7 -38 -10.5 -70.5t-3.5 -60.5q0 -84 30 -125 q50 -67 133 -67t146 67q64 66 98 256l173 981h171z" />
<glyph unicode="&#x171;" d="M744 0h-170l22 128q-116 -147 -270 -147q-127 0 -205 104q-50 68 -50 193q0 73 15 159l123 695h170l-126 -715q-12 -72 -12 -120q0 -71 23 -104q38 -58 120 -58q169 0 255 241l134 756h170zM1114 1526l-273 -256h-158l228 256h203zM773 1526l-272 -256h-159l229 256h202z " />
<glyph unicode="&#x172;" d="M821 439q-43 -246 -160 -353q-114 -105 -269 -105q-154 0 -248 124q-64 85 -64 227q0 33 3 69.5t11 75.5l184 1049h170l-188 -1068q-7 -38 -10.5 -70.5t-3.5 -60.5q0 -84 30 -125q50 -67 133 -67t146 67q64 66 98 256l188 1068h171zM458 -356h-22q-127 0 -197 58.5 t-70 130.5q0 125 142 167h170q-154 -62 -154 -146q0 -45 33.5 -66t97.5 -21v-123z" />
<glyph unicode="&#x173;" d="M744 0h-170l22 128q-116 -147 -270 -147q-127 0 -205 104q-50 68 -50 193q0 73 15 159l123 695h170l-126 -715q-12 -72 -12 -120q0 -71 23 -104q38 -58 120 -58q169 0 255 241l134 756h170zM722 -356h-22q-127 0 -197 58.5t-70 130.5q0 125 142 167h170 q-154 -62 -154 -146q0 -45 33.5 -66t97.5 -21v-123z" />
<glyph unicode="&#x174;" d="M921 1627h-140l-108 137l-158 -137h-159l251 256h154zM592 140q105 314 173 698l105 601h170l-49 -281q-104 -591 -328 -1158h-161l-21 562l-230 -562h-160q0 707 105 1307l23 132h170l-54 -311q-84 -476 -138 -988l263 659h108z" />
<glyph unicode="&#x175;" d="M582 113l82 228q155 436 172 791h170q-7 -164 -63 -370t-162 -459l-126 -303h-160l-28 491l-208 -491h-160q-9 213 -9 394q0 482 62 738h170q-59 -334 -88.5 -588.5t-29.5 -430.5l237 563h109zM882 1270h-140l-108 137l-158 -137h-159l251 256h154z" />
<glyph unicode="&#x176;" d="M921 1627h-140l-108 137l-158 -137h-159l251 256h154zM462 0h-170l98 563l-92 308q-105 344 -105 568h170q0 -248 84 -527l51 -169l209 305q160 233 160 391h170q0 -184 -204 -483l-273 -393z" />
<glyph unicode="&#x177;" d="M248 70l79 133l-136 529q-35 137 -35 313v87h165v-81q0 -117 32 -270l92 -386l254 421q116 193 116 316h175q0 -141 -149 -387l-466 -771q-128 -213 -128 -327h-165q0 147 166 423zM882 1270h-140l-108 137l-158 -137h-159l251 256h154z" />
<glyph unicode="&#x178;" d="M963 1773q0 -45 -32 -78.5t-80 -33.5q-47 0 -78.5 33.5t-31.5 78.5t31.5 77.5t78.5 32.5q48 0 80 -32.5t32 -77.5zM590 1773q0 -45 -32 -78.5t-79 -33.5q-48 0 -80 33.5t-32 78.5t32 77.5t80 32.5q47 0 79 -32.5t32 -77.5zM462 0h-170l98 563l-92 308q-105 344 -105 568 h170q0 -248 84 -527l51 -169l209 305q160 233 160 391h170q0 -184 -204 -483l-273 -393z" />
<glyph unicode="&#x179;" d="M999 1883l-227 -236h-158l173 236h212zM729 1096q94 115 94 198h-525v145h694v-116q0 -160 -142 -334l-529 -652q-93 -113 -93 -192h544v-145h-713v116q0 157 141 331l529 649v0z" />
<glyph unicode="&#x17a;" d="M582 828q102 96 113 159h-504v145h677v-87q0 -165 -168 -329l-372 -370q-126 -124 -139 -201h545v-145h-718v87q0 177 196 372zM921 1526l-227 -236h-158l173 236h212z" />
<glyph unicode="&#x17b;" d="M792 1753q0 -54 -39 -92.5t-93 -38.5t-92 38.5t-38 92.5q0 55 38 92.5t92 37.5t93 -37.5t39 -92.5zM729 1096q94 115 94 198h-525v145h694v-116q0 -160 -142 -334l-529 -652q-93 -113 -93 -192h544v-145h-713v116q0 157 141 331l529 649v0z" />
<glyph unicode="&#x17c;" d="M582 828q102 96 113 159h-504v145h677v-87q0 -165 -168 -329l-372 -370q-126 -124 -139 -201h545v-145h-718v87q0 177 196 372zM739 1396q0 -54 -39 -92.5t-93 -38.5t-92 38.5t-38 92.5q0 55 38 92.5t92 37.5t93 -37.5t39 -92.5z" />
<glyph unicode="&#x17d;" d="M753 1627h-153l-161 256h140l109 -137l157 137h159zM729 1096q94 115 94 198h-525v145h694v-116q0 -160 -142 -334l-529 -652q-93 -113 -93 -192h544v-145h-713v116q0 157 141 331l529 649v0z" />
<glyph unicode="&#x17e;" d="M635 828q102 96 113 159h-504v145h677v-87q0 -165 -168 -329l-372 -370q-126 -124 -139 -201h545v-145h-718v87q0 177 196 372zM676 1270h-153l-161 256h140l109 -137l157 137h159z" />
<glyph unicode="&#x17f;" d="M907 1306q-34 86 -142 86q-70 0 -113 -45.5t-64 -163.5l-208 -1183h-171l162 924h-178v145h204l21 123q34 193 128.5 274t225.5 81q200 0 282 -138z" />
<glyph unicode="&#x192;" d="M1038 1388l-143 -93q-49 90 -163 90q-70 0 -119 -49.5t-68 -161.5l-33 -187h357v-151h-393l-271 -1060h-162l271 1060h-186v151h213l36 205q31 173 132.5 264t242.5 91q179 0 286 -159z" />
<glyph unicode="&#x237;" d="M738 896l-146 -828q-38 -211 -152 -320.5t-284 -109.5q-190 0 -318 159l135 110q71 -115 190 -115q100 0 166.5 67.5t94.5 227.5l159 900h-182v145h360q0 -106 -23 -236z" />
<glyph unicode="&#x245;" d="M751 1526q30 -332 46 -613t16 -514q0 -222 -14 -399h-170q8 94 11.5 206.5t3.5 246.5q0 177 -6.5 386t-20.5 456l-354 -837q-119 -281 -119 -458h-170q0 217 155 566l430 960h192z" />
<glyph unicode="&#x2c6;" d="M882 1270h-140l-108 137l-158 -137h-159l251 256h154z" />
<glyph unicode="&#x2c7;" d="M676 1270h-153l-161 256h140l109 -137l157 137h159z" />
<glyph unicode="&#x2d8;" d="M901 1427q-96 -142 -268 -142t-269 142v167h29q95 -170 240 -170q142 0 239 170h29v-167z" />
<glyph unicode="&#x2d9;" d="M753 1396q0 -54 -39 -92.5t-93 -38.5t-92 38.5t-38 92.5q0 55 38 92.5t92 37.5t93 -37.5t39 -92.5z" />
<glyph unicode="&#x2da;" d="M899 1372q0 -73 -50 -123.5t-163 -50.5t-163.5 50.5t-50.5 123.5q0 72 50.5 123t163.5 51t163 -51t50 -123zM780 1372q0 29 -21.5 46t-72.5 17q-52 0 -73 -17t-21 -46t21 -46.5t73 -17.5q51 0 72.5 17.5t21.5 46.5z" />
<glyph unicode="&#x2db;" d="M487 -356h-22q-127 0 -197 58.5t-70 130.5q0 125 142 167h170q-154 -62 -154 -146q0 -45 33.5 -66t97.5 -21v-123z" />
<glyph unicode="&#x2dc;" d="M980 1478q-77 -189 -229 -189q-68 0 -142.5 56.5t-111.5 56.5q-61 0 -141 -108l-84 71q102 181 235 181q58 0 130.5 -57.5t122.5 -57.5q62 0 121 106z" />
<glyph unicode="&#x2dd;" d="M1037 1526l-273 -256h-158l228 256h203zM696 1526l-272 -256h-159l229 256h202z" />
<glyph unicode="&#x300;" d="M814 1290h-158l-227 236h212z" />
<glyph unicode="&#x301;" d="M812 1526l-227 -236h-158l173 236h212z" />
<glyph unicode="&#x302;" d="M882 1270h-150l-132 137l-133 -137h-150l206 256h153z" />
<glyph unicode="&#x303;" d="M983 1478q-77 -189 -230 -189q-67 0 -141.5 56.5t-111.5 56.5q-61 0 -141 -108l-84 71q102 181 235 181q58 0 130.5 -57.5t122.5 -57.5q62 0 121 106z" />
<glyph unicode="&#x304;" d="M907 1397h-552v129h552v-129z" />
<glyph unicode="&#x305;" d="M1045 1397h-823v129h823v-129z" />
<glyph unicode="&#x306;" d="M901 1427q-96 -142 -268 -142t-269 142v167h29q95 -170 240 -170q142 0 239 170h29v-167z" />
<glyph unicode="&#x307;" d="M753 1396q0 -54 -39 -92.5t-93 -38.5t-92 38.5t-38 92.5q0 55 38 92.5t92 37.5t93 -37.5t39 -92.5z" />
<glyph unicode="&#x308;" d="M923 1416q0 -45 -32 -78.5t-80 -33.5q-47 0 -78.5 33.5t-31.5 78.5t31.5 77.5t78.5 32.5q48 0 80 -32.5t32 -77.5zM550 1416q0 -45 -32 -78.5t-79 -33.5q-48 0 -80 33.5t-32 78.5t32 77.5t80 32.5q47 0 79 -32.5t32 -77.5z" />
<glyph unicode="&#x309;" d="M443 1489q150 5 232 -52.5t82 -147.5q0 -98 -114 -157h-170q127 53 127 139q0 48 -45 73.5t-112 18.5v126z" />
<glyph unicode="&#x30a;" d="M837 1398q0 -66 -55.5 -108t-158.5 -42t-158 42t-55 108q0 65 55 107.5t158 42.5t158.5 -42.5t55.5 -107.5zM707 1398q0 29 -23 48.5t-61 19.5q-39 0 -61.5 -19.5t-22.5 -48.5t22.5 -49t61.5 -20q38 0 61 20t23 49z" />
<glyph unicode="&#x30b;" d="M1012 1526l-228 -256h-158l183 256h203zM671 1526l-227 -256h-159l184 256h202z" />
<glyph unicode="&#x30c;" d="M716 1270h-154l-206 256h150l133 -137l133 137h150z" />
<glyph unicode="&#x30d;" d="M692 1526v-285h-143v285h143z" />
<glyph unicode="&#x30e;" d="M548 1526v-285h-143v285h143zM834 1526v-285h-143v285h143z" />
<glyph unicode="&#x30f;" d="M436 1526l182 -256h-158l-228 256h204zM776 1526l183 -256h-159l-227 256h203z" />
<glyph unicode="&#x310;" d="M884 1311q-116 -104 -269 -104q-152 0 -268 104v119q133 -122 268 -122q133 0 269 122v-119zM727 1465q0 -37 -24.5 -59.5t-67.5 -22.5q-44 0 -68.5 22.5t-24.5 59.5q0 38 24.5 60.5t68.5 22.5q43 0 67.5 -22.5t24.5 -60.5z" />
<glyph unicode="&#x311;" d="M888 1285h-29q-98 170 -240 170q-145 0 -239 -170h-29v167q96 142 268 142t269 -142v-167z" />
<glyph unicode="&#x312;" d="M464 1328q0 113 165 198h154v-43q-138 -55 -168 -115q90 0 136 -21.5t46 -56.5q0 -34 -44 -65.5t-114 -31.5q-79 0 -127 36t-48 99z" />
<glyph unicode="&#x313;" d="M800 1441q0 -139 -188 -235h-179v28q205 100 205 182t-142 82h-63v137q57 15 114 15q112 0 182.5 -57.5t70.5 -151.5z" />
<glyph unicode="&#x314;" d="M457 1441q0 94 70.5 151.5t182.5 57.5q57 0 114 -15v-137h-63q-142 0 -142 -82t205 -182v-28h-180q-187 96 -187 235z" />
<glyph unicode="&#x315;" d="M1181 1526l-128 -352h-140l104 352h164z" />
<glyph unicode="&#x316;" d="M814 -352h-158l-227 236h212z" />
<glyph unicode="&#x317;" d="M812 -116l-227 -236h-158l173 236h212z" />
<glyph unicode="&#x318;" d="M610 -353h-111v93h-432v90h432v93h111v-276z" />
<glyph unicode="&#x319;" d="M67 -77h110v-93h433v-90h-433v-93h-110v276z" />
<glyph unicode="&#x31a;" d="M778 1526h336v-249h-130v143h-206v106z" />
<glyph unicode="&#x31b;" d="M1153 1441q0 -139 -188 -235h-180v28q205 100 205 182t-142 82h-63v137q57 15 114 15q112 0 183 -57.5t71 -151.5z" />
<glyph unicode="&#x31c;" d="M189 -213q0 66 55 108t159 42q34 0 66 -5v-79q-32 3 -47 3q-57 0 -80 -20t-23 -49t23 -48.5t80 -19.5q15 0 47 3v-79q-32 -5 -66 -5q-104 0 -159 42t-55 107z" />
<glyph unicode="&#x31d;" d="M601 -353h-543v107h207v143h129v-143h207v-107z" />
<glyph unicode="&#x31e;" d="M611 -210h-207v-143h-130v143h-206v107h543v-107z" />
<glyph unicode="&#x31f;" d="M616 -221h-216v-132h-110v132h-217v90h217v131h110v-131h216v-90z" />
<glyph unicode="&#x320;" d="M670 -353h-691v107h691v-107z" />
<glyph unicode="&#x321;" d="M840 -106q-22 -131 -90.5 -189t-169.5 -58h-120v142h86q57 0 85 24.5t39 80.5l50 278h170z" />
<glyph unicode="&#x322;" d="M569 172h170l-45 -259q-11 -56 17 -90t85 -34h43v-142h-107q-101 0 -165 77.5t-41 207.5z" />
<glyph unicode="&#x323;" d="M466 -230q0 -54 -39 -92.5t-93 -38.5t-92 38.5t-38 92.5q0 55 38 92.5t92 37.5t93 -37.5t39 -92.5z" />
<glyph unicode="&#x324;" d="M630 -250q0 -46 -32.5 -79t-79.5 -33q-48 0 -79 33t-31 79q0 44 31 77t79 33q47 0 79.5 -33t32.5 -77zM256 -250q0 -46 -32 -79t-79 -33t-79 33t-32 79q0 44 32 77t79 33t79 -33t32 -77z" />
<glyph unicode="&#x325;" d="M553 -213q0 -65 -55.5 -107t-158.5 -42t-158 42t-55 107q0 66 55 108t158 42t158.5 -42t55.5 -108zM423 -213q0 29 -23 49t-61 20q-39 0 -61.5 -20t-22.5 -49t22.5 -48.5t61.5 -19.5q38 0 61 19.5t23 48.5z" />
<glyph unicode="&#x326;" d="M527 -127q0 -139 -188 -235h-180v28q205 100 205 182t-142 82h-63v137q57 15 114 15q112 0 183 -57.5t71 -151.5z" />
<glyph unicode="&#x327;" d="M174 -245q168 -15 168 55q0 58 -98 51l46 91q207 -8 207 -140q0 -82 -65.5 -128t-257.5 -46v117z" />
<glyph unicode="&#x328;" d="M509 -356q-150 -6 -232 51.5t-82 148.5q0 97 114 156h170q-126 -53 -126 -139q0 -47 44.5 -73t111.5 -19v-125z" />
<glyph unicode="&#x329;" d="M399 -353h-129v250h129v-250z" />
<glyph unicode="&#x32a;" d="M561 -193h-452v-160h-120v266h692v-266h-120v160z" />
<glyph unicode="&#x32b;" d="M26 -184q59 -62 126 -62q100 0 120 135h116q21 -135 121 -135q67 0 126 62l69 -77q-88 -101 -195 -101q-131 0 -179 111q-47 -111 -178 -111q-108 0 -195 101z" />
<glyph unicode="&#x32c;" d="M407 -353h-96l-235 256h150l133 -127l133 127h149z" />
<glyph unicode="&#x32d;" d="M599 -353h-150l-132 128l-133 -128h-150l235 256h95z" />
<glyph unicode="&#x32e;" d="M355 -253q112 0 153 137h131q-64 -246 -284 -246q-219 0 -283 246h131q41 -137 152 -137z" />
<glyph unicode="&#x32f;" d="M314 -215q-111 0 -153 -138h-130q64 247 283 247t283 -247h-130q-42 138 -153 138z" />
<glyph unicode="&#x330;" d="M688 -172q-77 -189 -229 -189q-68 0 -142.5 56.5t-111.5 56.5q-61 0 -141 -108l-84 71q102 181 235 181q58 0 130.5 -57.5t122.5 -57.5q62 0 121 106z" />
<glyph unicode="&#x331;" d="M601 -352h-552v129h552v-129z" />
<glyph unicode="&#x332;" d="M848 -352h-1043v150h1043v-150z" />
<glyph unicode="&#x333;" d="M846 -353h-1045v103h1045v-103zM876 -184h-1045v103h1045v-103z" />
<glyph unicode="&#x334;" d="M303 607q-95 0 -209 -122h-38v144q126 119 247 119q82 0 188.5 -68.5t170.5 -68.5q98 0 212 122h38v-144q-126 -119 -250 -119q-89 0 -199 68.5t-160 68.5z" />
<glyph unicode="&#x335;" d="M910 560h-852v103h852v-103z" />
<glyph unicode="&#x336;" d="M1007 560h-1046v103h1046v-103z" />
<glyph unicode="&#x337;" d="M956 1325l-846 -1518h-115l846 1518h115z" />
<glyph unicode="&#x338;" d="M1026 1717l-916 -1910h-115l916 1910h115z" />
<glyph unicode="&#x339;" d="M475 -213q0 -65 -55 -107t-158 -42q-34 0 -66 5v79q32 -3 46 -3q57 0 80.5 19.5t23.5 48.5t-23.5 49t-80.5 20q-14 0 -46 -3v79q32 5 66 5q103 0 158 -42t55 -108z" />
<glyph unicode="&#x33a;" d="M562 -87h120v-266h-692v266h120v-159h452v159z" />
<glyph unicode="&#x33b;" d="M683 -353h-692v266h692v-266zM563 -174h-452v-92h452v92z" />
<glyph unicode="&#x33c;" d="M-35 -203q88 102 195 102q132 0 179 -112q47 112 179 112q107 0 195 -102l-70 -77q-59 63 -125 63q-101 0 -121 -136h-116q-20 136 -121 136q-66 0 -125 -63z" />
<glyph unicode="&#x33d;" d="M543 1388l-127 83l56 77l149 -100l149 100l56 -77l-127 -83l127 -83l-56 -77l-149 100l-149 -100l-56 77z" />
<glyph unicode="&#x33e;" d="M599 1303q0 19 -25 38l-39 28q-43 32 -43 74q0 52 79 83h164v-24q-101 -22 -101 -59q0 -19 25 -37l38 -28q44 -32 44 -75q0 -52 -79 -83h-165v24q102 22 102 59z" />
<glyph unicode="&#x33f;" d="M1130 1255h-1045v102h1045v-102zM1159 1424h-1045v102h1045v-102z" />
<glyph unicode="&#x340;" d="M814 1290h-158l-227 236h212z" />
<glyph unicode="&#x341;" d="M812 1526l-227 -236h-158l173 236h212z" />
<glyph unicode="&#x342;" d="M262 1211v61l13 136q22 196 168 196q75 0 145 -67l136 -126q37 -36 63 -36q36 0 43 60l17 169h132v-61l-14 -137q-21 -195 -168 -195q-70 0 -139 64l-137 129q-39 36 -68 36q-36 0 -42 -60l-18 -169h-131z" />
<glyph unicode="&#x343;" d="M808 1441q0 -139 -188 -235h-180v28q205 100 205 182t-142 82h-63v137q57 15 114 15q112 0 183 -57.5t71 -151.5z" />
<glyph unicode="&#x344;" d="M956 1337q0 -44 -31 -77.5t-81 -33.5q-48 0 -79.5 33.5t-31.5 77.5q0 45 31.5 78t79.5 33q50 0 81 -33t31 -78zM491 1337q0 -44 -31.5 -77.5t-80.5 -33.5t-80 33.5t-31 77.5q0 45 31 78t80 33t80.5 -33t31.5 -78zM907 1625l-232 -177h-173l174 177h231z" />
<glyph unicode="&#x345;" d="M403 -149q0 -42 15.5 -65t47.5 -23q38 0 64 39l97 -82q-60 -82 -161 -82q-107 0 -157 56.5t-50 147.5v77h144v-68z" />
<glyph unicode="&#x346;" d="M849 1420h-452v-159h-120v265h692v-265h-120v159z" />
<glyph unicode="&#x347;" d="M604 -353h-562v103h562v-103zM634 -184h-563v103h563v-103z" />
<glyph unicode="&#x348;" d="M267 -68v-285h-143v285h143zM553 -68v-285h-143v285h143z" />
<glyph unicode="&#x349;" d="M91 -101h336v-250h-129v143h-207v107z" />
<glyph unicode="&#x34a;" d="M671 1547l82 -49l-57 -92q28 -14 57 -14q62 0 121 106l100 -59q-78 -189 -230 -189q-61 0 -118 40l-57 -94l-81 48l60 99q-33 20 -57 20q-62 0 -141 -107l-84 70q101 181 234 181q56 0 118 -48z" />
<glyph unicode="&#x34b;" d="M973 1439q-97 -181 -230 -181q-58 0 -130.5 57.5t-113.5 57.5q-71 0 -150 -117l-84 70q101 171 234 171q58 0 130.5 -57.5t113.5 -57.5q71 0 130 116zM808 1485q0 -28 -18.5 -45.5t-45.5 -17.5t-45.5 17.5t-18.5 45.5t18.5 45.5t45.5 17.5t45.5 -17.5t18.5 -45.5z M562 1270q0 -28 -18 -45.5t-46 -17.5q-27 0 -45 17.5t-18 45.5t18 45.5t45 17.5q28 0 46 -17.5t18 -45.5z" />
<glyph unicode="&#x34c;" d="M901 1459q-74 -93 -144 -93q-49 0 -133 47q-81 46 -143 46q-69 0 -144 -72v99q75 62 144 62q87 0 168 -46q84 -47 108 -47q70 0 116 93h28v-89zM337 1300q75 93 144 93q48 0 130 -45q84 -48 146 -48q70 0 144 72v-99q-74 -62 -144 -62q-88 0 -172 48q-81 45 -104 45 q-69 0 -116 -93h-28v89z" />
<glyph unicode="&#x34d;" d="M509 -362v95h-344v-95l-243 144l243 144v-96h344v96l244 -144z" />
<glyph unicode="&#x34e;" d="M585 -235h-182v-118h-135v118h-183l250 187z" />
<glyph unicode="&#x34f;" />
<glyph unicode="&#x350;" d="M466 1443v105l341 -131v-56l-341 -130v105l173 53z" />
<glyph unicode="&#x351;" d="M603 1389l174 -53v-105l-341 130v56l341 131v-105z" />
<glyph unicode="&#x352;" d="M891 1325q-137 122 -269 122q-135 0 -268 -122v119q115 104 268 104t269 -104v-119zM696 1290q0 -38 -24.5 -60.5t-67.5 -22.5q-44 0 -68.5 22.5t-24.5 60.5q0 37 24.5 59.5t68.5 22.5q43 0 67.5 -22.5t24.5 -59.5z" />
<glyph unicode="&#x353;" d="M323 -202l-127 83l56 77l149 -100l149 100l56 -77l-127 -83l127 -83l-56 -77l-149 100l-149 -100l-56 77z" />
<glyph unicode="&#x354;" d="M321 -204l174 -53v-105l-341 130v56l341 131v-105z" />
<glyph unicode="&#x355;" d="M185 -150v105l341 -131v-56l-341 -130v105l173 53z" />
<glyph unicode="&#x356;" d="M48 -150v105l295 -112v-92l-295 -113v105l174 53zM489 -353h-105l113 295h91l113 -295h-105l-53 174z" />
<glyph unicode="&#x357;" d="M475 1397q0 -65 -55 -107t-158 -42q-34 0 -66 5v79q32 -3 46 -3q57 0 80.5 19.5t23.5 48.5t-23.5 49t-80.5 20q-14 0 -46 -3v79q32 5 66 5q103 0 158 -42t55 -108z" />
<glyph unicode="&#x358;" d="M1131 1396q0 -54 -38.5 -92.5t-92.5 -38.5t-92.5 38.5t-38.5 92.5q0 55 38.5 92.5t92.5 37.5t92.5 -37.5t38.5 -92.5z" />
<glyph unicode="&#x359;" d="M341 -278l-55 -84l-69 49l61 80l-115 34l26 80l112 -40l-3 101h86l-4 -101l112 40l26 -80l-114 -34l61 -80l-69 -49z" />
<glyph unicode="&#x35a;" d="M683 -213q0 -65 -55 -107t-139 -42q-95 0 -149 55q-54 -55 -149 -55q-84 0 -139 42t-55 107q0 66 55 108t139 42q95 0 149 -54q54 54 149 54q84 0 139 -42t55 -108zM127 -213q0 -29 20.5 -48.5t53.5 -19.5t53.5 19.5t20.5 48.5q0 30 -20.5 49.5t-53.5 19.5t-53.5 -19.5 t-20.5 -49.5zM554 -213q0 30 -21 49.5t-54 19.5t-53.5 -19.5t-20.5 -49.5q0 -29 20.5 -48.5t53.5 -19.5t54 19.5t21 48.5z" />
<glyph unicode="&#x35b;" d="M664 1312l-295 33l105 181h145l-46 -91l294 -33l-105 -182h-145z" />
<glyph unicode="&#x35c;" d="M862 -228q482 0 754 165l68 -95q-282 -204 -822 -204q-542 0 -824 204l67 95q273 -165 757 -165z" />
<glyph unicode="&#x35d;" d="M1146 1382q482 0 754 166l68 -96q-282 -204 -822 -204q-542 0 -824 204l67 96q273 -166 757 -166z" />
<glyph unicode="&#x35e;" d="M1934 1548v-125h-1569v125h1569z" />
<glyph unicode="&#x35f;" d="M1621 -228v-125h-1569v125h1569z" />
<glyph unicode="&#x360;" d="M697 1413q-211 0 -297 -136l-87 57q111 214 384 214q94 0 229 -28l465 -89q102 -20 184 -20q211 0 297 137l87 -57q-111 -214 -384 -214q-94 0 -229 26l-465 91q-102 19 -184 19z" />
<glyph unicode="&#x361;" d="M1126 1413q-484 0 -756 -165l-68 96q282 204 824 204q540 0 822 -204l-67 -96q-273 165 -755 165z" />
<glyph unicode="&#x362;" d="M1335 -362v86h-1296v116h1296v86l243 -144z" />
<glyph unicode="&#x37e;" d="M602 150q0 -185 -263 -503h-189q169 191 239 353q-72 3 -126 55.5t-54 130.5q0 87 51.5 142.5t134.5 55.5q94 0 150.5 -64.5t56.5 -169.5zM749 956q0 -78 -56.5 -137t-141.5 -59q-86 0 -141 59t-55 137t55 137.5t141 59.5q85 0 141.5 -60t56.5 -137z" />
<glyph unicode="&#x384;" d="M872 1640l-251 -434h-139l169 434h221z" />
<glyph unicode="&#x385;" d="M864 1640l-310 -434h-129l237 434h202zM352 1301q0 -47 -30 -75t-73 -28q-42 0 -72 28t-30 75q0 48 30 76t72 28q43 0 73 -28t30 -76zM972 1301q0 -47 -30 -75t-73 -28q-42 0 -72 28t-30 75q0 48 30 76t72 28q43 0 73 -28t30 -76z" />
<glyph unicode="&#x386;" d="M608 1830l-251 -434h-139l169 434h221zM757 1285q56 -653 56 -886q0 -222 -8 -314l-6 -85h-170q14 153 14 357h-421q-78 -213 -78 -357h-170q0 217 155 566l322 719h306zM598 1256l-317 -754h363q0 150 -18 374z" />
<glyph unicode="&#x387;" d="M701 725q0 -78 -56.5 -137t-141.5 -59q-86 0 -140.5 59t-54.5 137t54.5 138t140.5 60q85 0 141.5 -60.5t56.5 -137.5z" />
<glyph unicode="&#x388;" d="M695 1830l-251 -434h-139l169 434h221zM96 236l184 1049h690v-145h-545l-55 -309h381v-145h-406l-96 -541h520v-145h-697q0 106 24 236z" />
<glyph unicode="&#x389;" d="M655 1830l-251 -434h-139l169 434h221zM744 0h-170l121 686h-395l-120 -686h-170l226 1285h170l-80 -454h394l80 454h170z" />
<glyph unicode="&#x38a;" d="M742 1830l-251 -434h-139l169 434h221zM724 0h-653v145h245l176 995h-190v145h550v-145h-189l-176 -995h237v-145z" />
<glyph unicode="&#x38c;" d="M655 1830l-251 -434h-139l169 434h221zM86 482l91 514q28 163 112 235.5t231 72.5h134q127 0 200 -68.5t73 -192.5q0 -38 -7 -86l-91 -514q-44 -251 -158 -356.5t-278 -105.5q-162 0 -242 103t-80 250q0 67 15 148zM254 463q-14 -74 -14 -137q1 -90 42 -140.5t127 -50.5 q94 0 156.5 70t96.5 258l92 523q4 22 4 44q0 120 -142 120h-96q-145 0 -170 -144z" />
<glyph unicode="&#x38e;" d="M616 1830l-251 -434h-139l169 434h221zM461 0h-169l95 548l-98 200q-105 260 -105 537h162q0 -238 82 -448l63 -146l132 168q153 196 217 426h176q-72 -271 -273 -515l-187 -222z" />
<glyph unicode="&#x38f;" d="M655 1830l-251 -434h-139l169 434h221zM920 957l-66 -374q-60 -337 -267 -433h189v-150h-329l38 214q150 95 193 340l76 432q4 22 4 44q0 120 -142 120h-96q-145 0 -170 -144l-80 -452q-11 -66 -11 -121q0 -151 85 -219l-38 -214h-303v150h215q-122 99 -122 310 q0 76 15 162l66 374q28 163 112 235.5t231 72.5h134q127 0 200 -68.5t73 -192.5q0 -38 -7 -86z" />
<glyph unicode="&#x390;" d="M545 1132q0 -106 -23 -236l-99 -563q-6 -32 -6 -59q0 -72 35 -107.5t94 -35.5q109 0 186 126l127 -99q-130 -177 -319 -177q-135 0 -214 77t-79 206q0 42 9 91l110 625h-220v152h399zM816 1737l-310 -434h-129l237 434h202zM304 1398q0 -47 -30 -75t-73 -28q-42 0 -72 28 t-30 75q0 48 30 76t72 28q43 0 73 -28t30 -76zM924 1398q0 -47 -30 -75t-73 -28q-42 0 -72 28t-30 75q0 48 30 76t72 28q43 0 73 -28t30 -76z" />
<glyph unicode="&#x391;" d="M281 502h363q-1 169 -7.5 366t-19.5 427zM751 1526q30 -332 46 -613t16 -514q0 -222 -14 -399h-170q13 153 14 357h-421q-78 -213 -78 -357h-170q0 217 155 566l430 960h192z" />
<glyph unicode="&#x392;" d="M219 145h133q207 0 269.5 145t62.5 276q0 88 -48 135t-146 47h-164zM351 893h129q138 0 209.5 103.5t71.5 228.5q0 77 -46.5 116.5t-150.5 39.5h-126zM293 1526h286q188 0 271.5 -90.5t83.5 -216.5q0 -139 -59.5 -243t-187.5 -156q169 -68 169 -271q0 -218 -115 -383.5 t-404 -165.5h-294q0 106 23 236z" />
<glyph unicode="&#x393;" d="M1030 1376h-524l-242 -1376h-171l268 1526h669v-150z" />
<glyph unicode="&#x394;" d="M1 68q0 189 250 769l299 689h191l48 -728q41 -513 5 -713l-14 -85h-779v68zM598 1256l-217 -514q-157 -371 -209 -590h461q18 181 -5 557z" />
<glyph unicode="&#x395;" d="M86 236l227 1290h689v-145h-544l-88 -494h380v-145h-405l-106 -597h520v-145h-697q0 106 24 236z" />
<glyph unicode="&#x396;" d="M729 1174q94 124 94 207h-525v145h694v-116q0 -160 -142 -348l-529 -711q-93 -127 -93 -206h544v-145h-713v116q0 157 141 348l529 710v0z" />
<glyph unicode="&#x397;" d="M744 0h-170l134 763h-394l-134 -763h-170l268 1526h170l-109 -618h394l109 618h170z" />
<glyph unicode="&#x398;" d="M658 754h-273v141h273v-141zM254 463q-8 -40 -10.5 -74t-2.5 -63q0 -81 26 -121q46 -70 142 -70q94 0 157 70q62 70 96 258l106 602q13 80 13 134q0 81 -28 123q-47 71 -142 71t-157 -70q-60 -68 -94 -258zM193 1085q46 252 157 356q115 107 280 107q167 0 258 -126 q62 -85 62 -226q0 -69 -15 -150l-106 -603q-44 -251 -158 -356q-57 -52 -125.5 -79t-152.5 -27q-167 0 -259 125q-63 86 -63 228q0 67 15 148z" />
<glyph unicode="&#x399;" d="M724 0h-653v145h245l218 1236h-187v145h549v-145h-191l-218 -1236h237v-145z" />
<glyph unicode="&#x39a;" d="M497 1526l-128 -722l270 309q220 253 263 413h170q-56 -207 -340 -526l-132 -150l138 -313q122 -279 122 -537h-169q0 269 -118 537l-83 189l-165 -176l-97 -550h-170l269 1526h170z" />
<glyph unicode="&#x39b;" d="M749 1526q92 -980 48 -1526h-170q36 434 -12 1295l-237 -567q-208 -500 -236 -728h-170q31 247 277 823l308 703h192z" />
<glyph unicode="&#x39c;" d="M1017 1526q0 -106 -23 -235l-227 -1291h-170l69 393q68 387 189 905l-308 -631h-107l-85 631q-61 -518 -130 -905l-69 -393h-170l269 1526h170l108 -634l333 634h151z" />
<glyph unicode="&#x39d;" d="M748 0h-157l72 488l-286 821q-44 -463 -100 -780l-93 -529h-170l268 1526h170l287 -827q44 463 99 780l8 47h170z" />
<glyph unicode="&#x39e;" d="M810 874v-151h-584v151h584zM771 0h-761v152h761v-152zM252 1526h761v-150h-761v150z" />
<glyph unicode="&#x39f;" d="M254 463q-8 -40 -10.5 -74t-2.5 -63q0 -81 26 -121q46 -70 142 -70q94 0 157 70q62 70 96 258l106 602q13 80 13 134q0 81 -28 123q-47 71 -142 71t-157 -70q-60 -68 -94 -258zM193 1085q46 252 157 356q115 107 280 107q167 0 258 -126q62 -85 62 -226q0 -69 -15 -150 l-106 -603q-44 -251 -158 -356q-57 -52 -125.5 -79t-152.5 -27q-167 0 -259 125q-63 86 -63 228q0 67 15 148z" />
<glyph unicode="&#x3a0;" d="M988 1526q0 -106 -23 -235l-227 -1291h-171l243 1376h-381l-243 -1376h-171l269 1526h704z" />
<glyph unicode="&#x3a1;" d="M383 838h171q162 0 224 114.5t62 254.5q0 94 -52.5 134t-156.5 40h-152zM236 0h-170l269 1526h312q185 0 275 -95t90 -240q0 -206 -121.5 -352t-351.5 -146h-181z" />
<glyph unicode="&#x3a3;" d="M543 801l-175 291q-73 131 -73 304v130h721v-151h-555q0 -117 59 -221l211 -354v-35l-413 -459q-82 -86 -82 -154h548v-152h-716v87q0 189 136 335z" />
<glyph unicode="&#x3a4;" d="M1021 1381h-316l-243 -1381h-170l243 1381h-312v145h798v-145z" />
<glyph unicode="&#x3a5;" d="M462 0h-170l114 650l-93 308q-104 344 -104 568h170q0 -248 84 -527l51 -169l209 305q160 233 160 391h170q0 -184 -205 -483l-272 -393z" />
<glyph unicode="&#x3a6;" d="M680 1405q252 -58 252 -358q0 -38 -4.5 -79t-11.5 -87l-49 -274q-80 -452 -413 -485l-21 -122h-112l21 122q-253 58 -253 357q0 38 4.5 79t11.5 87l49 275q80 452 414 485l21 121h112zM541 1251q-179 -9 -229 -299l-64 -361q-11 -66 -11 -119q0 -176 132 -197zM653 1251 l-172 -976q178 7 229 298l64 361q11 67 11 119q0 177 -132 198z" />
<glyph unicode="&#x3a7;" d="M-34 0q0 211 220 497l233 306l-76 166q-115 248 -115 557h170q0 -309 84 -491l44 -95l176 230q181 235 181 356h170q0 -154 -229 -453l-224 -292l73 -160q131 -283 131 -621h-170q0 338 -97 548l-43 92l-186 -239q-172 -223 -172 -401h-170z" />
<glyph unicode="&#x3a8;" d="M583 1526h122l-179 -1017q176 38 213 250l136 767h162l-130 -733q-69 -390 -409 -440l-61 -353h-122l62 353q-314 88 -246 479l123 694h160l-132 -747q-37 -213 122 -270z" />
<glyph unicode="&#x3a9;" d="M611 1393q-95 0 -157 -70q-60 -68 -94 -258l-90 -511q-11 -66 -11 -121q0 -151 85 -219l-38 -214h-303v150h215q-122 99 -122 310q0 76 15 162l82 463q46 252 157 356q115 107 280 107q167 0 258 -126q62 -85 62 -226q0 -69 -15 -150l-81 -463q-60 -337 -267 -433h189 v-150h-329l38 214q150 95 193 340l90 511q13 80 13 134q0 81 -28 123q-47 71 -142 71z" />
<glyph unicode="&#x3aa;" d="M923 1773q0 -45 -32 -78.5t-80 -33.5q-47 0 -78.5 33.5t-31.5 78.5t31.5 77.5t78.5 32.5q48 0 80 -32.5t32 -77.5zM550 1773q0 -45 -32 -78.5t-79 -33.5q-48 0 -80 33.5t-32 78.5t32 77.5t80 32.5q47 0 79 -32.5t32 -77.5zM724 0h-653v145h245l203 1149h-188v145h550 v-145h-191l-203 -1149h237v-145z" />
<glyph unicode="&#x3ab;" d="M923 1773q0 -45 -32 -78.5t-80 -33.5q-47 0 -78.5 33.5t-31.5 78.5t31.5 77.5t78.5 32.5q48 0 80 -32.5t32 -77.5zM550 1773q0 -45 -32 -78.5t-79 -33.5q-48 0 -80 33.5t-32 78.5t32 77.5t80 32.5q47 0 79 -32.5t32 -77.5zM462 0h-170l98 563l-92 308q-105 344 -105 568 h170q0 -248 84 -527l51 -169l209 305q160 233 160 391h170q0 -184 -204 -483l-273 -393z" />
<glyph unicode="&#x3ac;" d="M107 695q47 259 152 358.5t231 99.5q217 0 291 -286l87 265h169q-122 -310 -165 -502.5t-43 -407.5q0 -104 9 -221h-169l6 267q-135 -287 -353 -287q-49 0 -97 19.5t-86.5 60.5t-62 104t-23.5 149q0 37 4.5 77.5t12.5 86.5zM236 459q-8 -44 -12 -81t-4 -68 q0 -48 10.5 -81.5t29 -55t44 -31.5t56.5 -10q172 0 329 448q-22 422 -194 422q-81 0 -132.5 -59.5t-85.5 -247.5zM988 1737l-251 -434h-139l169 434h221z" />
<glyph unicode="&#x3ad;" d="M843 191q-159 -210 -427 -210q-177 0 -270 95t-93 219q0 122 68 201t183 102q-128 75 -128 209q0 149 116.5 247.5t291.5 98.5q237 0 361 -216l-135 -82q-66 147 -242 147q-99 0 -161.5 -52t-62.5 -136q0 -79 55 -119t127 -40h81v-152h-127q-123 0 -189.5 -47.5 t-66.5 -151.5q0 -82 54 -127.5t156 -45.5q187 0 286 156zM969 1737l-251 -434h-139l169 434h221z" />
<glyph unicode="&#x3ae;" d="M686 -353h-170l192 1087q5 28 7.5 52t2.5 47q0 69 -25 105q-41 58 -121 58q-168 0 -256 -249l-131 -747h-171l199 1132h171l-23 -125q116 146 271 146q126 0 205 -103q52 -70 52 -191q0 -63 -13 -135zM959 1737l-251 -434h-139l169 434h221z" />
<glyph unicode="&#x3af;" d="M545 1132q0 -106 -23 -236l-99 -563q-6 -32 -6 -59q0 -72 35 -107.5t94 -35.5q109 0 186 126l127 -99q-130 -177 -319 -177q-135 0 -214 77t-79 206q0 42 9 91l110 625h-220v152h399zM862 1737l-251 -434h-139l169 434h221z" />
<glyph unicode="&#x3b0;" d="M392 -19q-144 0 -232.5 92t-88.5 246q0 62 12 130l121 683h170l-128 -725q-8 -50 -8 -89q0 -92 51.5 -139t120.5 -47q83 0 148.5 63.5t98.5 249.5q55 314 55 687h170q0 -375 -56 -692q-45 -251 -162.5 -355t-271.5 -104zM864 1737l-310 -434h-129l237 434h202zM352 1398 q0 -47 -30 -75t-73 -28q-42 0 -72 28t-30 75q0 48 30 76t72 28q43 0 73 -28t30 -76zM972 1398q0 -47 -30 -75t-73 -28q-42 0 -72 28t-30 75q0 48 30 76t72 28q43 0 73 -28t30 -76z" />
<glyph unicode="&#x3b1;" d="M107 695q47 259 152 358.5t231 99.5q217 0 291 -286l87 265h169q-122 -310 -165 -502.5t-43 -407.5q0 -104 9 -221h-169l6 267q-135 -287 -353 -287q-49 0 -97 19.5t-86.5 60.5t-62 104t-23.5 149q0 37 4.5 77.5t12.5 86.5zM236 459q-8 -44 -12 -81t-4 -68 q0 -48 10.5 -81.5t29 -55t44 -31.5t56.5 -10q172 0 329 448q-22 422 -194 422q-81 0 -132.5 -59.5t-85.5 -247.5z" />
<glyph unicode="&#x3b2;" d="M865 386q-36 -203 -153.5 -304t-299.5 -101q-94 0 -196 35l-64 -369h-171l268 1524q31 175 129 276t261 101q141 0 225.5 -89t84.5 -223q1 -39 -16 -135q-19 -109 -88.5 -182t-148.5 -96q97 -30 143 -96t46 -172q0 -54 -12 -117zM242 164q93 -32 186 -32q112 0 176 55 t91 207l10 56q9 47 9 89q0 99 -54 151t-153 52h-10v152h46q73 0 137.5 55t82.5 158q17 84 17 123q0 80 -45 123.5t-114 43.5q-73 0 -126 -50t-76 -183z" />
<glyph unicode="&#x3b3;" d="M216 -353l63 353l-92 592q-31 207 -31 459v81h171v-81q0 -252 20 -435l56 -437l79 92q213 271 279 592l54 269h170l-54 -269q-75 -372 -337 -684l-144 -172l-64 -360h-170z" />
<glyph unicode="&#x3b4;" d="M1004 1375h-563q0 -50 48 -106l234 -273q140 -163 140 -386q0 -59 -13 -140q-45 -259 -162.5 -374t-285.5 -115q-143 0 -232.5 97.5t-89.5 273.5q0 215 95.5 391.5t290.5 313.5l-83 92q-100 111 -100 264v113h721v-151zM564 951q-155 -104 -235.5 -257t-80.5 -342 q0 -108 48.5 -162.5t122.5 -54.5q93 0 160 72t103 273q12 67 12 128q0 202 -130 343z" />
<glyph unicode="&#x3b5;" d="M843 191q-159 -210 -427 -210q-177 0 -270 95t-93 219q0 122 68 201t183 102q-128 75 -128 209q0 149 116.5 247.5t291.5 98.5q237 0 361 -216l-135 -82q-66 147 -242 147q-99 0 -161.5 -52t-62.5 -136q0 -79 55 -119t127 -40h81v-152h-127q-123 0 -189.5 -47.5 t-66.5 -151.5q0 -82 54 -127.5t156 -45.5q187 0 286 156z" />
<glyph unicode="&#x3b6;" d="M384 -12q-292 75 -292 350q0 175 91 341.5t262 317.5l328 288q70 59 70 90h-538v151h719v-64q0 -163 -175 -313l-274 -243q-151 -133 -230 -266.5t-79 -273.5q0 -189 196 -240q279 -73 279 -339q0 -62 -17 -140h-170q13 61 13 109q0 184 -183 232z" />
<glyph unicode="&#x3b7;" d="M686 -353h-170l192 1087q5 28 7.5 52t2.5 47q0 69 -25 105q-41 58 -121 58q-168 0 -256 -249l-131 -747h-171l199 1132h171l-23 -125q116 146 271 146q126 0 205 -103q52 -70 52 -191q0 -63 -13 -135z" />
<glyph unicode="&#x3b8;" d="M216 1215q46 252 157 357q115 106 280 106q167 0 258 -126q62 -85 62 -226q0 -68 -15 -149l-129 -734q-44 -251 -158 -356q-57 -52 -125.5 -79t-152.5 -27q-167 0 -259 125q-63 86 -63 228q0 67 15 148zM791 1196q14 79 14 133q0 81 -28 124q-48 70 -142 70 q-96 0 -158 -69q-60 -69 -93 -258l-53 -294h408v-2zM254 463q-8 -40 -10.5 -74t-2.5 -63q0 -81 26 -121q46 -70 142 -70q94 0 157 70q62 70 96 258l50 287h-407v3z" />
<glyph unicode="&#x3b9;" d="M584 1132q0 -106 -23 -236l-99 -563q-6 -32 -6 -59q0 -72 35 -107.5t94 -35.5q109 0 186 126l127 -99q-130 -177 -319 -177q-135 0 -214 77t-79 206q0 42 9 91l110 625h-220v152h399z" />
<glyph unicode="&#x3ba;" d="M802 0h-170q0 205 -83 354l-94 167l-176 -146l-66 -375h-170l199 1132h170l-94 -539l250 208q223 184 233 331h170q-13 -193 -302 -433l-96 -80l109 -195q120 -212 120 -424z" />
<glyph unicode="&#x3bb;" d="M425 1284q-16 97 -119 97h-31v145h78q190 0 222 -196l185 -1117q12 -68 78 -68v-145h-49q-151 0 -185 202l-94 565l-215 -417q-104 -200 -129 -303l-10 -47h-170l8 51q29 120 158 357l320 593z" />
<glyph unicode="&#x3bc;" d="M749 0h-170l18 108q-112 -127 -247 -127q-110 0 -166 73l-72 -407h-170l262 1485h170l-133 -757q-8 -47 -8 -81q0 -66 26 -104q40 -58 121 -58q139 0 248 148l150 852h170z" />
<glyph unicode="&#x3bd;" d="M445 0h-166l-92 592q-31 207 -31 459v81h171v-81q0 -252 20 -435l56 -437l79 92q213 271 279 592l54 269h170l-54 -269q-75 -372 -337 -684z" />
<glyph unicode="&#x3be;" d="M395 -12q-313 79 -313 350q0 136 70 238t206 153q-120 76 -120 218q0 162 115 271t301 157h-349v151h722v-151q-310 -57 -463 -163.5t-153 -253.5q0 -71 40.5 -115.5t148.5 -44.5h262v-152h-308q-142 0 -222.5 -85t-80.5 -217q0 -164 192 -213q304 -77 304 -296 q0 -83 -31 -188h-162q33 87 33 152q0 142 -192 189z" />
<glyph unicode="&#x3bf;" d="M543 999q-92 0 -160 -77q-69 -78 -104 -278q-41 -212 -41 -301q0 -87 29 -131q50 -77 143 -77q91 0 160 78q69 77 103 277q42 212 42 301q0 87 -29 132q-50 76 -143 76zM392 -19q-168 0 -261 134q-61 91 -61 236q0 94 43 313q23 130 63 223t99 151q118 115 285 115 q168 0 261 -134q62 -91 62 -236q0 -94 -44 -313q-23 -130 -63 -223t-99 -151q-118 -115 -285 -115z" />
<glyph unicode="&#x3c0;" d="M992 981h-154l-135 -766q-2 -11 -2 -21q0 -39 34 -39h84v-155h-111q-180 0 -180 165q0 29 7 70l133 746h-247l-173 -981h-171l173 981h-119v151h861v-151z" />
<glyph unicode="&#x3c1;" d="M845 442q-43 -249 -149 -353.5t-242 -104.5q-155 0 -244 109l-79 -446h-170l185 1046q45 259 162.5 359.5t271.5 100.5q126 0 221.5 -87t95.5 -261q0 -68 -14 -149zM675 441l50 284q9 48 9 88q0 94 -51.5 141.5t-120.5 47.5q-83 0 -147 -55t-90 -202l-91 -520 q84 -89 196 -89q99 0 156 62.5t89 242.5z" />
<glyph unicode="&#x3c2;" d="M527 -353q31 87 31 152q0 142 -192 189q-306 77 -306 364q0 219 134 510t412 291q222 0 335 -209l-135 -84q-69 141 -218 141q-167 0 -261.5 -229t-94.5 -398q0 -197 202 -247q284 -73 284 -293q0 -84 -29 -187h-162z" />
<glyph unicode="&#x3c3;" d="M810 980q31 -88 31 -200q0 -78 -14 -165l-31 -175q-46 -259 -158 -359t-265 -100q-132 0 -220 87.5t-88 254.5q0 69 14 155l34 195q42 231 175.5 345t339.5 114h346v-152h-164zM616 387l50 281q13 76 13 136q0 109 -41 176h-33q-128 0 -210.5 -73t-112.5 -239l-45 -261 q-5 -25 -7.5 -48.5t-2.5 -43.5q0 -84 45.5 -133.5t117.5 -49.5q83 0 142 54.5t84 200.5z" />
<glyph unicode="&#x3c4;" d="M851 104q-115 -123 -269 -123q-124 0 -204 78t-80 205q0 42 9 91l110 625h-245v152h810v-152h-394l-114 -647q-5 -32 -5 -59q0 -72 34.5 -107.5t94.5 -35.5q90 0 152 77z" />
<glyph unicode="&#x3c5;" d="M392 -19q-144 0 -232.5 92t-88.5 246q0 62 12 130l121 683h170l-128 -725q-8 -50 -8 -89q0 -92 51.5 -139t120.5 -47q83 0 148.5 63.5t98.5 249.5q55 314 55 687h170q0 -375 -56 -692q-45 -251 -162.5 -355t-271.5 -104z" />
<glyph unicode="&#x3c6;" d="M457 141q181 17 233 317l34 199q10 55 15 101t5 83q0 152 -70 152q-66 0 -98 -179zM685 1148q101 0 154 -82t53 -225q0 -39 -6 -96.5t-17 -121.5l-26 -151q-40 -231 -143.5 -352t-269.5 -134l-60 -339h-112l60 339q-252 51 -252 353q0 40 3.5 82.5t12.5 89.5l39 218 q55 317 225 417l51 -135q-87 -57 -123 -267l-46 -267q-13 -68 -13 -127q0 -181 130 -209l128 728q50 279 212 279z" />
<glyph unicode="&#x3c7;" d="M112 980v152h44q172 0 211 -154l107 -430l160 218q142 195 174 325l9 41h170l-13 -56q-30 -146 -226 -412l-224 -309l125 -502q14 -54 102 -54h16v-152h-43q-171 0 -210 152l-101 405l-152 -212q-145 -197 -168 -291l-13 -54h-170l16 68q23 112 219 380l220 303l-133 528 q-15 54 -103 54h-17z" />
<glyph unicode="&#x3c8;" d="M588 1526h112l-244 -1388q213 33 257 275l126 719h152l-124 -700q-34 -197 -142.5 -307t-294.5 -134l-61 -343h-112l61 343q-293 36 -293 319q0 56 12 122l123 700h151l-131 -744q-7 -36 -7 -70q0 -164 171 -180z" />
<glyph unicode="&#x3c9;" d="M447 824h149l-95 -535q-6 -45 -6 -64q0 -101 83 -101q108 0 159 298.5t66 709.5h149q-18 -493 -87.5 -822t-294.5 -329q-135 0 -177 116q-63 -116 -188 -116q-91 0 -149 69.5t-58 189.5q0 39 5 85t14 100q56 316 183 707h149q-127 -392 -183 -707q-8 -45 -11.5 -83 t-3.5 -68q0 -78 24.5 -114t62.5 -36q86 0 112 146z" />
<glyph unicode="&#x3ca;" d="M545 1132q0 -106 -23 -236l-99 -563q-6 -32 -6 -59q0 -72 35 -107.5t94 -35.5q109 0 186 126l127 -99q-130 -177 -319 -177q-135 0 -214 77t-79 206q0 42 9 91l110 625h-220v152h399zM846 1416q0 -45 -32 -78.5t-80 -33.5q-47 0 -78.5 33.5t-31.5 78.5t31.5 77.5 t78.5 32.5q48 0 80 -32.5t32 -77.5zM473 1416q0 -45 -32 -78.5t-79 -33.5q-48 0 -80 33.5t-32 78.5t32 77.5t80 32.5q47 0 79 -32.5t32 -77.5z" />
<glyph unicode="&#x3cb;" d="M392 -19q-144 0 -232.5 92t-88.5 246q0 62 12 130l121 683h170l-128 -725q-8 -50 -8 -89q0 -92 51.5 -139t120.5 -47q83 0 148.5 63.5t98.5 249.5q55 314 55 687h170q0 -375 -56 -692q-45 -251 -162.5 -355t-271.5 -104zM923 1416q0 -45 -32 -78.5t-80 -33.5 q-47 0 -78.5 33.5t-31.5 78.5t31.5 77.5t78.5 32.5q48 0 80 -32.5t32 -77.5zM550 1416q0 -45 -32 -78.5t-79 -33.5q-48 0 -80 33.5t-32 78.5t32 77.5t80 32.5q47 0 79 -32.5t32 -77.5z" />
<glyph unicode="&#x3cc;" d="M543 999q-92 0 -160 -77q-69 -78 -104 -278q-41 -212 -41 -301q0 -87 29 -131q50 -77 143 -77q91 0 160 78q69 77 103 277q42 212 42 301q0 87 -29 132q-50 76 -143 76zM392 -19q-168 0 -261 134q-61 91 -61 236q0 94 43 313q23 130 63 223t99 151q118 115 285 115 q168 0 261 -134q62 -91 62 -236q0 -94 -44 -313q-23 -130 -63 -223t-99 -151q-118 -115 -285 -115zM949 1737l-251 -434h-139l169 434h221z" />
<glyph unicode="&#x3cd;" d="M392 -19q-144 0 -232.5 92t-88.5 246q0 62 12 130l121 683h170l-128 -725q-8 -50 -8 -89q0 -92 51.5 -139t120.5 -47q83 0 148.5 63.5t98.5 249.5q55 314 55 687h170q0 -375 -56 -692q-45 -251 -162.5 -355t-271.5 -104zM940 1737l-251 -434h-139l169 434h221z" />
<glyph unicode="&#x3ce;" d="M447 824h149l-95 -535q-6 -45 -6 -64q0 -101 83 -101q108 0 159 298.5t66 709.5h149q-18 -493 -87.5 -822t-294.5 -329q-135 0 -177 116q-63 -116 -188 -116q-91 0 -149 69.5t-58 189.5q0 39 5 85t14 100q56 316 183 707h149q-127 -392 -183 -707q-8 -45 -11.5 -83 t-3.5 -68q0 -78 24.5 -114t62.5 -36q86 0 112 146zM940 1737l-251 -434h-139l169 434h221z" />
<glyph unicode="&#x3d0;" d="M866 436q-46 -245 -158 -350t-282 -105q-149 0 -237 93t-88 253q0 61 14 138l123 693q35 206 138 297t257 91q139 0 225.5 -88t86.5 -239q0 -152 -73.5 -261t-188.5 -138q191 -80 191 -283q0 -42 -8 -101zM284 455q-6 -34 -9.5 -65t-3.5 -57q0 -100 45 -149t118 -49 q101 0 163 69t95 251q8 50 8 92q0 95 -59 148t-158 53v145h43q107 0 175.5 99.5t68.5 226.5q0 85 -41 133.5t-116 48.5q-78 0 -129 -50.5t-78 -201.5z" />
<glyph unicode="&#x3d1;" d="M630 748q-178 0 -277.5 90t-99.5 242q0 196 99 331t268 135q130 0 195.5 -87.5t65.5 -247.5q0 -36 -3.5 -76t-10.5 -83l-29 -159h101v-145h-127l-51 -293q-42 -240 -148.5 -357t-283.5 -117q-144 0 -224 89t-80 248q0 37 4.5 78.5t12.5 87.5l9 56h176l-12 -66 q-7 -43 -11 -80.5t-4 -67.5q0 -99 38 -145t109 -46q97 0 156 79.5t89 250.5l50 283h-12zM697 1062q8 44 11 82.5t3 71.5q0 94 -27.5 139.5t-79.5 45.5q-80 0 -131 -90t-51 -217q0 -93 49 -147t146 -54h51z" />
<glyph unicode="&#x3d5;" d="M634 1145q252 -58 252 -358q0 -37 -4.5 -78t-12.5 -88l-26 -150q-80 -452 -413 -485l-59 -339h-112l59 339q-253 58 -253 358q0 38 4 79t12 87l26 150q80 452 415 485l66 381h112zM495 991q-179 -9 -229 -298l-42 -237q-11 -67 -11 -119q0 -177 132 -197zM607 991 l-150 -851q178 7 229 298l41 236q12 67 12 119q0 177 -132 198z" />
<glyph unicode="&#x3d6;" d="M99 1132h521q330 0 330 -296q-1 -54 -13 -118l-59 -332q-72 -405 -298 -405q-127 0 -177 116q-54 -116 -189 -116q-90 0 -152.5 69.5t-62.5 215.5q0 130 63 373.5t97 357.5h-60v135zM447 824h149l-95 -535q-6 -39 -6 -64q0 -101 83 -101q102 0 155 282l58 331q8 53 8 89 q0 171 -163 171h-329q-47 -156 -100.5 -378.5t-53.5 -338.5q0 -150 85 -156q86 0 112 146z" />
<glyph unicode="&#x3dc;" d="M1057 1381h-565l-87 -494h431v-305h-139l-19 160h-299l-130 -742h-170l269 1526h710z" />
<glyph unicode="&#x3dd;" d="M983 987h-565l-70 -394h438v-305h-139l-18 160h-307l-141 -801h-170l262 1485h710v-145z" />
<glyph unicode="&#x3f0;" d="M61 -19l-105 90q290 325 290 655q0 246 -127 267v157q291 0 291 -376q0 -88 -23 -214l504 590l106 -91q-291 -325 -291 -655q0 -247 128 -267v-156q-291 0 -291 375q0 88 22 214z" />
<glyph unicode="&#x3f1;" d="M848 452q-43 -239 -143 -338.5t-246 -100.5q-155 1 -245 104l-3 -21q-9 -49 -9 -87q0 -172 158 -194l336 -49v-119h-288l-109 19q-267 44 -267 322q0 56 12 130l102 575q45 259 158.5 359.5t267.5 100.5q137 0 231 -92.5t94 -255.5q0 -68 -14 -149zM680 470l37 205 q10 67 10 138q0 93 -46 141t-119 48q-83 0 -147 -55t-90 -202l-86 -491q86 -89 197 -89q99 0 155.5 62.5t88.5 242.5z" />
<glyph unicode="&#x3f5;" d="M837 188q-168 -207 -409 -207q-154 0 -246 102t-92 272q0 61 15 161l24 140q48 267 170.5 382t296.5 115q223 0 335 -209l-136 -82q-67 137 -207 137q-108 0 -178 -66t-110 -279h512v-151h-539q-15 -90 -15 -152q0 -113 55 -164.5t142 -51.5q140 0 244 141z" />
<glyph unicode="&#x400;" d="M776 1647h-158l-227 236h212zM96 236l211 1203h690v-145h-545l-80 -456h381v-144h-406l-98 -549h520v-145h-697q0 106 24 236z" />
<glyph unicode="&#x401;" d="M962 1773q0 -45 -32 -78.5t-80 -33.5q-47 0 -78.5 33.5t-31.5 78.5t31.5 77.5t78.5 32.5q48 0 80 -32.5t32 -77.5zM589 1773q0 -45 -32 -78.5t-79 -33.5q-48 0 -80 33.5t-32 78.5t32 77.5t80 32.5q47 0 79 -32.5t32 -77.5zM96 236l211 1203h690v-145h-545l-80 -456h381 v-144h-406l-98 -549h520v-145h-697q0 106 24 236z" />
<glyph unicode="&#x402;" d="M889 857q0 -57 -14 -134l-116 -661q-41 -238 -117 -329q-73 -86 -221 -86h-60v142h46q135 0 170 200l130 743q12 66 12 109q0 155 -128 155q-101 0 -184 -118l-155 -878h-170l243 1376h-199v150h595v-150h-226l-63 -355q93 128 218 128q165 0 220 -159q19 -52 19 -133z " />
<glyph unicode="&#x403;" d="M1014 1289h-523l-227 -1289h-171l253 1439h668v-150zM1008 1883l-227 -236h-158l173 236h212z" />
<glyph unicode="&#x404;" d="M1031 1300l-155 -84q-54 177 -217 177q-97 0 -166 -69q-67 -64 -111 -297l-29 -153h381v-151h-408q-54 -301 -54 -384q0 -204 184 -204q163 0 272 185l123 -94q-167 -245 -411 -245q-161 0 -251 99q-86 95 -86 257q0 107 110 709q43 231 135 351q116 151 327 151 q257 0 356 -248z" />
<glyph unicode="&#x405;" d="M10 232l142 95q75 -192 270 -192q107 0 178.5 72.5t71.5 176.5q0 89 -106 208l-221 246q-111 124 -111 267q0 186 112 314.5t317 128.5q229 0 353 -209l-149 -103q-65 157 -221 157q-113 0 -176 -75t-63 -188q0 -93 81 -182l220 -245q137 -152 137 -295q0 -171 -114 -299 t-325 -128q-289 0 -396 251z" />
<glyph unicode="&#x406;" d="M724 0h-653v145h245l218 1236h-187v145h549v-145h-191l-218 -1236h237v-145z" />
<glyph unicode="&#x407;" d="M923 1773q0 -45 -32 -78.5t-80 -33.5q-47 0 -78.5 33.5t-31.5 78.5t31.5 77.5t78.5 32.5q48 0 80 -32.5t32 -77.5zM550 1773q0 -45 -32 -78.5t-79 -33.5q-48 0 -80 33.5t-32 78.5t32 77.5t80 32.5q47 0 79 -32.5t32 -77.5zM724 0h-653v145h245l203 1149h-188v145h550 v-145h-191l-203 -1149h237v-145z" />
<glyph unicode="&#x408;" d="M775 440q-43 -247 -157 -354q-112 -105 -267 -105q-145 0 -241 124q-66 84 -66 228q0 34 3.5 70t10.5 75l35 204h170l-39 -224q-7 -37 -10 -68.5t-3 -59.5q0 -84 29 -125q49 -70 128 -70q88 0 148 70q59 70 91 253l189 1068h171z" />
<glyph unicode="&#x409;" d="M769 635q0 157 -118 157h-37l-113 -641h55q90 0 134 82q25 48 45 163l23 131q11 61 11 108zM725 1526q0 -106 -23 -235l-61 -348h27q136 0 205 -115q47 -78 47 -191q0 -55 -12 -119l-23 -132q-29 -163 -104 -262q-91 -124 -240 -124h-216l241 1375h-139l-178 -876 q-101 -499 -322 -499h-51v151h27q128 0 199 347l212 1028h411z" />
<glyph unicode="&#x40a;" d="M908 637q0 -55 -12 -119l-23 -132q-29 -163 -103 -262q-92 -124 -241 -124h-226l139 792h-190l-139 -792h-151l269 1526h151l-103 -583h190l103 583h151l-103 -583h37q135 0 205 -115q46 -78 46 -191zM757 635q0 157 -118 157h-46l-113 -640h65q90 0 133 81q25 47 46 163 l23 131q10 61 10 108z" />
<glyph unicode="&#x40b;" d="M889 866q0 -64 -14 -143l-126 -723h-170l128 732q12 64 12 111q0 153 -128 153q-101 0 -184 -118l-155 -878h-170l243 1376h-199v150h595v-150h-226l-63 -355q93 128 218 128q127 0 195 -104q44 -65 44 -179z" />
<glyph unicode="&#x40c;" d="M1033 1883l-227 -236h-158l173 236h212zM481 1439l-127 -722l254 276q261 283 279 446h170q-20 -193 -356 -552l-114 -130l136 -307q121 -279 137 -450h-169q-16 182 -134 450l-83 189l-165 -176l-81 -463h-170l253 1439h170z" />
<glyph unicode="&#x40d;" d="M718 1647h-158l-227 236h212zM1001 1439l-253 -1439h-170l53 306q51 291 198 877l-654 -1183h-152q0 106 23 236l212 1203h170l-54 -306q-67 -378 -197 -877l654 1183h170z" />
<glyph unicode="&#x40e;" d="M684 1632q-345 0 -354 251h158q3 -144 196 -144t196 144h159q-10 -251 -355 -251zM224 246l155 271l-131 520q-51 203 -38 315l10 87h170l-9 -81q-11 -87 31 -268l87 -368l216 364q118 200 135 272l19 81h170l-21 -87q-21 -93 -149 -307l-485 -812q-46 -76 -71 -184 l-11 -49h-170l11 49q22 93 81 197z" />
<glyph unicode="&#x40f;" d="M34 0q0 106 23 236l227 1290h171l-242 -1375h380l243 1375h171l-269 -1526h-276l-49 -269h-170l49 269h-258z" />
<glyph unicode="&#x410;" d="M281 502h363q-1 169 -7.5 366t-19.5 427zM751 1526q30 -332 46 -613t16 -514q0 -222 -14 -399h-170q13 153 14 357h-421q-78 -213 -78 -357h-170q0 217 155 566l430 960h192z" />
<glyph unicode="&#x411;" d="M923 1376h-486l-77 -433h163q173 0 272 -115q72 -87 72 -216q0 -44 -8 -94l-23 -132q-69 -386 -441 -386h-352q0 104 23 236l227 1290h630v-150zM697 604q0 188 -192 188h-172l-113 -640h191q119 0 180 63q53 56 76 181l23 131q7 42 7 77z" />
<glyph unicode="&#x412;" d="M219 145h133q207 0 269.5 145t62.5 276q0 88 -48 135t-146 47h-164zM351 893h129q138 0 209.5 103.5t71.5 228.5q0 77 -46.5 116.5t-150.5 39.5h-126zM293 1526h286q188 0 271.5 -90.5t83.5 -216.5q0 -139 -59.5 -243t-187.5 -156q169 -68 169 -271q0 -218 -115 -383.5 t-404 -165.5h-294q0 106 23 236z" />
<glyph unicode="&#x413;" d="M1030 1376h-524l-242 -1376h-171l268 1526h669v-150z" />
<glyph unicode="&#x414;" d="M740 -269h-170l48 269h-520l-49 -269h-170l75 421h70q135 208 264 756l146 618h537l-243 -1374h86zM558 152l216 1223h-210l-115 -497q-127 -541 -269 -726h378z" />
<glyph unicode="&#x415;" d="M86 236l227 1290h689v-145h-544l-88 -494h380v-145h-405l-106 -597h520v-145h-697q0 106 24 236z" />
<glyph unicode="&#x416;" d="M1092 1526l-19 -86q-44 -209 -220 -424l-185 -227l94 -264q78 -220 78 -369q0 -29 -2 -57l-12 -99h-160l13 117q7 62 7 121q0 140 -42 259l-85 243l-58 -432l-54 -308h-141l54 308l107 432l-168 -216q-122 -159 -168 -368l-33 -156h-161l30 138q45 207 224 427l183 224 l-96 265q-79 218 -79 366q0 31 4 59l6 47h160l-8 -64q-7 -63 -7 -121q0 -139 42 -260l85 -243l48 432l46 256h141l-46 -256l-95 -432l171 222q118 152 163 363l22 103h161z" />
<glyph unicode="&#x417;" d="M135 325q48 -190 240 -190q152 0 219.5 129.5t67.5 267.5q0 110 -67 157t-172 47h-43v145h88q130 0 207.5 98.5t77.5 236.5q0 85 -48.5 131t-126.5 46q-162 0 -258 -190l-123 92q147 253 399 253q145 0 235 -96.5t90 -237.5q0 -129 -60 -241.5t-207 -163.5 q177 -70 177 -274q0 -216 -119 -385t-353 -169q-263 0 -379 251z" />
<glyph unicode="&#x418;" d="M999 1526q0 -106 -23 -235l-228 -1291h-170l53 306q66 378 213 964l-669 -1270h-152q0 106 23 236l227 1290h170l-54 -306q-66 -378 -212 -964l669 1270h153z" />
<glyph unicode="&#x419;" d="M685 1632q-345 0 -354 251h158q3 -144 196 -144t196 144h159q-10 -251 -355 -251zM1001 1439l-253 -1439h-170l53 306q51 291 198 877l-654 -1183h-152q0 106 23 236l212 1203h170l-54 -306q-67 -378 -197 -877l654 1183h170z" />
<glyph unicode="&#x41a;" d="M536 1526l-128 -722l270 309q220 253 263 413h170q-56 -207 -340 -526l-132 -150l138 -313q122 -279 122 -537h-169q0 269 -118 537l-83 189l-165 -176l-97 -550h-170l269 1526h170z" />
<glyph unicode="&#x41b;" d="M988 1526q0 -106 -23 -235l-227 -1291h-170l242 1375h-265l-173 -816q-119 -559 -368 -559h-79v142h54q141 0 227 393l214 991h568z" />
<glyph unicode="&#x41c;" d="M1017 1526q0 -106 -23 -235l-227 -1291h-170l69 393q68 387 189 905l-308 -631h-107l-85 631q-61 -518 -130 -905l-69 -393h-170l269 1526h170l108 -634l333 634h151z" />
<glyph unicode="&#x41d;" d="M744 0h-170l134 763h-394l-134 -763h-170l268 1526h170l-109 -618h394l109 618h170z" />
<glyph unicode="&#x41e;" d="M254 463q-8 -40 -10.5 -74t-2.5 -63q0 -81 26 -121q46 -70 142 -70q94 0 157 70q62 70 96 258l106 602q13 80 13 134q0 81 -28 123q-47 71 -142 71t-157 -70q-60 -68 -94 -258zM193 1085q46 252 157 356q115 107 280 107q167 0 258 -126q62 -85 62 -226q0 -69 -15 -150 l-106 -603q-44 -251 -158 -356q-57 -52 -125.5 -79t-152.5 -27q-167 0 -259 125q-63 86 -63 228q0 67 15 148z" />
<glyph unicode="&#x41f;" d="M988 1526q0 -106 -23 -235l-227 -1291h-171l243 1376h-381l-243 -1376h-171l269 1526h704z" />
<glyph unicode="&#x420;" d="M383 838h171q162 0 224 114.5t62 254.5q0 94 -52.5 134t-156.5 40h-152zM236 0h-170l269 1526h312q185 0 275 -95t90 -240q0 -206 -121.5 -352t-351.5 -146h-181z" />
<glyph unicode="&#x421;" d="M862 226q-167 -245 -411 -245q-145 0 -241 89.5t-96 266.5q0 118 110 709q52 290 175 396t287 106q257 0 356 -248l-155 -84q-54 177 -217 177q-97 0 -167 -68.5t-110 -297.5q-110 -578 -110 -688q0 -107 51 -155.5t133 -48.5q163 0 272 185z" />
<glyph unicode="&#x422;" d="M1021 1381h-316l-243 -1381h-170l243 1381h-312v145h798v-145z" />
<glyph unicode="&#x423;" d="M302 440l80 134l-137 529q-35 137 -35 313v110h165v-104q0 -117 32 -271l92 -385l254 421q116 192 116 339h175q0 -164 -149 -410l-466 -771q-128 -213 -128 -345h-165q0 165 166 440z" />
<glyph unicode="&#x424;" d="M931 1035q0 -72 -15 -157l-49 -270q-82 -463 -414 -489l-20 -119h-112l22 125q-126 26 -192 134q-60 96 -60 232q0 71 15 155l49 271q46 262 163 375q104 101 250 113l21 121h112l-22 -127q126 -25 192 -134q60 -95 60 -230zM785 1051q0 169 -132 203l-174 -988 q80 11 132 63q68 68 99 244l64 361q11 66 11 117zM542 1258q-109 -16 -166 -107q-41 -67 -64 -198l-64 -361q-11 -68 -11 -121q0 -168 131 -201z" />
<glyph unicode="&#x425;" d="M-34 0q0 211 220 497l233 306l-76 166q-115 248 -115 557h170q0 -309 84 -491l44 -95l176 230q181 235 181 356h170q0 -154 -229 -453l-224 -292l73 -160q131 -283 131 -621h-170q0 338 -97 548l-43 92l-186 -239q-172 -223 -172 -401h-170z" />
<glyph unicode="&#x426;" d="M33 0q0 106 23 236l228 1290h171l-242 -1375h344l243 1375h171l-243 -1374h86l-74 -421h-170l48 269h-585z" />
<glyph unicode="&#x427;" d="M1010 1526l-268 -1526h-170l111 635h-162q-194 0 -280 120q-66 90 -66 206q0 39 7 80l85 485h171l-86 -486q-6 -34 -6 -64q0 -190 203 -190h161l130 740h170z" />
<glyph unicode="&#x428;" d="M-24 0q0 106 23 236l227 1290h152l-243 -1375h192l243 1375h152l-243 -1375h192l243 1375h151l-268 -1526h-821z" />
<glyph unicode="&#x429;" d="M-24 0q0 106 23 236l227 1290h152l-243 -1375h192l243 1375h152l-243 -1375h192l243 1375h151l-242 -1374h75l-74 -421h-170l48 269h-726z" />
<glyph unicode="&#x42a;" d="M866 601q0 -45 -9 -93l-23 -131q-67 -377 -420 -377h-256q0 104 24 236l201 1140h-212v150h389q0 -103 -23 -235l-61 -348h47q164 0 266 -120q77 -91 77 -222zM697 604q0 78 -36 123q-52 65 -146 65h-66l-113 -640h84q203 0 247 244l23 131q7 42 7 77z" />
<glyph unicode="&#x42b;" d="M1060 1526l-269 -1526h-151l269 1526h151zM616 621q0 -53 -10 -113l-24 -131q-66 -377 -361 -377h-240q0 104 23 236l227 1290h151l-103 -583h50q145 0 228 -115q59 -82 59 -207zM467 620q0 172 -155 172h-60l-113 -640h98q95 0 145 78q33 54 53 166l23 131q9 52 9 93z " />
<glyph unicode="&#x42c;" d="M866 601q0 -45 -9 -93l-23 -131q-67 -377 -429 -377h-362q0 104 23 236l227 1290h170l-103 -583h134q193 0 295 -120q77 -91 77 -222zM697 604q0 188 -211 188h-153l-113 -640h191q119 0 180 63q53 56 76 181l23 131q7 42 7 77z" />
<glyph unicode="&#x42d;" d="M912 1191q0 -107 -110 -709q-43 -231 -134 -351q-116 -150 -328 -150q-257 0 -355 247l154 84q54 -177 217 -177q134 0 203 123q44 77 75 243l40 221h-380v152h406q43 247 43 315q0 204 -184 204q-163 0 -272 -185l-123 94q167 246 412 246q160 0 250 -100 q86 -95 86 -257z" />
<glyph unicode="&#x42e;" d="M1011 1258q0 -45 -8 -95l-145 -836q-60 -345 -305 -346q-132 0 -207 106q-53 74 -53 183q0 45 8 95l67 381h-127l-132 -746h-151l269 1526h151l-111 -630h127l52 306q59 346 306 346q131 0 206 -106q53 -75 53 -184zM861 1251q0 145 -117 145q-72 0 -109 -74 q-22 -42 -38 -137l-145 -823q-9 -47 -9 -85q0 -144 117 -144q73 0 109 73q22 41 38 137l145 823q9 47 9 85z" />
<glyph unicode="&#x42f;" d="M791 1381h-172q-141 0 -203 -92.5t-62 -232.5q0 -196 192 -196h152zM968 1526q0 -106 -23 -235l-227 -1291h-170l125 715h-147l-223 -328q-118 -173 -152 -334l-12 -53h-186l15 68q38 166 199 402l184 270q-175 102 -175 316q0 190 107.5 330t350.5 140h334z" />
<glyph unicode="&#x430;" d="M748 0h-170l22 128q-115 -147 -271 -147q-136 0 -209 82t-73 204q0 172 120.5 284t344.5 112h182l20 113q5 34 5 57q0 78 -44 122t-134 44q-139 0 -231 -139l-119 103q138 190 368 190q145 0 238 -82t93 -219q0 -30 -8 -86zM626 285l43 241h-171q-132 0 -203.5 -64.5 t-71.5 -181.5q0 -70 37.5 -107.5t99.5 -37.5q158 0 266 150z" />
<glyph unicode="&#x431;" d="M960 1395h-38q-259 0 -377 -65q-150 -83 -191 -315l-13 -69q95 138 239 138q145 0 230 -124q57 -86 57 -211q0 -51 -9 -109l-48 -284q-31 -193 -133.5 -284t-246.5 -91q-173 0 -279 119q-80 88 -80 228q0 50 10 106l104 591q54 298 268 423q178 102 507 102v-155z M705 755q0 68 -35 113q-50 63 -130 63q-139 0 -222 -119l-76 -427q-5 -34 -5 -64q0 -79 41 -124q57 -65 150 -65q173 0 211 214l61 353q5 30 5 56z" />
<glyph unicode="&#x432;" d="M885 853q0 -100 -57.5 -172.5t-173.5 -101.5q182 -44 182 -217q0 -172 -115 -276.5t-278 -104.5q-176 0 -265.5 98t-89.5 270q0 73 15 160l26 145q41 224 120 340q107 158 304 158q166 0 258 -98q74 -78 74 -201zM713 853q0 71 -49 111q-46 38 -119 38q-116 0 -178 -118 q-37 -69 -67 -221h169q121 0 182.5 52t61.5 138zM667 362q0 150 -201 150h-192l-4 -22q-13 -78 -13 -136q0 -89 30 -139q50 -83 162 -83q106 0 162 66t56 164z" />
<glyph unicode="&#x433;" d="M876 865q0 -114 -63.5 -190.5t-190.5 -121.5l-233 -90q-150 -59 -150 -178q0 -76 61 -118q54 -36 134 -36q170 0 273 166l125 -85q-163 -231 -413 -231q-178 0 -274 104q-77 85 -77 200q0 108 61 193t210 142l230 85q139 51 139 160q0 64 -54 103q-49 34 -117 34 q-146 0 -225 -142l-124 84q139 209 366 209q158 0 250 -100q72 -80 72 -188z" />
<glyph unicode="&#x434;" d="M931 1094q0 -52 -9 -108l-112 -630q-66 -375 -398 -375q-164 0 -266 119q-77 90 -77 222q0 44 8 92l49 275q29 164 106 267q95 128 244 128q163 0 265 -158l12 70q8 52 8 98q0 301 -422 301h-28v155q338 0 479 -130t141 -326zM717 793q-78 138 -217 138q-160 0 -199 -212 l-60 -335q-6 -33 -6 -64q0 -77 38 -123q54 -65 146 -65q181 0 222 234z" />
<glyph unicode="&#x435;" d="M707 682q12 64 12 114q0 84 -33 130q-52 73 -143 73q-88 0 -158 -73q-69 -71 -100 -244h422zM851 532h-592q-24 -122 -24 -186q0 -94 35 -139q57 -72 166 -72q140 0 238 141l123 -88q-148 -207 -389 -207q-175 0 -272 133q-65 92 -65 242q0 93 39 298q48 270 169 384 q124 115 281 115q167 0 262 -124q63 -83 63 -229q0 -71 -15 -156z" />
<glyph unicode="&#x436;" d="M1012 1132l-5 -42q-13 -95 -184 -277l-211 -224l121 -224q90 -167 90 -280q0 -14 -1 -25l-6 -60h-160l8 65q4 39 4 76q0 97 -33 165l-120 244l-33 -325l-40 -225h-131l40 225l77 309l-197 -234q-111 -132 -128 -256l-5 -44h-161l5 37q18 138 195 328l209 224l-120 224 q-91 171 -91 272q0 12 1 24l3 23h160l-3 -28q-5 -37 -5 -70q0 -90 35 -162l119 -243l34 324l31 179h131l-30 -179l-79 -309l197 235q110 131 119 215l4 38h160z" />
<glyph unicode="&#x437;" d="M903 852q0 -89 -55 -165t-166 -108q161 -72 161 -224q0 -155 -124.5 -264.5t-320.5 -109.5q-263 0 -385 214l144 88q64 -152 256 -152q126 0 193 63.5t67 160.5q0 148 -213 148h-79v152h125q91 0 157.5 49.5t67.5 147.5q0 66 -52.5 108t-131.5 42q-171 0 -269 -150 l-114 88q140 213 383 213q154 0 255 -81.5t101 -219.5z" />
<glyph unicode="&#x438;" d="M928 1132q0 -106 -23 -236l-157 -896h-170l39 227q50 281 166 711l-608 -938h-152q0 106 23 236l158 896h170l-40 -227q-49 -280 -169 -710l611 937h152z" />
<glyph unicode="&#x439;" d="M928 1132q0 -106 -23 -236l-157 -896h-170l39 227q50 281 166 711l-608 -938h-152q0 106 23 236l158 896h170l-40 -227q-49 -280 -169 -710l611 937h152zM645 1275q-345 0 -354 251h158q3 -144 196 -144t196 144h159q-10 -251 -355 -251z" />
<glyph unicode="&#x43a;" d="M802 0h-170q0 205 -83 354l-94 167l-176 -146l-66 -375h-170l199 1132h170l-94 -539l250 208q223 184 233 331h170q-13 -193 -302 -433l-96 -80l109 -195q120 -212 120 -424z" />
<glyph unicode="&#x43b;" d="M883 1132q0 -106 -23 -236l-158 -896h-170l172 980h-243l-124 -579q-84 -401 -333 -401h-79v142h54q146 0 200 254l155 736h549z" />
<glyph unicode="&#x43c;" d="M944 1132q0 -106 -23 -236l-158 -896h-160l67 384l122 528l-299 -556h-107l-104 556l-64 -528l-67 -384h-161l199 1132h158l117 -617l335 617h145z" />
<glyph unicode="&#x43d;" d="M749 0h-170l91 526h-403l-92 -526h-170l199 1132h170l-80 -456h403l81 456h170z" />
<glyph unicode="&#x43e;" d="M543 999q-92 0 -160 -77q-69 -78 -104 -278q-41 -212 -41 -301q0 -87 29 -131q50 -77 143 -77q91 0 160 78q69 77 103 277q42 212 42 301q0 87 -29 132q-50 76 -143 76zM392 -19q-168 0 -261 134q-61 91 -61 236q0 94 43 313q23 130 63 223t99 151q118 115 285 115 q168 0 261 -134q62 -91 62 -236q0 -94 -44 -313q-23 -130 -63 -223t-99 -151q-118 -115 -285 -115z" />
<glyph unicode="&#x43f;" d="M919 1132q0 -106 -24 -236l-157 -896h-171l173 981h-381l-173 -981h-171l199 1132h705z" />
<glyph unicode="&#x440;" d="M249 369q21 -234 190 -234q86 0 149 78q64 77 99 274q42 222 42 304q0 84 -26 130q-46 78 -131 78q-168 0 -256 -252zM859 468q-47 -268 -159 -378q-113 -109 -237 -109q-174 0 -254 158l-87 -492h-170l262 1485h170l-21 -115q94 136 268 136q126 0 214 -128 q58 -84 58 -229q0 -97 -44 -328z" />
<glyph unicode="&#x441;" d="M808 188q-148 -207 -390 -207q-176 0 -272 133q-66 91 -66 241q0 104 40 301q46 267 170 382q123 115 296 115q242 0 355 -209l-154 -87q-68 142 -208 142q-109 0 -181 -73q-72 -71 -110 -289q-42 -214 -42 -294q0 -94 34 -136q57 -72 165 -72q139 0 240 141z" />
<glyph unicode="&#x442;" d="M791 0h-139l151 855q6 33 6 59q0 86 -74 86q-69 0 -136 -132l-153 -868h-138l151 855q6 36 6 63q0 82 -62 82q-74 0 -147 -132l-153 -868h-139l197 1132h141l-16 -92q76 113 185 113q105 0 144 -113q74 113 181 113q155 0 155 -190q0 -52 -12 -120z" />
<glyph unicode="&#x443;" d="M248 70l79 133l-136 529q-35 137 -35 313v87h165v-81q0 -117 32 -270l92 -386l254 421q116 193 116 316h175q0 -141 -149 -387l-466 -771q-128 -213 -128 -327h-165q0 147 166 423z" />
<glyph unicode="&#x444;" d="M887 781q0 -71 -16 -156l-28 -155q-47 -261 -164 -374q-105 -103 -250 -114l-59 -335h-112l60 341q-126 26 -192 134q-59 96 -59 232q0 71 15 155l28 155q47 262 163 374q105 102 251 113l65 375h112l-67 -379q126 -26 193 -134q60 -95 60 -232zM741 798q0 169 -132 203 l-154 -873q80 12 132 64q68 68 99 244l43 245q12 66 12 117zM497 1005q-79 -12 -132 -64q-68 -69 -98 -241l-43 -245q-11 -69 -11 -122q0 -166 130 -200z" />
<glyph unicode="&#x445;" d="M281 246q-135 -146 -135 -246h-170q0 144 191 351l227 239l-88 145q-105 174 -105 397h170q0 -211 66 -323l64 -106l174 187q125 132 125 242h170q0 -152 -186 -351l-201 -215l105 -174q119 -199 119 -392h-170q0 181 -74 308l-87 145z" />
<glyph unicode="&#x446;" d="M646 152q-118 -171 -291 -171q-127 0 -206 71.5t-79 216.5q0 72 12 148l127 715h170l-130 -734q-9 -63 -9 -121q0 -70 31 -106t94 -36q194 0 250 326l119 671h170l-173 -980h83l-74 -421h-170z" />
<glyph unicode="&#x447;" d="M771 1132h170l-199 -1132h-170l83 472q-95 -139 -268 -139q-135 0 -219 129q-54 83 -54 222q0 106 67 448h171q-65 -357 -65 -446q0 -77 22 -120q42 -78 137 -78q169 0 256 253z" />
<glyph unicode="&#x448;" d="M161 1132h149l-151 -855q-5 -33 -5 -59q0 -86 63 -86q64 0 132 132l152 868h149l-151 -855q-5 -36 -5 -63q0 -82 56 -82q65 0 139 132l152 868h149l-199 -1132h-149l17 92q-77 -113 -178 -113q-104 0 -144 113q-73 -113 -181 -113q-154 0 -154 190q0 52 12 120z" />
<glyph unicode="&#x449;" d="M156 1132h149l-150 -853q-6 -33 -6 -59q0 -86 83 -86q87 0 121 188l144 810h148l-150 -853q-6 -36 -6 -63q0 -82 75 -82q93 0 129 188l144 810h148l-173 -979h86l-74 -422h-170l65 363q-73 -113 -175 -113q-124 0 -163 113q-64 -113 -191 -113q-86 0 -139.5 57.5 t-53.5 151.5q0 33 12 101z" />
<glyph unicode="&#x44a;" d="M835 415q0 -40 -9 -87q-62 -347 -353 -347q-144 0 -224 93q-58 66 -58 176q0 44 9 94l113 637h-211v151h389q0 -103 -23 -236l-31 -175h65q165 0 261 -106q72 -79 72 -200zM663 407q0 163 -196 163h-56l-42 -236q-8 -41 -8 -73q0 -58 25 -85q39 -44 94 -44q140 0 176 206 q7 37 7 69z" />
<glyph unicode="&#x44b;" d="M990 1132l-199 -1132h-151l199 1132h151zM585 434q0 -45 -8 -95q-27 -150 -97 -242q-87 -116 -223 -116q-125 0 -197 86q-51 59 -51 162q0 45 9 99l143 804h151l-72 -411h57q143 0 228 -101q60 -72 60 -186zM434 424q0 146 -150 146h-71l-44 -242q-9 -45 -9 -80 q0 -51 19 -75q29 -41 84 -41q124 0 163 216q8 42 8 76z" />
<glyph unicode="&#x44c;" d="M834 420q0 -188 -112.5 -313.5t-316.5 -125.5q-175 0 -259 115q-63 84 -63 201q0 43 9 90l131 745h170l-72 -411h129q163 0 265 -68q119 -79 119 -233zM663 403q0 167 -216 167h-152l-36 -203q-7 -40 -7 -72q0 -163 169 -163q118 0 180 82.5t62 188.5z" />
<glyph unicode="&#x44d;" d="M847 780q0 -87 -39 -302q-51 -271 -170 -382q-124 -115 -275 -115q-249 0 -348 209l154 87q54 -142 194 -142q133 0 203 127q46 81 74 244h-353v152h381q13 88 13 133q0 94 -34 136q-57 72 -150 72q-140 0 -226 -141l-122 88q133 207 358 207q178 0 274 -133 q66 -91 66 -240z" />
<glyph unicode="&#x44e;" d="M943 863q0 -45 -9 -94l-76 -442q-60 -345 -305 -346q-132 0 -207 106q-53 73 -53 183q0 45 8 95l22 126h-128l-86 -491h-151l199 1132h151l-86 -491h128l28 167q58 345 305 345q131 0 207 -105q53 -76 53 -185zM792 857q0 145 -117 145q-71 0 -109 -74q-20 -42 -38 -137 l-76 -429q-9 -47 -9 -85q0 -144 117 -144q73 0 109 73q21 41 38 137l76 429q9 47 9 85z" />
<glyph unicode="&#x44f;" d="M721 981h-192q-122 0 -178.5 -59t-56.5 -146q0 -161 191 -161h171zM898 1132q0 -106 -23 -236l-157 -896h-170l81 464h-156l-150 -173q-145 -166 -174 -291h-190l10 40q27 112 229 344l96 110q-171 91 -171 282q0 138 104 247t327 109h344z" />
<glyph unicode="&#x450;" d="M707 682q12 64 12 114q0 84 -33 130q-52 73 -143 73q-88 0 -158 -73q-69 -71 -100 -244h422zM851 532h-592q-24 -122 -24 -186q0 -94 35 -139q57 -72 166 -72q140 0 238 141l123 -88q-148 -207 -389 -207q-175 0 -272 133q-65 92 -65 242q0 93 39 298q48 270 169 384 q124 115 281 115q167 0 262 -124q63 -83 63 -229q0 -71 -15 -156zM710 1290h-158l-227 236h212z" />
<glyph unicode="&#x451;" d="M707 682q12 64 12 114q0 84 -33 130q-52 73 -143 73q-88 0 -158 -73q-69 -71 -100 -244h422zM851 532h-592q-24 -122 -24 -186q0 -94 35 -139q57 -72 166 -72q140 0 238 141l123 -88q-148 -207 -389 -207q-175 0 -272 133q-65 92 -65 242q0 93 39 298q48 270 169 384 q124 115 281 115q167 0 262 -124q63 -83 63 -229q0 -71 -15 -156zM923 1416q0 -45 -32 -78.5t-80 -33.5q-47 0 -78.5 33.5t-31.5 78.5t31.5 77.5t78.5 32.5q48 0 80 -32.5t32 -77.5zM550 1416q0 -45 -32 -78.5t-79 -33.5q-48 0 -80 33.5t-32 78.5t32 77.5t80 32.5 q47 0 79 -32.5t32 -77.5z" />
<glyph unicode="&#x452;" d="M857 685q0 -64 -14 -143l-84 -480q-35 -201 -88 -286q-81 -129 -250 -129h-60v142h46q135 0 170 200l98 563q12 63 12 111q0 152 -128 152q-101 0 -184 -118l-123 -697h-170l201 1140h-150v143h175l43 243h170l-43 -243h219v-143h-244l-53 -300q93 128 218 128 q127 0 195 -103q44 -66 44 -180z" />
<glyph unicode="&#x453;" d="M876 865q0 -114 -63.5 -190.5t-190.5 -121.5l-233 -90q-150 -59 -150 -178q0 -76 61 -118q54 -36 134 -36q170 0 273 166l125 -85q-163 -231 -413 -231q-178 0 -274 104q-77 85 -77 200q0 108 61 193t210 142l230 85q139 51 139 160q0 64 -54 103q-49 34 -117 34 q-146 0 -225 -142l-124 84q139 209 366 209q158 0 250 -100q72 -80 72 -188zM970 1526l-227 -236h-158l173 236h212z" />
<glyph unicode="&#x454;" d="M970 944l-154 -87q-68 142 -208 142q-137 0 -208 -107q-49 -76 -79 -234h360v-152h-388q-18 -109 -18 -161q0 -94 50.5 -152t148.5 -58q139 0 240 141l123 -88q-148 -207 -390 -207q-176 0 -272 133q-66 91 -66 231q0 96 40 311q50 271 170 382q123 115 289 115 q249 0 362 -209z" />
<glyph unicode="&#x455;" d="M422 131q118 0 179 62.5t61 140.5q0 85 -96 134l-172 86q-185 93 -185 242t106.5 253t289.5 104q227 0 331 -209l-154 -84q-48 142 -194 142q-96 0 -151.5 -54t-55.5 -125q0 -80 89 -125l172 -87q190 -95 190 -261q0 -156 -114.5 -262.5t-313.5 -106.5q-249 0 -370 231 l156 85q61 -166 232 -166z" />
<glyph unicode="&#x456;" d="M619 896l-132 -751h267v-145h-714v145h276l148 842h-182v145h360q0 -106 -23 -236zM743 1516q0 -54 -38 -92.5t-94 -38.5t-93 38.5t-37 92.5t37 92.5t93 38.5t94 -38.5t38 -92.5z" />
<glyph unicode="&#x457;" d="M875 1416q0 -45 -32 -78.5t-80 -33.5q-47 0 -78.5 33.5t-31.5 78.5t31.5 77.5t78.5 32.5q48 0 80 -32.5t32 -77.5zM502 1416q0 -45 -32 -78.5t-79 -33.5q-48 0 -80 33.5t-32 78.5t32 77.5t80 32.5q47 0 79 -32.5t32 -77.5zM629 896l-132 -751h267v-145h-714v145h276 l148 842h-182v145h360q0 -106 -23 -236z" />
<glyph unicode="&#x458;" d="M721 896l-146 -828q-38 -211 -152 -320.5t-284 -109.5q-190 0 -318 159l135 110q71 -115 190 -115q100 0 166.5 67.5t94.5 227.5l159 900h-182v145h360q0 -106 -23 -236zM845 1516q0 -54 -38 -92.5t-93 -38.5q-57 0 -94 38.5t-37 92.5t37 92.5t94 38.5q55 0 93 -38.5 t38 -92.5z" />
<glyph unicode="&#x459;" d="M748 436q0 134 -113 134h-60l-75 -418h79q125 0 160 196q9 49 9 88zM655 1132q0 -106 -23 -236l-31 -175h31q145 0 217 -101q50 -71 50 -178q0 -43 -8 -93q-62 -349 -347 -349h-220l173 981h-142l-125 -590q-83 -391 -300 -391h-59v151h56q108 0 155 226l159 755h414z " />
<glyph unicode="&#x45a;" d="M880 442q0 -43 -9 -93q-61 -349 -346 -349h-221l101 570h-188l-100 -570h-151l199 1132h151l-73 -411h188l72 411h151l-72 -411h30q145 0 218 -101q50 -71 50 -178zM728 436q0 134 -113 134h-60l-74 -418h78q126 0 161 196q8 49 8 88z" />
<glyph unicode="&#x45b;" d="M857 685q0 -64 -14 -143l-94 -542h-170l96 552q12 63 12 111q0 152 -128 152q-101 0 -184 -118l-123 -697h-170l199 1132h-148v151h175l43 243h170l-43 -243h219v-151h-246l-51 -292q93 128 218 128q127 0 195 -103q44 -66 44 -180z" />
<glyph unicode="&#x45c;" d="M802 0h-170q0 205 -83 354l-94 167l-176 -146l-66 -375h-170l199 1132h170l-94 -539l250 208q223 184 233 331h170q-13 -193 -302 -433l-96 -80l109 -195q120 -212 120 -424zM999 1526l-227 -236h-158l173 236h212z" />
<glyph unicode="&#x45d;" d="M928 1132q0 -106 -23 -236l-157 -896h-170l39 227q50 281 166 711l-608 -938h-152q0 106 23 236l158 896h170l-40 -227q-49 -280 -169 -710l611 937h152zM693 1290h-158l-227 236h212z" />
<glyph unicode="&#x45e;" d="M248 70l79 133l-136 529q-35 137 -35 313v87h165v-81q0 -117 32 -270l92 -386l254 421q116 193 116 316h175q0 -141 -149 -387l-466 -771q-128 -213 -128 -327h-165q0 147 166 423zM645 1275q-345 0 -354 251h158q3 -144 196 -144t196 144h159q-10 -251 -355 -251z" />
<glyph unicode="&#x45f;" d="M34 0q0 106 23 236l157 896h171l-172 -981h380l173 981h171l-199 -1132h-276l-49 -269h-170l49 269h-258z" />
<glyph unicode="&#x490;" d="M1022 1376h-516l-242 -1376h-171l268 1526h516l29 163h171z" />
<glyph unicode="&#x491;" d="M952 981h-515l-173 -981h-171l199 1132h516l98 557h171z" />
<glyph unicode="&#x591;" d="M385 10v-142q179 -27 179 -209v-12h-101v12q0 126 -125 126q-126 0 -126 -126v-12h-101v12q0 182 179 209v142h95z" />
<glyph unicode="&#x592;" d="M787 1287v-119h-119v119h119zM549 1287v-119h-120v119h120zM668 1526v-120h-119v120h119z" />
<glyph unicode="&#x593;" d="M811 1171l-404 32v84l144 64l-144 64v84l404 32v-80l-293 -10l205 -90l-205 -90l293 -10v-80z" />
<glyph unicode="&#x594;" d="M548 1406v120h119v-120h-119zM548 1168v119h119v-119h-119z" />
<glyph unicode="&#x595;" d="M655 1406v120h119v-120h-119zM655 1168v119h119v-119h-119zM441 1526h95v-358h-95v358z" />
<glyph unicode="&#x596;" d="M470 -353h-13q-237 0 -237 275v78h97v-78q0 -180 140 -180h13v-95z" />
<glyph unicode="&#x597;" d="M597 1400l119 -118l-119 -118l-117 118z" />
<glyph unicode="&#x598;" d="M811 1526q25 -80 25 -146q0 -195 -134 -195q-83 0 -123 107l-31 84q-16 50 -36 50q-46 0 -46 -110q0 -54 25 -131h-86q-22 63 -22 145q0 196 128 196q78 0 111 -88l41 -107q17 -46 45 -46q44 0 44 98q0 65 -32 143h91z" />
<glyph unicode="&#x599;" d="M478 1526h33q187 0 187 -215v-143h-97v143q0 120 -90 120h-33v95z" />
<glyph unicode="&#x59a;" d="M554 -362l-478 184l478 185v-97l-259 -88l259 -87v-97z" />
<glyph unicode="&#x59b;" d="M170 -118v119h120v-119h-120zM220 -258h53q140 0 140 140v118h97v-118q0 -235 -237 -235h-53v95z" />
<glyph unicode="&#x59c;" d="M738 1431h-33q-90 0 -90 -120v-143h-97v143q0 215 187 215h33v-95z" />
<glyph unicode="&#x59d;" d="M598 1431h-33q-90 0 -90 -120v-143h-97v143q0 215 187 215h33v-95z" />
<glyph unicode="&#x59e;" d="M599 1431h-13q-90 0 -90 -120v-143h-97v143q0 215 187 215h13v-95zM851 1431h-13q-90 0 -90 -120v-143h-97v143q0 215 187 215h13v-95z" />
<glyph unicode="&#x59f;" d="M714 1306q-22 37 -22 78q0 68 47 115t114 47q68 0 115 -47t47 -114t-47 -114t-116 -47q-41 0 -77 22l-86 -83l-59 61zM853 1309q33 0 55.5 22.5t22.5 53.5q0 33 -22.5 55.5t-55.5 22.5q-31 0 -53.5 -22.5t-22.5 -55.5q0 -31 22.5 -53.5t53.5 -22.5zM590 1224l-59 -61 l-86 83q-36 -22 -77 -22q-69 0 -116 47t-47 114t47 114t115 47q67 0 114 -47t47 -115q0 -41 -22 -78zM367 1309q31 0 53.5 22.5t22.5 53.5q0 33 -22.5 55.5t-53.5 22.5q-33 0 -55.5 -22.5t-22.5 -55.5q0 -31 22.5 -53.5t55.5 -22.5z" />
<glyph unicode="&#x5a0;" d="M556 1306q-22 37 -22 78q0 68 47 115t114 47q68 0 115 -47t47 -114t-47 -114t-116 -47q-41 0 -77 22l-86 -83l-59 61zM695 1309q33 0 55.5 22.5t22.5 53.5q0 33 -22.5 55.5t-55.5 22.5q-31 0 -53.5 -22.5t-22.5 -55.5q0 -31 22.5 -53.5t53.5 -22.5z" />
<glyph unicode="&#x5a1;" d="M432 1526h95v-143h79q90 0 90 120v23h97v-23q0 -215 -187 -215h-79v-120h-95v358z" />
<glyph unicode="&#x5a2;" d="M292 -354v133q-180 27 -180 209l1 12h101l-1 -12q1 -126 127 -126q125 0 124 126l1 12h101l-1 -12q0 -182 -178 -209v-133h-95z" />
<glyph unicode="&#x5a3;" d="M448 16h96v-369h-406v96h310v273z" />
<glyph unicode="&#x5a4;" d="M554 -362l-478 184l478 185v-97l-259 -88l259 -87v-97z" />
<glyph unicode="&#x5a5;" d="M210 -258h13q140 0 140 180v78h97v-78q0 -275 -237 -275h-13v95z" />
<glyph unicode="&#x5a6;" d="M343 -262h13q90 0 90 120v143h97v-143q0 -215 -187 -215h-13v95zM91 -262h13q90 0 90 120v143h97v-143q0 -215 -187 -215h-13v95z" />
<glyph unicode="&#x5a7;" d="M199 -335v75q62 -22 124 -22q69 0 69 33q0 18 -36 28l-61 18q-98 28 -98 90q0 103 156 103q74 0 123 -15v-72q-66 15 -121 15q-70 0 -70 -27q0 -17 27 -24l68 -20q101 -30 101 -95q0 -105 -162 -105q-57 0 -120 18z" />
<glyph unicode="&#x5a8;" d="M338 1526h33q187 0 187 -215v-143h-97v143q0 120 -90 120h-33v95z" />
<glyph unicode="&#x5a9;" d="M802 1224l-59 -61l-86 83q-36 -22 -77 -22q-69 0 -116 47t-47 114t47 114t115 47q67 0 114 -47t47 -115q0 -41 -22 -78zM579 1309q31 0 53.5 22.5t22.5 53.5q0 33 -22.5 55.5t-53.5 22.5q-33 0 -55.5 -22.5t-22.5 -55.5q0 -31 22.5 -53.5t55.5 -22.5z" />
<glyph unicode="&#x5aa;" d="M292 -354v133q-179 27 -179 209v12h101v-12q0 -126 126 -126q125 0 125 126v12h101v-12q0 -182 -179 -209v-133h-95z" />
<glyph unicode="&#x5ab;" d="M825 1174l-478 184l478 185v-97l-259 -88l259 -87v-97z" />
<glyph unicode="&#x5ac;" d="M719 1526h96v-318h-406v96h310v222z" />
<glyph unicode="&#x5ad;" d="M330 -353h-13q-237 0 -237 275v78h97v-78q0 -180 140 -180h13v-95z" />
<glyph unicode="&#x5ae;" d="M671 1526q25 -80 25 -146q0 -195 -134 -195q-83 0 -123 107l-31 84q-16 50 -36 50q-46 0 -46 -110q0 -54 25 -131h-86q-22 63 -22 145q0 196 128 196q78 0 111 -88l41 -107q17 -46 45 -46q44 0 44 98q0 65 -32 143h91z" />
<glyph unicode="&#x5af;" d="M607 1168q-76 0 -129 54.5t-53 130.5q0 78 53.5 131.5t131.5 53.5q77 0 131 -53.5t54 -130.5q0 -79 -54 -132.5t-134 -53.5zM608 1251q44 0 74.5 29.5t30.5 73.5q0 42 -30.5 72t-72.5 30q-43 0 -73 -30t-30 -72t30 -72.5t71 -30.5z" />
<glyph unicode="&#x5b0;" d="M273 -165v95h119v-95h-119zM273 -353v95h119v-95h-119z" />
<glyph unicode="&#x5b1;" d="M513 -165v95h119v-95h-119zM513 -353v95h119v-95h-119zM274 -165v95h119v-95h-119zM155 -353v95h119v-95h-119zM35 -165v95h119v-95h-119z" />
<glyph unicode="&#x5b2;" d="M-48 -165v95h525v-95h-525zM597 -165v95h119v-95h-119zM597 -353v95h119v-95h-119z" />
<glyph unicode="&#x5b3;" d="M-49 -165v95h525v-95h-215v-188h-94v188h-216zM596 -165v95h119v-95h-119zM596 -353v95h119v-95h-119z" />
<glyph unicode="&#x5b4;" d="M288 -189v119h119v-119h-119z" />
<glyph unicode="&#x5b5;" d="M169 -189v119h119v-119h-119zM408 -189v119h119v-119h-119z" />
<glyph unicode="&#x5b6;" d="M414 -165v95h119v-95h-119zM125 -165v95h119v-95h-119zM275 -353v95h119v-95h-119z" />
<glyph unicode="&#x5b7;" d="M87 -165v95h525v-95h-525z" />
<glyph unicode="&#x5b8;" d="M70 -165v95h525v-95h-215v-188h-95v188h-215z" />
<glyph unicode="&#x5b9;" d="M527 1168v119h120v-119h-120z" />
<glyph unicode="&#x5ba;" d="M527 1168v119h120v-119h-120z" />
<glyph unicode="&#x5bb;" d="M41 -114v119h119v-119h-119zM280 -233v119h119v-119h-119zM518 -353v120h120v-120h-120z" />
<glyph unicode="&#x5bc;" d="M406 534v143h143v-143h-143z" />
<glyph unicode="&#x5bd;" d="M292 11h95v-364h-95v364z" />
<glyph unicode="&#x5be;" d="M275 980v152h564v-152h-564z" />
<glyph unicode="&#x5bf;" d="M329 1208v95h525v-95h-525z" />
<glyph unicode="&#x5c0;" d="M511 1132h119l-199 -1132h-119z" />
<glyph unicode="&#x5c1;" d="M527 1168v119h120v-119h-120z" />
<glyph unicode="&#x5c2;" d="M527 1168v119h120v-119h-120z" />
<glyph unicode="&#x5c3;" d="M497 214v-214h-214v214h214zM659 1133v-214h-214v214h214z" />
<glyph unicode="&#x5c4;" d="M527 1168v119h120v-119h-120z" />
<glyph unicode="&#x5c5;" d="M288 -189v119h119v-119h-119z" />
<glyph unicode="&#x5c6;" d="M8 0q0 106 23 236l93 528q37 211 119 289.5t245 78.5h183v-145h-166q-110 0 -147.5 -42.5t-62.5 -184.5l-109 -615h616v-145h-794z" />
<glyph unicode="&#x5c7;" d="M71 -165v95h525v-95h-215v-188h-95v188h-215z" />
<glyph unicode="&#x5d0;" d="M19 0q0 106 23 240q56 316 264 527l-147 358l148 76l265 -643q199 165 199 343q0 97 -70 176l130 124q112 -118 112 -275q0 -143 -80 -266.5t-238 -229.5l176 -430h-179l-253 613q-146 -178 -173 -468h124v-145h-301z" />
<glyph unicode="&#x5d1;" d="M842 145v-145h-867v145h521l126 715q3 19 3 37q0 90 -100 90h-214q-83 0 -124 31l-62 45l113 138l94 -69h224q243 0 243 -199q0 -17 -2 -35t-5 -38l-126 -715h176z" />
<glyph unicode="&#x5d2;" d="M2 145h85q263 0 464 269l61 345q2 11 3 22t1 21q0 84 -69 117l-187 90l81 172l214 -102q134 -64 134 -241q0 -45 -9 -99l-56 -315l111 -424h-170l-60 254q-219 -254 -533 -254h-70v145z" />
<glyph unicode="&#x5d3;" d="M976 987h-219l-174 -987h-171l174 987h-273q-84 0 -126 31l-62 45l113 138l94 -69h644v-145z" />
<glyph unicode="&#x5d4;" d="M583 0l151 860q3 19 3 37q0 90 -100 90h-341q-83 0 -124 31l-62 45l113 138l94 -69h351q243 0 243 -199q0 -17 -2 -35t-5 -38l-151 -860h-170zM237 0h-171l137 780h171z" />
<glyph unicode="&#x5d5;" d="M537 823q2 12 3 23.5t1 22.5q0 114 -120 152l-82 25l47 155l85 -25q241 -70 241 -289q0 -20 -1.5 -40t-5.5 -41l-142 -806h-171z" />
<glyph unicode="&#x5d6;" d="M296 0l117 666q32 184 132 293l-204 21q-65 8 -102 38l-62 45l113 138l91 -69l535 -53l-15 -157l-211 22q-76 -102 -107 -278l-117 -666h-170z" />
<glyph unicode="&#x5d7;" d="M223 1201l94 -69h351q243 0 243 -199q0 -17 -2 -35t-5 -38l-151 -860h-170l151 860q3 19 3 37q0 90 -100 90h-226l-174 -987h-171l171 973l-127 90z" />
<glyph unicode="&#x5d8;" d="M268 380q-11 -64 -11 -107q0 -138 98 -138q51 0 111 45t117 128.5t104.5 203t73.5 268.5q21 113 21 147q0 108 -90 108q-50 0 -85 -28v145q74 35 146 35q203 0 201 -232q0 -54 -23 -175q-16 -93 -43 -188t-65.5 -183.5t-87.5 -166.5t-109.5 -136t-132.5 -91.5t-155 -33.5 q-123 0 -187.5 73t-64.5 204q0 49 12 122l109 623l-82 60l113 138l154 -114z" />
<glyph unicode="&#x5d9;" d="M537 823q2 12 3 23.5t1 22.5q0 114 -120 152l-82 25l47 155l85 -25q241 -70 241 -289q0 -20 -1.5 -40t-5.5 -41l-36 -206h-171z" />
<glyph unicode="&#x5da;" d="M457 -353l185 1048q32 184 137 292h-478q-82 0 -124 31l-62 45l113 138l94 -69h618v-145q-97 -116 -128 -292l-185 -1048h-170z" />
<glyph unicode="&#x5db;" d="M749 860q3 19 3 37q0 90 -99 90h-342q-83 0 -124 31l-62 45l113 138l94 -69h352q243 0 243 -199q0 -17 -2 -35t-5 -38l-61 -347q-66 -372 -288 -513h-557v145h478q145 82 196 368z" />
<glyph unicode="&#x5dc;" d="M170 1227l53 299h171l-70 -394h360q243 0 243 -199q0 -17 -2 -35t-5 -38l-28 -159q-66 -374 -658 -717l-87 -49l39 222l70 40q210 123 327 252t139 257l27 154q3 19 3 37q0 90 -99 90h-506q0 106 23 240z" />
<glyph unicode="&#x5dd;" d="M72 240l135 765l-82 58l113 138l94 -69h316q244 0 244 -199q0 -17 -2 -35t-5 -38l-83 -470q-39 -221 -123 -390h-630q0 104 23 240zM715 860q3 19 3 37q0 90 -101 90h-242l-149 -842h344q20 57 35 118t27 127z" />
<glyph unicode="&#x5de;" d="M632 1132q261 0 261 -230q0 -43 -7 -92l-142 -810h-372v145h226l119 675q6 31 6 57q0 110 -96 110q-175 0 -295 -422l-162 -565h-171l162 565q67 229 151 370l-186 133l97 133l194 -144q83 75 215 75z" />
<glyph unicode="&#x5df;" d="M537 823q2 12 3 23.5t1 22.5q0 114 -120 152l-82 25l47 155l85 -25q241 -70 241 -289q0 -20 -1.5 -40t-5.5 -41l-204 -1159h-171z" />
<glyph unicode="&#x5e0;" d="M634 0h-528v145h382l108 614q5 28 5 48q0 86 -68 119l-194 95l77 160l240 -117q119 -58 119 -215q0 -20 -1.5 -43t-6.5 -47z" />
<glyph unicode="&#x5e1;" d="M238 1201l94 -69h376q244 0 244 -199q0 -17 -2 -35t-5 -38l-14 -80q-62 -350 -258.5 -574.5t-374.5 -224.5q-220 0 -220 233q0 55 12 126l117 663l-82 60zM765 800l10 60q2 10 3 19.5t0 17.5q0 90 -101 90h-302l-115 -647q-12 -76 -12 -114q0 -91 57 -91q102 0 254 181.5 t206 483.5z" />
<glyph unicode="&#x5e2;" d="M811 1201q109 -124 109 -288q0 -18 -1.5 -36t-3.5 -37l-58 -327q-51 -289 -329 -396l-537 -209l-53 146l292 113v606q0 212 -115 290l113 138q171 -113 171 -380v-590l90 35q165 63 201 262l56 322q2 12 3 23.5t1 22.5q0 97 -69 181z" />
<glyph unicode="&#x5e3;" d="M701 780q6 41 6 80q0 127 -149 127q-54 0 -82.5 2.5t-51.5 10.5l-26 8l-81 -191q-13 -35 -13 -60q0 -50 50 -65l90 -26l-53 -148l-112 32q-69 20 -106 64t-37 114q0 27 7 59t23 69l150 345l135 -48q31 -11 60.5 -16t57.5 -5q311 0 311 -257q0 -44 -9 -95l-200 -1133h-170 z" />
<glyph unicode="&#x5e4;" d="M701 780q6 41 6 80q0 127 -149 127q-54 0 -82.5 2.5t-51.5 10.5l-26 8l-81 -191q-13 -35 -13 -60q0 -50 50 -65l90 -26l-53 -148l-112 32q-69 20 -106 64t-37 114q0 27 7 59t16 52l157 362l135 -48q31 -11 60.5 -16t57.5 -5q311 0 311 -257q0 -44 -9 -95l-137 -780h-741 v145h596z" />
<glyph unicode="&#x5e5;" d="M292 -353h-171l162 919q15 85 15 157q0 214 -105 292l-73 55l98 131l85 -63q169 -128 169 -385q0 -44 -5 -90t-13 -97l-18 -105l57 46q125 90 190 186.5t65 207.5q0 97 -68 176l130 124q112 -118 112 -275q0 -140 -84.5 -272t-261.5 -261l-177 -140z" />
<glyph unicode="&#x5e6;" d="M24 0v145h496q-67 117 -149 321l-269 659l148 76l270 -659q110 80 171 173t60 186q0 97 -70 176l130 124q112 -118 112 -275q3 -123 -82.5 -252.5t-268.5 -253.5l118 -275v-145h-666z" />
<glyph unicode="&#x5e7;" d="M147 -353h-171l200 1133h171zM924 880l-45 -254q-71 -393 -552 -691l43 240q147 91 231 205t107 242l46 258q3 16 3 32q0 75 -84 75h-362q-83 0 -124 31l-62 45l113 138l94 -69h372q226 0 226 -186q0 -30 -6 -66z" />
<glyph unicode="&#x5e8;" d="M889 880l-155 -880h-170l155 880q3 16 3 32q0 75 -84 75h-327q-83 0 -124 31l-62 45l113 138l94 -69h337q226 0 226 -186q0 -30 -6 -66z" />
<glyph unicode="&#x5e9;" d="M481 1041l-43 22l113 138l87 -64l-102 -580q-36 -203 -216 -203h-148q-3 -18 -5 -35t-2 -32q0 -162 181 -162q311 0 369 340l101 569l-42 29l113 138l87 -64l-115 -652q-90 -505 -519 -505q-316 0 -316 281q0 49 11 113l117 659l-42 30l113 138l87 -64l-113 -638h128 q61 0 71 58z" />
<glyph unicode="&#x5ea;" d="M688 1132q227 0 227 -186q0 -30 -6 -66l-155 -880h-171l155 880q3 16 3 32q0 75 -84 75h-221l-174 -987h-287v145h141l149 842q-26 3 -49.5 10t-43.5 21l-62 45l113 138l94 -69h371z" />
<glyph unicode="&#x5f0;" d="M103 0l176 1000l-119 65l76 136l164 -90q53 -30 53 -83q0 -11 -3 -28l-176 -1000h-171zM510 0l176 1000l-119 65l76 136l164 -90q53 -30 53 -83q0 -11 -3 -28l-176 -1000h-171z" />
<glyph unicode="&#x5f1;" d="M137 618l61 103q46 79 62 173l19 106l-119 65l76 136l164 -90q53 -30 53 -83q0 -11 -3 -28l-13 -75q-24 -133 -88 -243l-73 -125zM510 0l176 1000l-119 65l76 136l164 -90q53 -30 53 -83q0 -11 -3 -28l-176 -1000h-171z" />
<glyph unicode="&#x5f2;" d="M137 618l61 103q46 79 62 173l19 106l-119 65l76 136l164 -90q53 -30 53 -83q0 -11 -3 -28l-13 -75q-24 -133 -88 -243l-73 -125zM544 618l61 103q46 79 62 173l19 106l-119 65l76 136l164 -90q53 -30 53 -83q0 -11 -3 -28l-13 -75q-24 -133 -88 -243l-73 -125z" />
<glyph unicode="&#x5f3;" d="M278 656l284 476h228l-344 -476h-168z" />
<glyph unicode="&#x5f4;" d="M49 656l284 476h218l-344 -476h-158zM506 656l284 476h218l-343 -476h-159z" />
<glyph unicode="&#x627;" d="M411 97q-39 272 -39 1429h151q0 -1157 29 -1429h-141z" />
<glyph unicode="&#x640;" d="M1035 97h-1046v183h1046v-183z" />
<glyph unicode="&#x1f00;" d="M107 695q47 259 152 358.5t231 99.5q217 0 291 -286l87 265h169q-122 -310 -165 -502.5t-43 -407.5q0 -104 9 -221h-169l6 267q-135 -287 -353 -287q-49 0 -97 19.5t-86.5 60.5t-62 104t-23.5 149q0 37 4.5 77.5t12.5 86.5zM236 459q-8 -44 -12 -81t-4 -68 q0 -48 10.5 -81.5t29 -55t44 -31.5t56.5 -10q172 0 329 448q-22 422 -194 422q-81 0 -132.5 -59.5t-85.5 -247.5zM808 1538q0 -139 -188 -235h-180v28q205 100 205 182t-142 82h-63v137q57 15 114 15q112 0 183 -57.5t71 -151.5z" />
<glyph unicode="&#x1f01;" d="M107 695q47 259 152 358.5t231 99.5q217 0 291 -286l87 265h169q-122 -310 -165 -502.5t-43 -407.5q0 -104 9 -221h-169l6 267q-135 -287 -353 -287q-49 0 -97 19.5t-86.5 60.5t-62 104t-23.5 149q0 37 4.5 77.5t12.5 86.5zM236 459q-8 -44 -12 -81t-4 -68 q0 -48 10.5 -81.5t29 -55t44 -31.5t56.5 -10q172 0 329 448q-22 422 -194 422q-81 0 -132.5 -59.5t-85.5 -247.5zM457 1538q0 94 70.5 151.5t182.5 57.5q57 0 114 -15v-137h-63q-142 0 -142 -82t205 -182v-28h-180q-187 96 -187 235z" />
<glyph unicode="&#x1f02;" d="M107 695q47 259 152 358.5t231 99.5q217 0 291 -286l87 265h169q-122 -310 -165 -502.5t-43 -407.5q0 -104 9 -221h-169l6 267q-135 -287 -353 -287q-49 0 -97 19.5t-86.5 60.5t-62 104t-23.5 149q0 37 4.5 77.5t12.5 86.5zM236 459q-8 -44 -12 -81t-4 -68 q0 -48 10.5 -81.5t29 -55t44 -31.5t56.5 -10q172 0 329 448q-22 422 -194 422q-81 0 -132.5 -59.5t-85.5 -247.5zM1061 1303h-139l-252 434h222zM605 1538q0 -139 -188 -235h-179v28q204 100 204 182t-142 82h-62v137q57 15 114 15q112 0 182.5 -57.5t70.5 -151.5z" />
<glyph unicode="&#x1f03;" d="M107 695q47 259 152 358.5t231 99.5q217 0 291 -286l87 265h169q-122 -310 -165 -502.5t-43 -407.5q0 -104 9 -221h-169l6 267q-135 -287 -353 -287q-49 0 -97 19.5t-86.5 60.5t-62 104t-23.5 149q0 37 4.5 77.5t12.5 86.5zM236 459q-8 -44 -12 -81t-4 -68 q0 -48 10.5 -81.5t29 -55t44 -31.5t56.5 -10q172 0 329 448q-22 422 -194 422q-81 0 -132.5 -59.5t-85.5 -247.5zM1033 1303h-139l-252 434h222zM210 1538q0 94 70.5 151.5t182.5 57.5q57 0 114 -15v-137h-63q-142 0 -142 -82t205 -182v-28h-180q-187 96 -187 235z" />
<glyph unicode="&#x1f04;" d="M107 695q47 259 152 358.5t231 99.5q217 0 291 -286l87 265h169q-122 -310 -165 -502.5t-43 -407.5q0 -104 9 -221h-169l6 267q-135 -287 -353 -287q-49 0 -97 19.5t-86.5 60.5t-62 104t-23.5 149q0 37 4.5 77.5t12.5 86.5zM236 459q-8 -44 -12 -81t-4 -68 q0 -48 10.5 -81.5t29 -55t44 -31.5t56.5 -10q172 0 329 448q-22 422 -194 422q-81 0 -132.5 -59.5t-85.5 -247.5zM852 1737h221l-251 -434h-139zM617 1538q0 -139 -187 -235h-180v28q205 100 205 182t-142 82h-63v137q57 15 114 15q112 0 182.5 -57.5t70.5 -151.5z" />
<glyph unicode="&#x1f05;" d="M107 695q47 259 152 358.5t231 99.5q217 0 291 -286l87 265h169q-122 -310 -165 -502.5t-43 -407.5q0 -104 9 -221h-169l6 267q-135 -287 -353 -287q-49 0 -97 19.5t-86.5 60.5t-62 104t-23.5 149q0 37 4.5 77.5t12.5 86.5zM236 459q-8 -44 -12 -81t-4 -68 q0 -48 10.5 -81.5t29 -55t44 -31.5t56.5 -10q172 0 329 448q-22 422 -194 422q-81 0 -132.5 -59.5t-85.5 -247.5zM851 1737h221l-251 -434h-139zM230 1538q0 94 70.5 151.5t182.5 57.5q57 0 114 -15v-137h-63q-142 0 -142 -82t205 -182v-28h-180q-187 96 -187 235z" />
<glyph unicode="&#x1f06;" d="M90 598q46 260 151.5 359.5t230.5 99.5q218 0 292 -287l87 266h168q-122 -311 -156 -455t-34 -359q0 -104 9 -221h-169l6 267q-135 -287 -353 -287q-49 0 -97 19.5t-86.5 60.5t-62 104t-23.5 149q0 37 4.5 77.5t12.5 86.5zM236 459q-8 -44 -12 -81t-4 -68 q0 -48 10.5 -81.5t29 -55t44 -31.5t56.5 -10q172 0 329 399q-40 374 -212 374q-80 0 -131.5 -59.5t-85.5 -247.5zM328 1614v76l12 44q37 137 181 137q73 0 140 -38l74 -42q57 -33 109 -33q61 0 80 74l9 39h104v-76l-12 -44q-37 -137 -181 -137q-68 0 -155 49l-51 30 q-59 34 -117 34q-61 0 -81 -73l-8 -40h-104zM761 1365q0 -113 -165 -179h-187v34q180 60 180 125q0 52 -87 52h-93v110q78 13 138 13q98 0 156 -41.5t58 -113.5z" />
<glyph unicode="&#x1f07;" d="M443 1365q0 72 58 113.5t157 41.5q60 0 128 -13v-110h-84q-87 0 -87 -52q0 -65 171 -125v-34h-177q-166 66 -166 179zM327 1614v76l11 44q37 137 181 137q73 0 140 -38l74 -42q57 -33 109 -33q61 0 81 74l8 39h104v-76l-12 -44q-37 -137 -181 -137q-68 0 -155 49l-51 30 q-59 34 -117 34q-61 0 -80 -73l-9 -40h-103zM90 598q46 260 151.5 359.5t230.5 99.5q218 0 292 -287l87 266h168q-122 -311 -156 -455t-34 -359q0 -104 9 -221h-169l6 267q-135 -287 -353 -287q-49 0 -97 19.5t-86.5 60.5t-62 104t-23.5 149q0 37 4.5 77.5t12.5 86.5z M236 459q-8 -44 -12 -81t-4 -68q0 -48 10.5 -81.5t29 -55t44 -31.5t56.5 -10q172 0 329 399q-40 374 -212 374q-80 0 -131.5 -59.5t-85.5 -247.5z" />
<glyph unicode="&#x1f08;" d="M617 1631q0 -139 -188 -235h-180v28q205 100 205 182t-142 82h-63v137q57 15 114 15q112 0 183 -57.5t71 -151.5zM757 1285q56 -653 56 -886q0 -222 -8 -314l-6 -85h-170q14 153 14 357h-421q-78 -213 -78 -357h-170q0 217 155 566l322 719h306zM598 1256l-317 -754h363 q0 150 -18 374z" />
<glyph unicode="&#x1f09;" d="M241 1631q0 94 70.5 151.5t182.5 57.5q57 0 114 -15v-137h-63q-142 0 -142 -82t205 -182v-28h-180q-187 96 -187 235zM757 1285q56 -653 56 -886q0 -222 -8 -314l-6 -85h-170q14 153 14 357h-421q-78 -213 -78 -357h-170q0 217 155 566l322 719h306zM598 1256l-317 -754 h363q0 150 -18 374z" />
<glyph unicode="&#x1f0a;" d="M757 1285q56 -653 56 -886q0 -222 -8 -314l-6 -85h-170q14 153 14 357h-421q-78 -213 -78 -357h-170q0 217 155 566l322 719h306zM598 1256l-317 -754h363q0 150 -18 374zM1022 1396h-139l-252 434h222zM566 1631q0 -139 -188 -235h-179v28q204 100 204 182t-142 82h-62 v137q57 15 114 15q112 0 182.5 -57.5t70.5 -151.5z" />
<glyph unicode="&#x1f0b;" d="M1004 1396h-139l-252 434h222zM181 1631q0 94 70.5 151.5t182.5 57.5q57 0 114 -15v-137h-63q-142 0 -142 -82t205 -182v-28h-180q-187 96 -187 235zM757 1285q56 -653 56 -886q0 -222 -8 -314l-6 -85h-170q14 153 14 357h-421q-78 -213 -78 -357h-170q0 217 155 566 l322 719h306zM598 1256l-317 -754h363q0 150 -18 374z" />
<glyph unicode="&#x1f0c;" d="M852 1830h221l-251 -434h-139zM617 1631q0 -139 -187 -235h-180v28q205 100 205 182t-142 82h-63v137q57 15 114 15q112 0 182.5 -57.5t70.5 -151.5zM757 1285q56 -653 56 -886q0 -222 -8 -314l-6 -85h-170q14 153 14 357h-421q-78 -213 -78 -357h-170q0 217 155 566 l322 719h306zM598 1256l-317 -754h363q0 150 -18 374z" />
<glyph unicode="&#x1f0d;" d="M851 1830h221l-251 -434h-139zM230 1631q0 94 70.5 151.5t182.5 57.5q57 0 114 -15v-137h-63q-142 0 -142 -82t205 -182v-28h-180q-187 96 -187 235zM757 1285q56 -653 56 -886q0 -222 -8 -314l-6 -85h-170q14 153 14 357h-421q-78 -213 -78 -357h-170q0 217 155 566 l322 719h306zM598 1256l-317 -754h363q0 150 -18 374z" />
<glyph unicode="&#x1f0e;" d="M328 1614v76l12 44q37 137 181 137q73 0 140 -38l74 -42q57 -33 109 -33q61 0 80 74l9 39h104v-76l-12 -44q-37 -137 -181 -137q-68 0 -155 49l-51 30q-59 34 -117 34q-61 0 -81 -73l-8 -40h-104zM761 1365q0 -113 -165 -179h-187v34q180 60 180 125q0 52 -87 52h-93v110 q78 13 138 13q98 0 156 -41.5t58 -113.5zM718 1036l51 -368q40 -288 40 -599v-69h-167v69q0 84 -4 221h-410q-52 -137 -67 -221l-11 -69h-176l12 69q31 178 235 599l183 368h314zM560 1012l-201 -421q-47 -99 -71 -156h342q-5 57 -17 156z" />
<glyph unicode="&#x1f0f;" d="M443 1365q0 72 58 113.5t157 41.5q60 0 128 -13v-110h-84q-87 0 -87 -52q0 -65 171 -125v-34h-177q-166 66 -166 179zM327 1614v76l11 44q37 137 181 137q73 0 140 -38l74 -42q57 -33 109 -33q61 0 81 74l8 39h104v-76l-12 -44q-37 -137 -181 -137q-68 0 -155 49l-51 30 q-59 34 -117 34q-61 0 -80 -73l-9 -40h-103zM718 1036l51 -368q40 -288 40 -599v-69h-167v69q0 84 -4 221h-410q-52 -137 -67 -221l-11 -69h-176l12 69q31 178 235 599l183 368h314zM560 1012l-201 -421q-47 -99 -71 -156h342q-5 57 -17 156z" />
<glyph unicode="&#x1f10;" d="M843 191q-159 -210 -427 -210q-177 0 -270 95t-93 219q0 122 68 201t183 102q-128 75 -128 209q0 149 116.5 247.5t291.5 98.5q237 0 361 -216l-135 -82q-66 147 -242 147q-99 0 -161.5 -52t-62.5 -136q0 -79 55 -119t127 -40h81v-152h-127q-123 0 -189.5 -47.5 t-66.5 -151.5q0 -82 54 -127.5t156 -45.5q187 0 286 156zM808 1538q0 -139 -188 -235h-180v28q205 100 205 182t-142 82h-63v137q57 15 114 15q112 0 183 -57.5t71 -151.5z" />
<glyph unicode="&#x1f11;" d="M457 1538q0 94 70.5 151.5t182.5 57.5q57 0 114 -15v-137h-63q-142 0 -142 -82t205 -182v-28h-180q-187 96 -187 235zM843 191q-159 -210 -427 -210q-177 0 -270 95t-93 219q0 122 68 201t183 102q-128 75 -128 209q0 149 116.5 247.5t291.5 98.5q237 0 361 -216 l-135 -82q-66 147 -242 147q-99 0 -161.5 -52t-62.5 -136q0 -79 55 -119t127 -40h81v-152h-127q-123 0 -189.5 -47.5t-66.5 -151.5q0 -82 54 -127.5t156 -45.5q187 0 286 156z" />
<glyph unicode="&#x1f12;" d="M1061 1303h-139l-252 434h222zM605 1538q0 -139 -188 -235h-179v28q204 100 204 182t-142 82h-62v137q57 15 114 15q112 0 182.5 -57.5t70.5 -151.5zM843 191q-159 -210 -427 -210q-177 0 -270 95t-93 219q0 122 68 201t183 102q-128 75 -128 209q0 149 116.5 247.5 t291.5 98.5q237 0 361 -216l-135 -82q-66 147 -242 147q-99 0 -161.5 -52t-62.5 -136q0 -79 55 -119t127 -40h81v-152h-127q-123 0 -189.5 -47.5t-66.5 -151.5q0 -82 54 -127.5t156 -45.5q187 0 286 156z" />
<glyph unicode="&#x1f13;" d="M1033 1303h-139l-252 434h222zM210 1538q0 94 70.5 151.5t182.5 57.5q57 0 114 -15v-137h-63q-142 0 -142 -82t205 -182v-28h-180q-187 96 -187 235zM843 191q-159 -210 -427 -210q-177 0 -270 95t-93 219q0 122 68 201t183 102q-128 75 -128 209q0 149 116.5 247.5 t291.5 98.5q237 0 361 -216l-135 -82q-66 147 -242 147q-99 0 -161.5 -52t-62.5 -136q0 -79 55 -119t127 -40h81v-152h-127q-123 0 -189.5 -47.5t-66.5 -151.5q0 -82 54 -127.5t156 -45.5q187 0 286 156z" />
<glyph unicode="&#x1f14;" d="M852 1737h221l-251 -434h-139zM617 1538q0 -139 -187 -235h-180v28q205 100 205 182t-142 82h-63v137q57 15 114 15q112 0 182.5 -57.5t70.5 -151.5zM843 191q-159 -210 -427 -210q-177 0 -270 95t-93 219q0 122 68 201t183 102q-128 75 -128 209q0 149 116.5 247.5 t291.5 98.5q237 0 361 -216l-135 -82q-66 147 -242 147q-99 0 -161.5 -52t-62.5 -136q0 -79 55 -119t127 -40h81v-152h-127q-123 0 -189.5 -47.5t-66.5 -151.5q0 -82 54 -127.5t156 -45.5q187 0 286 156z" />
<glyph unicode="&#x1f15;" d="M851 1737h221l-251 -434h-139zM230 1538q0 94 70.5 151.5t182.5 57.5q57 0 114 -15v-137h-63q-142 0 -142 -82t205 -182v-28h-180q-187 96 -187 235zM843 191q-159 -210 -427 -210q-177 0 -270 95t-93 219q0 122 68 201t183 102q-128 75 -128 209q0 149 116.5 247.5 t291.5 98.5q237 0 361 -216l-135 -82q-66 147 -242 147q-99 0 -161.5 -52t-62.5 -136q0 -79 55 -119t127 -40h81v-152h-127q-123 0 -189.5 -47.5t-66.5 -151.5q0 -82 54 -127.5t156 -45.5q187 0 286 156z" />
<glyph unicode="&#x1f18;" d="M629 1631q0 -139 -188 -235h-180v28q205 100 205 182t-142 82h-63v137q57 15 114 15q112 0 183 -57.5t71 -151.5zM96 236l184 1049h690v-145h-545l-55 -309h381v-145h-406l-96 -541h520v-145h-697q0 106 24 236z" />
<glyph unicode="&#x1f19;" d="M248 1631q0 94 70.5 151.5t182.5 57.5q57 0 114 -15v-137h-63q-142 0 -142 -82t205 -182v-28h-180q-187 96 -187 235zM96 236l184 1049h690v-145h-545l-55 -309h381v-145h-406l-96 -541h520v-145h-697q0 106 24 236z" />
<glyph unicode="&#x1f1a;" d="M1022 1396h-139l-252 434h222zM566 1631q0 -139 -188 -235h-179v28q204 100 204 182t-142 82h-62v137q57 15 114 15q112 0 182.5 -57.5t70.5 -151.5zM96 236l184 1049h690v-145h-545l-55 -309h381v-145h-406l-96 -541h520v-145h-697q0 106 24 236z" />
<glyph unicode="&#x1f1b;" d="M1033 1396h-139l-252 434h222zM210 1631q0 94 70.5 151.5t182.5 57.5q57 0 114 -15v-137h-63q-142 0 -142 -82t205 -182v-28h-180q-187 96 -187 235zM96 236l184 1049h690v-145h-545l-55 -309h381v-145h-406l-96 -541h520v-145h-697q0 106 24 236z" />
<glyph unicode="&#x1f1c;" d="M852 1830h221l-251 -434h-139zM617 1631q0 -139 -187 -235h-180v28q205 100 205 182t-142 82h-63v137q57 15 114 15q112 0 182.5 -57.5t70.5 -151.5zM96 236l184 1049h690v-145h-545l-55 -309h381v-145h-406l-96 -541h520v-145h-697q0 106 24 236z" />
<glyph unicode="&#x1f1d;" d="M851 1830h221l-251 -434h-139zM230 1631q0 94 70.5 151.5t182.5 57.5q57 0 114 -15v-137h-63q-142 0 -142 -82t205 -182v-28h-180q-187 96 -187 235zM96 236l184 1049h690v-145h-545l-55 -309h381v-145h-406l-96 -541h520v-145h-697q0 106 24 236z" />
<glyph unicode="&#x1f20;" d="M686 -353h-170l192 1087q5 28 7.5 52t2.5 47q0 69 -25 105q-41 58 -121 58q-168 0 -256 -249l-131 -747h-171l199 1132h171l-23 -125q116 146 271 146q126 0 205 -103q52 -70 52 -191q0 -63 -13 -135zM808 1538q0 -139 -188 -235h-180v28q205 100 205 182t-142 82h-63 v137q57 15 114 15q112 0 183 -57.5t71 -151.5z" />
<glyph unicode="&#x1f21;" d="M457 1538q0 94 70.5 151.5t182.5 57.5q57 0 114 -15v-137h-63q-142 0 -142 -82t205 -182v-28h-180q-187 96 -187 235zM686 -353h-170l192 1087q5 28 7.5 52t2.5 47q0 69 -25 105q-41 58 -121 58q-168 0 -256 -249l-131 -747h-171l199 1132h171l-23 -125q116 146 271 146 q126 0 205 -103q52 -70 52 -191q0 -63 -13 -135z" />
<glyph unicode="&#x1f22;" d="M1061 1303h-139l-252 434h222zM605 1538q0 -139 -188 -235h-179v28q204 100 204 182t-142 82h-62v137q57 15 114 15q112 0 182.5 -57.5t70.5 -151.5zM686 -353h-170l192 1087q5 28 7.5 52t2.5 47q0 69 -25 105q-41 58 -121 58q-168 0 -256 -249l-131 -747h-171l199 1132 h171l-23 -125q116 146 271 146q126 0 205 -103q52 -70 52 -191q0 -63 -13 -135z" />
<glyph unicode="&#x1f23;" d="M994 1303h-139l-252 434h222zM171 1538q0 94 70.5 151.5t182.5 57.5q57 0 114 -15v-137h-63q-142 0 -142 -82t205 -182v-28h-180q-187 96 -187 235zM686 -353h-170l192 1087q5 28 7.5 52t2.5 47q0 69 -25 105q-41 58 -121 58q-168 0 -256 -249l-131 -747h-171l199 1132 h171l-23 -125q116 146 271 146q126 0 205 -103q52 -70 52 -191q0 -63 -13 -135z" />
<glyph unicode="&#x1f24;" d="M852 1737h221l-251 -434h-139zM617 1538q0 -139 -187 -235h-180v28q205 100 205 182t-142 82h-63v137q57 15 114 15q112 0 182.5 -57.5t70.5 -151.5zM686 -353h-170l192 1087q5 28 7.5 52t2.5 47q0 69 -25 105q-41 58 -121 58q-168 0 -256 -249l-131 -747h-171l199 1132 h171l-23 -125q116 146 271 146q126 0 205 -103q52 -70 52 -191q0 -63 -13 -135z" />
<glyph unicode="&#x1f25;" d="M851 1737h221l-251 -434h-139zM230 1538q0 94 70.5 151.5t182.5 57.5q57 0 114 -15v-137h-63q-142 0 -142 -82t205 -182v-28h-180q-187 96 -187 235zM686 -353h-170l192 1087q5 28 7.5 52t2.5 47q0 69 -25 105q-41 58 -121 58q-168 0 -256 -249l-131 -747h-171l199 1132 h171l-23 -125q116 146 271 146q126 0 205 -103q52 -70 52 -191q0 -63 -13 -135z" />
<glyph unicode="&#x1f26;" d="M328 1614v76l12 44q37 137 181 137q73 0 140 -38l74 -42q57 -33 109 -33q61 0 80 74l9 39h104v-76l-12 -44q-37 -137 -181 -137q-68 0 -155 49l-51 30q-59 34 -117 34q-61 0 -81 -73l-8 -40h-104zM761 1365q0 -113 -165 -179h-187v34q180 60 180 125q0 52 -87 52h-93v110 q78 13 138 13q98 0 156 -41.5t58 -113.5zM686 -353h-170l176 991q4 28 6.5 52t2.5 46q0 70 -25 105q-40 58 -121 58q-168 0 -256 -249l-114 -650h-171l183 1036h170l-22 -126q116 147 270 147q127 0 205 -104q52 -69 52 -191q0 -63 -12 -134z" />
<glyph unicode="&#x1f27;" d="M443 1365q0 72 58 113.5t157 41.5q60 0 128 -13v-110h-84q-87 0 -87 -52q0 -65 171 -125v-34h-177q-166 66 -166 179zM327 1614v76l11 44q37 137 181 137q73 0 140 -38l74 -42q57 -33 109 -33q61 0 81 74l8 39h104v-76l-12 -44q-37 -137 -181 -137q-68 0 -155 49l-51 30 q-59 34 -117 34q-61 0 -80 -73l-9 -40h-103zM686 -353h-170l176 991q4 28 6.5 52t2.5 46q0 70 -25 105q-40 58 -121 58q-168 0 -256 -249l-114 -650h-171l183 1036h170l-22 -126q116 147 270 147q127 0 205 -104q52 -69 52 -191q0 -63 -12 -134z" />
<glyph unicode="&#x1f28;" d="M623 1631q0 -139 -188 -235h-180v28q205 100 205 182t-142 82h-63v137q57 15 114 15q112 0 183 -57.5t71 -151.5zM744 0h-170l121 686h-395l-120 -686h-170l226 1285h170l-80 -454h394l80 454h170z" />
<glyph unicode="&#x1f29;" d="M231 1631q0 94 70.5 151.5t182.5 57.5q57 0 114 -15v-137h-63q-142 0 -142 -82t205 -182v-28h-180q-187 96 -187 235zM744 0h-170l121 686h-395l-120 -686h-170l226 1285h170l-80 -454h394l80 454h170z" />
<glyph unicode="&#x1f2a;" d="M1022 1396h-139l-252 434h222zM566 1631q0 -139 -188 -235h-179v28q204 100 204 182t-142 82h-62v137q57 15 114 15q112 0 182.5 -57.5t70.5 -151.5zM744 0h-170l121 686h-395l-120 -686h-170l226 1285h170l-80 -454h394l80 454h170z" />
<glyph unicode="&#x1f2b;" d="M1004 1396h-139l-252 434h222zM181 1631q0 94 70.5 151.5t182.5 57.5q57 0 114 -15v-137h-63q-142 0 -142 -82t205 -182v-28h-180q-187 96 -187 235zM744 0h-170l121 686h-395l-120 -686h-170l226 1285h170l-80 -454h394l80 454h170z" />
<glyph unicode="&#x1f2c;" d="M852 1830h221l-251 -434h-139zM617 1631q0 -139 -187 -235h-180v28q205 100 205 182t-142 82h-63v137q57 15 114 15q112 0 182.5 -57.5t70.5 -151.5zM744 0h-170l121 686h-395l-120 -686h-170l226 1285h170l-80 -454h394l80 454h170z" />
<glyph unicode="&#x1f2d;" d="M851 1830h221l-251 -434h-139zM230 1631q0 94 70.5 151.5t182.5 57.5q57 0 114 -15v-137h-63q-142 0 -142 -82t205 -182v-28h-180q-187 96 -187 235zM744 0h-170l121 686h-395l-120 -686h-170l226 1285h170l-80 -454h394l80 454h170z" />
<glyph unicode="&#x1f2e;" d="M328 1614v76l12 44q37 137 181 137q73 0 140 -38l74 -42q57 -33 109 -33q61 0 80 74l9 39h104v-76l-12 -44q-37 -137 -181 -137q-68 0 -155 49l-51 30q-59 34 -117 34q-61 0 -81 -73l-8 -40h-104zM761 1365q0 -113 -165 -179h-187v34q180 60 180 125q0 52 -87 52h-93v110 q78 13 138 13q98 0 156 -41.5t58 -113.5zM744 0h-170l96 551h-394l-96 -551h-170l182 1036h170l-61 -340h395l60 340h170z" />
<glyph unicode="&#x1f2f;" d="M443 1365q0 72 58 113.5t157 41.5q60 0 128 -13v-110h-84q-87 0 -87 -52q0 -65 171 -125v-34h-177q-166 66 -166 179zM327 1614v76l11 44q37 137 181 137q73 0 140 -38l74 -42q57 -33 109 -33q61 0 81 74l8 39h104v-76l-12 -44q-37 -137 -181 -137q-68 0 -155 49l-51 30 q-59 34 -117 34q-61 0 -80 -73l-9 -40h-103zM744 0h-170l96 551h-394l-96 -551h-170l182 1036h170l-61 -340h395l60 340h170z" />
<glyph unicode="&#x1f30;" d="M584 1132q0 -106 -23 -236l-99 -563q-6 -32 -6 -59q0 -72 35 -107.5t94 -35.5q109 0 186 126l127 -99q-130 -177 -319 -177q-135 0 -214 77t-79 206q0 42 9 91l110 625h-220v152h399zM808 1538q0 -139 -188 -235h-180v28q205 100 205 182t-142 82h-63v137q57 15 114 15 q112 0 183 -57.5t71 -151.5z" />
<glyph unicode="&#x1f31;" d="M584 1132q0 -106 -23 -236l-99 -563q-6 -32 -6 -59q0 -72 35 -107.5t94 -35.5q109 0 186 126l127 -99q-130 -177 -319 -177q-135 0 -214 77t-79 206q0 42 9 91l110 625h-220v152h399zM457 1538q0 94 70.5 151.5t182.5 57.5q57 0 114 -15v-137h-63q-142 0 -142 -82 t205 -182v-28h-180q-187 96 -187 235z" />
<glyph unicode="&#x1f32;" d="M584 1132q0 -106 -23 -236l-99 -563q-6 -32 -6 -59q0 -72 35 -107.5t94 -35.5q109 0 186 126l127 -99q-130 -177 -319 -177q-135 0 -214 77t-79 206q0 42 9 91l110 625h-220v152h399zM1061 1303h-139l-252 434h222zM605 1538q0 -139 -188 -235h-179v28q204 100 204 182 t-142 82h-62v137q57 15 114 15q112 0 182.5 -57.5t70.5 -151.5z" />
<glyph unicode="&#x1f33;" d="M1033 1303h-139l-252 434h222zM210 1538q0 94 70.5 151.5t182.5 57.5q57 0 114 -15v-137h-63q-142 0 -142 -82t205 -182v-28h-180q-187 96 -187 235zM584 1132q0 -106 -23 -236l-99 -563q-6 -32 -6 -59q0 -72 35 -107.5t94 -35.5q109 0 186 126l127 -99 q-130 -177 -319 -177q-135 0 -214 77t-79 206q0 42 9 91l110 625h-220v152h399z" />
<glyph unicode="&#x1f34;" d="M852 1737h221l-251 -434h-139zM617 1538q0 -139 -187 -235h-180v28q205 100 205 182t-142 82h-63v137q57 15 114 15q112 0 182.5 -57.5t70.5 -151.5zM584 1132q0 -106 -23 -236l-99 -563q-6 -32 -6 -59q0 -72 35 -107.5t94 -35.5q109 0 186 126l127 -99 q-130 -177 -319 -177q-135 0 -214 77t-79 206q0 42 9 91l110 625h-220v152h399z" />
<glyph unicode="&#x1f35;" d="M851 1737h221l-251 -434h-139zM230 1538q0 94 70.5 151.5t182.5 57.5q57 0 114 -15v-137h-63q-142 0 -142 -82t205 -182v-28h-180q-187 96 -187 235zM584 1132q0 -106 -23 -236l-99 -563q-6 -32 -6 -59q0 -72 35 -107.5t94 -35.5q109 0 186 126l127 -99 q-130 -177 -319 -177q-135 0 -214 77t-79 206q0 42 9 91l110 625h-220v152h399z" />
<glyph unicode="&#x1f36;" d="M289 1614v76l12 44q37 137 181 137q73 0 140 -38l74 -42q57 -33 109 -33q61 0 80 74l9 39h104v-76l-12 -44q-37 -137 -181 -137q-68 0 -155 49l-51 30q-59 34 -117 34q-61 0 -81 -73l-8 -40h-104zM722 1365q0 -113 -165 -179h-187v34q180 60 180 125q0 52 -87 52h-93v110 q78 13 138 13q98 0 156 -41.5t58 -113.5zM568 1036q0 -107 -23 -236l-83 -467q-6 -32 -6 -59q0 -72 35 -107.5t94 -35.5q109 0 186 126l127 -99q-130 -177 -319 -177q-135 0 -214 77t-79 206q0 42 9 91l93 529h-219v152h399z" />
<glyph unicode="&#x1f37;" d="M404 1365q0 72 58 113.5t157 41.5q60 0 128 -13v-110h-84q-87 0 -87 -52q0 -65 171 -125v-34h-177q-166 66 -166 179zM288 1614v76l11 44q37 137 181 137q73 0 140 -38l74 -42q57 -33 109 -33q61 0 81 74l8 39h104v-76l-12 -44q-37 -137 -181 -137q-68 0 -155 49l-51 30 q-59 34 -117 34q-61 0 -80 -73l-9 -40h-103zM568 1036q0 -107 -23 -236l-83 -467q-6 -32 -6 -59q0 -72 35 -107.5t94 -35.5q109 0 186 126l127 -99q-130 -177 -319 -177q-135 0 -214 77t-79 206q0 42 9 91l93 529h-219v152h399z" />
<glyph unicode="&#x1f38;" d="M639 1631q0 -139 -188 -235h-180v28q205 100 205 182t-142 82h-63v137q57 15 114 15q112 0 183 -57.5t71 -151.5zM724 0h-653v145h245l176 995h-190v145h550v-145h-189l-176 -995h237v-145z" />
<glyph unicode="&#x1f39;" d="M239 1631q0 94 70.5 151.5t182.5 57.5q57 0 114 -15v-137h-63q-142 0 -142 -82t205 -182v-28h-180q-187 96 -187 235zM724 0h-653v145h245l176 995h-190v145h550v-145h-189l-176 -995h237v-145z" />
<glyph unicode="&#x1f3a;" d="M1022 1396h-139l-252 434h222zM566 1631q0 -139 -188 -235h-179v28q204 100 204 182t-142 82h-62v137q57 15 114 15q112 0 182.5 -57.5t70.5 -151.5zM724 0h-653v145h245l176 995h-190v145h550v-145h-189l-176 -995h237v-145z" />
<glyph unicode="&#x1f3b;" d="M1004 1396h-139l-252 434h222zM181 1631q0 94 70.5 151.5t182.5 57.5q57 0 114 -15v-137h-63q-142 0 -142 -82t205 -182v-28h-180q-187 96 -187 235zM724 0h-653v145h245l176 995h-190v145h550v-145h-189l-176 -995h237v-145z" />
<glyph unicode="&#x1f3c;" d="M852 1830h221l-251 -434h-139zM617 1631q0 -139 -187 -235h-180v28q205 100 205 182t-142 82h-63v137q57 15 114 15q112 0 182.5 -57.5t70.5 -151.5zM724 0h-653v145h245l176 995h-190v145h550v-145h-189l-176 -995h237v-145z" />
<glyph unicode="&#x1f3d;" d="M851 1830h221l-251 -434h-139zM230 1631q0 94 70.5 151.5t182.5 57.5q57 0 114 -15v-137h-63q-142 0 -142 -82t205 -182v-28h-180q-187 96 -187 235zM724 0h-653v145h245l176 995h-190v145h550v-145h-189l-176 -995h237v-145z" />
<glyph unicode="&#x1f3e;" d="M328 1614v76l12 44q37 137 181 137q73 0 140 -38l74 -42q57 -33 109 -33q61 0 80 74l9 39h104v-76l-12 -44q-37 -137 -181 -137q-68 0 -155 49l-51 30q-59 34 -117 34q-61 0 -81 -73l-8 -40h-104zM761 1365q0 -113 -165 -179h-187v34q180 60 180 125q0 52 -87 52h-93v110 q78 13 138 13q98 0 156 -41.5t58 -113.5zM724 0h-653v145h245l131 746h-189v145h550v-145h-190l-131 -746h237v-145z" />
<glyph unicode="&#x1f3f;" d="M443 1365q0 72 58 113.5t157 41.5q60 0 128 -13v-110h-84q-87 0 -87 -52q0 -65 171 -125v-34h-177q-166 66 -166 179zM327 1614v76l11 44q37 137 181 137q73 0 140 -38l74 -42q57 -33 109 -33q61 0 81 74l8 39h104v-76l-12 -44q-37 -137 -181 -137q-68 0 -155 49l-51 30 q-59 34 -117 34q-61 0 -80 -73l-9 -40h-103zM724 0h-653v145h245l131 746h-189v145h550v-145h-190l-131 -746h237v-145z" />
<glyph unicode="&#x1f40;" d="M543 999q-92 0 -160 -77q-69 -78 -104 -278q-41 -212 -41 -301q0 -87 29 -131q50 -77 143 -77q91 0 160 78q69 77 103 277q42 212 42 301q0 87 -29 132q-50 76 -143 76zM392 -19q-168 0 -261 134q-61 91 -61 236q0 94 43 313q23 130 63 223t99 151q118 115 285 115 q168 0 261 -134q62 -91 62 -236q0 -94 -44 -313q-23 -130 -63 -223t-99 -151q-118 -115 -285 -115zM808 1538q0 -139 -188 -235h-180v28q205 100 205 182t-142 82h-63v137q57 15 114 15q112 0 183 -57.5t71 -151.5z" />
<glyph unicode="&#x1f41;" d="M457 1538q0 94 70.5 151.5t182.5 57.5q57 0 114 -15v-137h-63q-142 0 -142 -82t205 -182v-28h-180q-187 96 -187 235zM543 999q-92 0 -160 -77q-69 -78 -104 -278q-41 -212 -41 -301q0 -87 29 -131q50 -77 143 -77q91 0 160 78q69 77 103 277q42 212 42 301q0 87 -29 132 q-50 76 -143 76zM392 -19q-168 0 -261 134q-61 91 -61 236q0 94 43 313q23 130 63 223t99 151q118 115 285 115q168 0 261 -134q62 -91 62 -236q0 -94 -44 -313q-23 -130 -63 -223t-99 -151q-118 -115 -285 -115z" />
<glyph unicode="&#x1f42;" d="M1061 1303h-139l-252 434h222zM605 1538q0 -139 -188 -235h-179v28q204 100 204 182t-142 82h-62v137q57 15 114 15q112 0 182.5 -57.5t70.5 -151.5zM543 999q-92 0 -160 -77q-69 -78 -104 -278q-41 -212 -41 -301q0 -87 29 -131q50 -77 143 -77q91 0 160 78 q69 77 103 277q42 212 42 301q0 87 -29 132q-50 76 -143 76zM392 -19q-168 0 -261 134q-61 91 -61 236q0 94 43 313q23 130 63 223t99 151q118 115 285 115q168 0 261 -134q62 -91 62 -236q0 -94 -44 -313q-23 -130 -63 -223t-99 -151q-118 -115 -285 -115z" />
<glyph unicode="&#x1f43;" d="M1014 1303h-139l-252 434h222zM191 1538q0 94 70.5 151.5t182.5 57.5q57 0 114 -15v-137h-63q-142 0 -142 -82t205 -182v-28h-180q-187 96 -187 235zM543 999q-92 0 -160 -77q-69 -78 -104 -278q-41 -212 -41 -301q0 -87 29 -131q50 -77 143 -77q91 0 160 78 q69 77 103 277q42 212 42 301q0 87 -29 132q-50 76 -143 76zM392 -19q-168 0 -261 134q-61 91 -61 236q0 94 43 313q23 130 63 223t99 151q118 115 285 115q168 0 261 -134q62 -91 62 -236q0 -94 -44 -313q-23 -130 -63 -223t-99 -151q-118 -115 -285 -115z" />
<glyph unicode="&#x1f44;" d="M852 1737h221l-251 -434h-139zM617 1538q0 -139 -187 -235h-180v28q205 100 205 182t-142 82h-63v137q57 15 114 15q112 0 182.5 -57.5t70.5 -151.5zM543 999q-92 0 -160 -77q-69 -78 -104 -278q-41 -212 -41 -301q0 -87 29 -131q50 -77 143 -77q91 0 160 78 q69 77 103 277q42 212 42 301q0 87 -29 132q-50 76 -143 76zM392 -19q-168 0 -261 134q-61 91 -61 236q0 94 43 313q23 130 63 223t99 151q118 115 285 115q168 0 261 -134q62 -91 62 -236q0 -94 -44 -313q-23 -130 -63 -223t-99 -151q-118 -115 -285 -115z" />
<glyph unicode="&#x1f45;" d="M851 1737h221l-251 -434h-139zM230 1538q0 94 70.5 151.5t182.5 57.5q57 0 114 -15v-137h-63q-142 0 -142 -82t205 -182v-28h-180q-187 96 -187 235zM543 999q-92 0 -160 -77q-69 -78 -104 -278q-41 -212 -41 -301q0 -87 29 -131q50 -77 143 -77q91 0 160 78 q69 77 103 277q42 212 42 301q0 87 -29 132q-50 76 -143 76zM392 -19q-168 0 -261 134q-61 91 -61 236q0 94 43 313q23 130 63 223t99 151q118 115 285 115q168 0 261 -134q62 -91 62 -236q0 -94 -44 -313q-23 -130 -63 -223t-99 -151q-118 -115 -285 -115z" />
<glyph unicode="&#x1f48;" d="M86 482l91 514q28 163 112 235.5t231 72.5h134q127 0 200 -68.5t73 -192.5q0 -38 -7 -86l-91 -514q-44 -251 -158 -356.5t-278 -105.5q-162 0 -242 103t-80 250q0 67 15 148zM254 463q-14 -74 -14 -137q1 -90 42 -140.5t127 -50.5q94 0 156.5 70t96.5 258l92 523 q4 22 4 44q0 120 -142 120h-96q-145 0 -170 -144zM612 1631q0 -139 -188 -235h-180v28q205 100 205 182t-142 82h-63v137q57 15 114 15q112 0 183 -57.5t71 -151.5z" />
<glyph unicode="&#x1f49;" d="M259 1631q0 94 70.5 151.5t182.5 57.5q57 0 114 -15v-137h-63q-142 0 -142 -82t205 -182v-28h-180q-187 96 -187 235zM86 482l91 514q28 163 112 235.5t231 72.5h134q127 0 200 -68.5t73 -192.5q0 -38 -7 -86l-91 -514q-44 -251 -158 -356.5t-278 -105.5q-162 0 -242 103 t-80 250q0 67 15 148zM254 463q-14 -74 -14 -137q1 -90 42 -140.5t127 -50.5q94 0 156.5 70t96.5 258l92 523q4 22 4 44q0 120 -142 120h-96q-145 0 -170 -144z" />
<glyph unicode="&#x1f4a;" d="M1061 1396h-139l-252 434h222zM605 1631q0 -139 -188 -235h-179v28q204 100 204 182t-142 82h-62v137q57 15 114 15q112 0 182.5 -57.5t70.5 -151.5zM86 482l91 514q28 163 112 235.5t231 72.5h134q127 0 200 -68.5t73 -192.5q0 -38 -7 -86l-91 -514 q-44 -251 -158 -356.5t-278 -105.5q-162 0 -242 103t-80 250q0 67 15 148zM254 463q-14 -74 -14 -137q1 -90 42 -140.5t127 -50.5q94 0 156.5 70t96.5 258l92 523q4 22 4 44q0 120 -142 120h-96q-145 0 -170 -144z" />
<glyph unicode="&#x1f4b;" d="M985 1396h-139l-252 434h222zM162 1631q0 94 70.5 151.5t182.5 57.5q57 0 114 -15v-137h-63q-142 0 -142 -82t205 -182v-28h-180q-187 96 -187 235zM86 482l91 514q28 163 112 235.5t231 72.5h134q127 0 200 -68.5t73 -192.5q0 -38 -7 -86l-91 -514q-44 -251 -158 -356.5 t-278 -105.5q-162 0 -242 103t-80 250q0 67 15 148zM254 463q-14 -74 -14 -137q1 -90 42 -140.5t127 -50.5q94 0 156.5 70t96.5 258l92 523q4 22 4 44q0 120 -142 120h-96q-145 0 -170 -144z" />
<glyph unicode="&#x1f4c;" d="M852 1830h221l-251 -434h-139zM617 1631q0 -139 -187 -235h-180v28q205 100 205 182t-142 82h-63v137q57 15 114 15q112 0 182.5 -57.5t70.5 -151.5zM86 482l91 514q28 163 112 235.5t231 72.5h134q127 0 200 -68.5t73 -192.5q0 -38 -7 -86l-91 -514 q-44 -251 -158 -356.5t-278 -105.5q-162 0 -242 103t-80 250q0 67 15 148zM254 463q-14 -74 -14 -137q1 -90 42 -140.5t127 -50.5q94 0 156.5 70t96.5 258l92 523q4 22 4 44q0 120 -142 120h-96q-145 0 -170 -144z" />
<glyph unicode="&#x1f4d;" d="M851 1830h221l-251 -434h-139zM230 1631q0 94 70.5 151.5t182.5 57.5q57 0 114 -15v-137h-63q-142 0 -142 -82t205 -182v-28h-180q-187 96 -187 235zM86 482l91 514q28 163 112 235.5t231 72.5h134q127 0 200 -68.5t73 -192.5q0 -38 -7 -86l-91 -514 q-44 -251 -158 -356.5t-278 -105.5q-162 0 -242 103t-80 250q0 67 15 148zM254 463q-14 -74 -14 -137q1 -90 42 -140.5t127 -50.5q94 0 156.5 70t96.5 258l92 523q4 22 4 44q0 120 -142 120h-96q-145 0 -170 -144z" />
<glyph unicode="&#x1f50;" d="M392 -19q-144 0 -232.5 92t-88.5 246q0 62 12 130l121 683h170l-128 -725q-8 -50 -8 -89q0 -92 51.5 -139t120.5 -47q83 0 148.5 63.5t98.5 249.5q55 314 55 687h170q0 -375 -56 -692q-45 -251 -162.5 -355t-271.5 -104zM808 1538q0 -139 -188 -235h-180v28 q205 100 205 182t-142 82h-63v137q57 15 114 15q112 0 183 -57.5t71 -151.5z" />
<glyph unicode="&#x1f51;" d="M457 1538q0 94 70.5 151.5t182.5 57.5q57 0 114 -15v-137h-63q-142 0 -142 -82t205 -182v-28h-180q-187 96 -187 235zM392 -19q-144 0 -232.5 92t-88.5 246q0 62 12 130l121 683h170l-128 -725q-8 -50 -8 -89q0 -92 51.5 -139t120.5 -47q83 0 148.5 63.5t98.5 249.5 q55 314 55 687h170q0 -375 -56 -692q-45 -251 -162.5 -355t-271.5 -104z" />
<glyph unicode="&#x1f52;" d="M1061 1303h-139l-252 434h222zM605 1538q0 -139 -188 -235h-179v28q204 100 204 182t-142 82h-62v137q57 15 114 15q112 0 182.5 -57.5t70.5 -151.5zM392 -19q-144 0 -232.5 92t-88.5 246q0 62 12 130l121 683h170l-128 -725q-8 -50 -8 -89q0 -92 51.5 -139t120.5 -47 q83 0 148.5 63.5t98.5 249.5q55 314 55 687h170q0 -375 -56 -692q-45 -251 -162.5 -355t-271.5 -104z" />
<glyph unicode="&#x1f53;" d="M1033 1303h-139l-252 434h222zM210 1538q0 94 70.5 151.5t182.5 57.5q57 0 114 -15v-137h-63q-142 0 -142 -82t205 -182v-28h-180q-187 96 -187 235zM392 -19q-144 0 -232.5 92t-88.5 246q0 62 12 130l121 683h170l-128 -725q-8 -50 -8 -89q0 -92 51.5 -139t120.5 -47 q83 0 148.5 63.5t98.5 249.5q55 314 55 687h170q0 -375 -56 -692q-45 -251 -162.5 -355t-271.5 -104z" />
<glyph unicode="&#x1f54;" d="M852 1737h221l-251 -434h-139zM617 1538q0 -139 -187 -235h-180v28q205 100 205 182t-142 82h-63v137q57 15 114 15q112 0 182.5 -57.5t70.5 -151.5zM392 -19q-144 0 -232.5 92t-88.5 246q0 62 12 130l121 683h170l-128 -725q-8 -50 -8 -89q0 -92 51.5 -139t120.5 -47 q83 0 148.5 63.5t98.5 249.5q55 314 55 687h170q0 -375 -56 -692q-45 -251 -162.5 -355t-271.5 -104z" />
<glyph unicode="&#x1f55;" d="M851 1737h221l-251 -434h-139zM230 1538q0 94 70.5 151.5t182.5 57.5q57 0 114 -15v-137h-63q-142 0 -142 -82t205 -182v-28h-180q-187 96 -187 235zM392 -19q-144 0 -232.5 92t-88.5 246q0 62 12 130l121 683h170l-128 -725q-8 -50 -8 -89q0 -92 51.5 -139t120.5 -47 q83 0 148.5 63.5t98.5 249.5q55 314 55 687h170q0 -375 -56 -692q-45 -251 -162.5 -355t-271.5 -104z" />
<glyph unicode="&#x1f56;" d="M328 1614v76l12 44q37 137 181 137q73 0 140 -38l74 -42q57 -33 109 -33q61 0 80 74l9 39h104v-76l-12 -44q-37 -137 -181 -137q-68 0 -155 49l-51 30q-59 34 -117 34q-61 0 -81 -73l-8 -40h-104zM761 1365q0 -113 -165 -179h-187v34q180 60 180 125q0 52 -87 52h-93v110 q78 13 138 13q98 0 156 -41.5t58 -113.5zM392 -19q-144 0 -232.5 92t-88.5 246q0 62 12 130l121 683h170l-128 -725q-8 -50 -8 -89q0 -92 51.5 -139t120.5 -47q83 0 148.5 63.5t98.5 249.5q55 314 55 687h170q0 -375 -56 -692q-45 -251 -162.5 -355t-271.5 -104z" />
<glyph unicode="&#x1f57;" d="M443 1365q0 72 58 113.5t157 41.5q60 0 128 -13v-110h-84q-87 0 -87 -52q0 -65 171 -125v-34h-177q-166 66 -166 179zM327 1614v76l11 44q37 137 181 137q73 0 140 -38l74 -42q57 -33 109 -33q61 0 81 74l8 39h104v-76l-12 -44q-37 -137 -181 -137q-68 0 -155 49l-51 30 q-59 34 -117 34q-61 0 -80 -73l-9 -40h-103zM392 -19q-144 0 -232.5 92t-88.5 246q0 62 12 130l121 683h170l-128 -725q-8 -50 -8 -89q0 -92 51.5 -139t120.5 -47q83 0 148.5 63.5t98.5 249.5q55 314 55 687h170q0 -375 -56 -692q-45 -251 -162.5 -355t-271.5 -104z" />
<glyph unicode="&#x1f59;" d="M170 1631q0 94 70.5 151.5t182.5 57.5q57 0 114 -15v-137h-63q-142 0 -142 -82t205 -182v-28h-180q-187 96 -187 235zM461 0h-169l95 548l-98 200q-105 260 -105 537h162q0 -238 82 -448l63 -146l132 168q153 196 217 426h176q-72 -271 -273 -515l-187 -222z" />
<glyph unicode="&#x1f5b;" d="M970 1396h-139l-252 434h222zM147 1631q0 94 70.5 151.5t182.5 57.5q57 0 114 -15v-137h-63q-142 0 -142 -82t205 -182v-28h-180q-187 96 -187 235zM461 0h-169l95 548l-98 200q-105 260 -105 537h162q0 -238 82 -448l63 -146l132 168q153 196 217 426h176 q-72 -271 -273 -515l-187 -222z" />
<glyph unicode="&#x1f5d;" d="M827 1830h221l-251 -434h-139zM206 1631q0 94 70.5 151.5t182.5 57.5q57 0 114 -15v-137h-63q-142 0 -142 -82t205 -182v-28h-180q-187 96 -187 235zM461 0h-169l95 548l-98 200q-105 260 -105 537h162q0 -238 82 -448l63 -146l132 168q153 196 217 426h176 q-72 -271 -273 -515l-187 -222z" />
<glyph unicode="&#x1f5f;" d="M443 1365q0 72 58 113.5t157 41.5q60 0 128 -13v-110h-84q-87 0 -87 -52q0 -65 171 -125v-34h-177q-166 66 -166 179zM327 1614v76l11 44q37 137 181 137q73 0 140 -38l74 -42q57 -33 109 -33q61 0 81 74l8 39h104v-76l-12 -44q-37 -137 -181 -137q-68 0 -155 49l-51 30 q-59 34 -117 34q-61 0 -80 -73l-9 -40h-103zM462 0h-170l78 445l-129 205q-53 82 -77.5 155.5t-24.5 137.5q0 52 5 93h160q-3 -35 -3 -70q0 -90 77 -224l91 -161l150 161q146 159 162 254l8 40h178l-8 -40q-26 -147 -218 -346l-201 -205z" />
<glyph unicode="&#x1f60;" d="M447 824h149l-95 -535q-6 -45 -6 -64q0 -101 83 -101q108 0 159 298.5t66 709.5h149q-18 -493 -87.5 -822t-294.5 -329q-135 0 -177 116q-63 -116 -188 -116q-91 0 -149 69.5t-58 189.5q0 39 5 85t14 100q56 316 183 707h149q-127 -392 -183 -707q-8 -45 -11.5 -83 t-3.5 -68q0 -78 24.5 -114t62.5 -36q86 0 112 146zM808 1538q0 -139 -188 -235h-180v28q205 100 205 182t-142 82h-63v137q57 15 114 15q112 0 183 -57.5t71 -151.5z" />
<glyph unicode="&#x1f61;" d="M457 1538q0 94 70.5 151.5t182.5 57.5q57 0 114 -15v-137h-63q-142 0 -142 -82t205 -182v-28h-180q-187 96 -187 235zM447 824h149l-95 -535q-6 -45 -6 -64q0 -101 83 -101q108 0 159 298.5t66 709.5h149q-18 -493 -87.5 -822t-294.5 -329q-135 0 -177 116 q-63 -116 -188 -116q-91 0 -149 69.5t-58 189.5q0 39 5 85t14 100q56 316 183 707h149q-127 -392 -183 -707q-8 -45 -11.5 -83t-3.5 -68q0 -78 24.5 -114t62.5 -36q86 0 112 146z" />
<glyph unicode="&#x1f62;" d="M1061 1303h-139l-252 434h222zM605 1538q0 -139 -188 -235h-179v28q204 100 204 182t-142 82h-62v137q57 15 114 15q112 0 182.5 -57.5t70.5 -151.5zM447 824h149l-95 -535q-6 -45 -6 -64q0 -101 83 -101q108 0 159 298.5t66 709.5h149q-18 -493 -87.5 -822t-294.5 -329 q-135 0 -177 116q-63 -116 -188 -116q-91 0 -149 69.5t-58 189.5q0 39 5 85t14 100q56 316 183 707h149q-127 -392 -183 -707q-8 -45 -11.5 -83t-3.5 -68q0 -78 24.5 -114t62.5 -36q86 0 112 146z" />
<glyph unicode="&#x1f63;" d="M1033 1303h-139l-252 434h222zM210 1538q0 94 70.5 151.5t182.5 57.5q57 0 114 -15v-137h-63q-142 0 -142 -82t205 -182v-28h-180q-187 96 -187 235zM447 824h149l-95 -535q-6 -45 -6 -64q0 -101 83 -101q108 0 159 298.5t66 709.5h149q-18 -493 -87.5 -822t-294.5 -329 q-135 0 -177 116q-63 -116 -188 -116q-91 0 -149 69.5t-58 189.5q0 39 5 85t14 100q56 316 183 707h149q-127 -392 -183 -707q-8 -45 -11.5 -83t-3.5 -68q0 -78 24.5 -114t62.5 -36q86 0 112 146z" />
<glyph unicode="&#x1f64;" d="M852 1737h221l-251 -434h-139zM617 1538q0 -139 -187 -235h-180v28q205 100 205 182t-142 82h-63v137q57 15 114 15q112 0 182.5 -57.5t70.5 -151.5zM447 824h149l-95 -535q-6 -45 -6 -64q0 -101 83 -101q108 0 159 298.5t66 709.5h149q-18 -493 -87.5 -822t-294.5 -329 q-135 0 -177 116q-63 -116 -188 -116q-91 0 -149 69.5t-58 189.5q0 39 5 85t14 100q56 316 183 707h149q-127 -392 -183 -707q-8 -45 -11.5 -83t-3.5 -68q0 -78 24.5 -114t62.5 -36q86 0 112 146z" />
<glyph unicode="&#x1f65;" d="M851 1737h221l-251 -434h-139zM230 1538q0 94 70.5 151.5t182.5 57.5q57 0 114 -15v-137h-63q-142 0 -142 -82t205 -182v-28h-180q-187 96 -187 235zM447 824h149l-95 -535q-6 -45 -6 -64q0 -101 83 -101q108 0 159 298.5t66 709.5h149q-18 -493 -87.5 -822t-294.5 -329 q-135 0 -177 116q-63 -116 -188 -116q-91 0 -149 69.5t-58 189.5q0 39 5 85t14 100q56 316 183 707h149q-127 -392 -183 -707q-8 -45 -11.5 -83t-3.5 -68q0 -78 24.5 -114t62.5 -36q86 0 112 146z" />
<glyph unicode="&#x1f66;" d="M328 1614v76l12 44q37 137 181 137q73 0 140 -38l74 -42q57 -33 109 -33q61 0 80 74l9 39h104v-76l-12 -44q-37 -137 -181 -137q-68 0 -155 49l-51 30q-59 34 -117 34q-61 0 -81 -73l-8 -40h-104zM761 1365q0 -113 -165 -179h-187v34q180 60 180 125q0 52 -87 52h-93v110 q78 13 138 13q98 0 156 -41.5t58 -113.5zM447 824h149l-95 -535q-6 -45 -6 -64q0 -101 83 -101q108 0 159 298.5t59 613.5h149q-11 -397 -80.5 -726t-294.5 -329q-135 0 -177 116q-63 -116 -188 -116q-91 0 -149 69.5t-58 189.5q0 39 5 85t14 100q56 316 176 611h149 q-120 -296 -176 -611q-8 -45 -11.5 -83t-3.5 -68q0 -78 24.5 -114t62.5 -36q86 0 112 146z" />
<glyph unicode="&#x1f67;" d="M443 1365q0 72 58 113.5t157 41.5q60 0 128 -13v-110h-84q-87 0 -87 -52q0 -65 171 -125v-34h-177q-166 66 -166 179zM327 1614v76l11 44q37 137 181 137q73 0 140 -38l74 -42q57 -33 109 -33q61 0 81 74l8 39h104v-76l-12 -44q-37 -137 -181 -137q-68 0 -155 49l-51 30 q-59 34 -117 34q-61 0 -80 -73l-9 -40h-103zM447 824h149l-95 -535q-6 -45 -6 -64q0 -101 83 -101q108 0 159 298.5t59 613.5h149q-11 -397 -80.5 -726t-294.5 -329q-135 0 -177 116q-63 -116 -188 -116q-91 0 -149 69.5t-58 189.5q0 39 5 85t14 100q56 316 176 611h149 q-120 -296 -176 -611q-8 -45 -11.5 -83t-3.5 -68q0 -78 24.5 -114t62.5 -36q86 0 112 146z" />
<glyph unicode="&#x1f68;" d="M612 1631q0 -139 -188 -235h-180v28q205 100 205 182t-142 82h-63v137q57 15 114 15q112 0 183 -57.5t71 -151.5zM920 957l-66 -374q-60 -337 -267 -433h189v-150h-329l38 214q150 95 193 340l76 432q4 22 4 44q0 120 -142 120h-96q-145 0 -170 -144l-80 -452 q-11 -66 -11 -121q0 -151 85 -219l-38 -214h-303v150h215q-122 99 -122 310q0 76 15 162l66 374q28 163 112 235.5t231 72.5h134q127 0 200 -68.5t73 -192.5q0 -38 -7 -86z" />
<glyph unicode="&#x1f69;" d="M259 1631q0 94 70.5 151.5t182.5 57.5q57 0 114 -15v-137h-63q-142 0 -142 -82t205 -182v-28h-180q-187 96 -187 235zM920 957l-66 -374q-60 -337 -267 -433h189v-150h-329l38 214q150 95 193 340l76 432q4 22 4 44q0 120 -142 120h-96q-145 0 -170 -144l-80 -452 q-11 -66 -11 -121q0 -151 85 -219l-38 -214h-303v150h215q-122 99 -122 310q0 76 15 162l66 374q28 163 112 235.5t231 72.5h134q127 0 200 -68.5t73 -192.5q0 -38 -7 -86z" />
<glyph unicode="&#x1f6a;" d="M1061 1396h-139l-252 434h222zM605 1631q0 -139 -188 -235h-179v28q204 100 204 182t-142 82h-62v137q57 15 114 15q112 0 182.5 -57.5t70.5 -151.5zM920 957l-66 -374q-60 -337 -267 -433h189v-150h-329l38 214q150 95 193 340l76 432q4 22 4 44q0 120 -142 120h-96 q-145 0 -170 -144l-80 -452q-11 -66 -11 -121q0 -151 85 -219l-38 -214h-303v150h215q-122 99 -122 310q0 76 15 162l66 374q28 163 112 235.5t231 72.5h134q127 0 200 -68.5t73 -192.5q0 -38 -7 -86z" />
<glyph unicode="&#x1f6b;" d="M985 1396h-139l-252 434h222zM162 1631q0 94 70.5 151.5t182.5 57.5q57 0 114 -15v-137h-63q-142 0 -142 -82t205 -182v-28h-180q-187 96 -187 235zM920 957l-66 -374q-60 -337 -267 -433h189v-150h-329l38 214q150 95 193 340l76 432q4 22 4 44q0 120 -142 120h-96 q-145 0 -170 -144l-80 -452q-11 -66 -11 -121q0 -151 85 -219l-38 -214h-303v150h215q-122 99 -122 310q0 76 15 162l66 374q28 163 112 235.5t231 72.5h134q127 0 200 -68.5t73 -192.5q0 -38 -7 -86z" />
</font>
</defs>
</svg>
